<?xml version="1.0" encoding="UTF-8" standalone="no"?><!DOCTYPE svg PUBLIC "-//W3C//DTD SVG 1.1//EN" "http://www.w3.org/Graphics/SVG/1.1/DTD/svg11.dtd"><svg width="100%" height="100%" viewBox="0 0 3856 3057" version="1.1" xmlns="http://www.w3.org/2000/svg" xmlns:xlink="http://www.w3.org/1999/xlink" xml:space="preserve" xmlns:serif="http://www.serif.com/" style="fill-rule:evenodd;clip-rule:evenodd;stroke-linejoin:round;stroke-miterlimit:2;"><rect id="Монтажная-область1" serif:id="Монтажная область1" x="0" y="0" width="3855.22" height="3056.74" style="fill:none;"/><clipPath id="_clip1"><rect x="0" y="0" width="3855.22" height="3056.74"/></clipPath><g clip-path="url(#_clip1)"><path d="M3333.31,894.061c4.005,351.139 132.216,970.228 -1159.41,1607.48c-1932.3,896.328 -2631.12,440.506 -2854.49,321.778c-370.745,-197.067 -812.839,-1249.59 -798.667,-1515.96c14.167,-266.366 407.2,-630.894 594.939,-730.083c234.678,-123.989 991.255,-591.412 1667.54,-568.717c676.283,22.696 2543.23,284.778 2550.09,885.5Z" style="fill:#7cccff;fill-rule:nonzero;"/><g><path d="M3756.79,2263.09c-31.155,26.206 -68.777,44.883 -109.394,58.706c-5.911,2.05 -11.911,3.966 -17.989,5.744c-15.694,4.745 -31.755,8.85 -47.955,12.445c-7.989,1.811 -16.034,3.477 -24.078,5.027c-13.684,2.673 -27.422,5.056 -41.072,7.245c-50.678,8.072 -101.695,14.05 -152.967,18.589c-15.806,1.416 -31.622,2.689 -47.445,3.822l-6.316,0.461l-11.334,0.772l-6.966,0.461c-10.595,0.717 -21.189,1.35 -31.756,1.956c-42.344,2.411 -84.75,4.167 -127.155,5.744c-31.161,1.095 -62.006,2.011 -92.995,2.873l-63.028,1.872l-16.288,0.489l-7.139,0.2c-18.656,0.572 -37.334,1.122 -56.028,1.639l-5.267,0.138l-16.433,0.489l-31.156,0.867l-9.294,0.256l-8.495,0.233c-197.805,5.4 -395.75,9.339 -593.444,7.639c-15.822,-0.111 -31.639,-0.284 -47.444,-0.517c-146.789,-1.922 -293.406,-7.122 -439.767,-17.239c-51.445,-3.561 -103.222,-7.872 -154.722,-13.822c-15.861,-1.822 -31.678,-3.8 -47.445,-5.95c-126.505,-17.239 -249.894,-46.317 -360.428,-100.572c-83.25,-40.945 -160.1,-99.189 -192.333,-176.689c-32.55,-78.217 -15.328,-166.056 21.839,-242.722c37.161,-76.667 93.078,-145.367 141.289,-217.406c16.572,-24.8 32.239,-50.633 46.428,-77.183c0.85,-1.611 1.727,-3.245 2.55,-4.856c7.272,-13.85 14.127,-27.872 20.566,-42.066c6.117,-13.528 11.784,-27.184 16.995,-40.978c1.566,-4.117 3.066,-8.228 4.505,-12.328c0.167,-0.461 0.339,-0.917 0.478,-1.378c0.145,-0.461 0.372,-1.033 0.539,-1.55c9.167,-26.094 16.306,-52.866 21.361,-80.089l0.678,-3.789c0.311,-1.811 0.622,-3.594 0.905,-5.405c0.284,-1.811 0.539,-3.361 0.795,-5.056c3.939,-25.511 5.405,-51.35 4.389,-77.155l0,-2.872c-0.628,-13.223 -2.045,-26.4 -4.245,-39.45c-0.172,-1.123 -0.344,-2.217 -0.566,-3.306c-3.3,-18.722 -8.3,-37.094 -14.928,-54.883c-0.283,-0.778 -0.595,-1.584 -0.911,-2.384c0,-0.344 -0.25,-0.722 -0.395,-1.066c-2.122,-5.489 -4.389,-10.917 -6.883,-16.35c-0.394,-0.917 -0.85,-1.867 -1.272,-2.873c-0.822,-1.755 -1.645,-3.505 -2.522,-5.227c-3.984,-8.261 -8.423,-16.411 -13.317,-24.456c-5.661,-9.567 -12.095,-18.933 -18.695,-28.133l-0.933,-1.289l-0.767,-1.095c-8.666,-11.983 -17.733,-23.761 -26.566,-35.661c-6.945,-9.277 -13.739,-18.616 -20.111,-28.127l-1.134,-1.728c-7.727,-11.478 -14.622,-23.511 -20.622,-36.006c-1.189,-2.555 -2.355,-5.111 -3.428,-7.7c-1.927,-4.539 -3.711,-9.105 -5.3,-13.705c-21.755,-62.356 -15.155,-130.456 -4.7,-195.395c15.495,-96.494 44.328,-200.483 133.589,-260.711c77.922,-52.617 183.384,-58.761 283.261,-45.978c16.006,2.011 31.839,4.511 47.45,7.384l8.495,1.639c126.339,24.572 245.816,68.072 363.828,114.655c27.561,10.889 55.066,21.95 82.544,32.956c21.472,8.6 42.95,17.155 64.439,25.661c24.833,9.805 49.855,19.389 75.067,28.733c15.75,5.861 31.566,11.611 47.444,17.245c25.478,8.983 51.122,17.516 76.939,25.6c18.278,5.75 36.655,11.161 55.122,16.233c87.811,24.255 177.889,41.067 270.095,44.311c70.233,2.506 140.494,-4.094 209.077,-19.656c16,-3.677 31.867,-7.9 47.445,-12.672c21.75,-6.644 43.122,-14.5 64.016,-23.533c52.717,-22.989 100.106,-53.333 137.612,-91.95l0.311,-0.317c55.55,-57.155 136.989,-86.205 222.305,-91.061c15.8,-0.905 31.639,-0.989 47.45,-0.255c59.317,2.488 117.634,16.333 171.884,40.8c134.95,62.066 222.222,193.472 215.65,324.705c-9.545,191.028 -191.089,337.661 -299.412,504.783c-7.65,11.784 -14.927,23.934 -21.7,36.35c-2.488,4.539 -4.872,9.112 -7.194,13.706c-26.683,52.872 -42.717,109.967 -33.989,164.822c1.517,9.672 3.828,19.195 6.911,28.478c1.328,4.05 2.834,8.1 4.506,12.128c12.433,30.055 32.089,55.544 56.339,78.211c10.994,10.194 22.561,19.733 34.644,28.567c101.067,74.538 247.461,121.544 312.128,223.383c54.105,84.45 34.105,198.961 -46.145,266.572Z" style="fill-opacity:0.1;fill-rule:nonzero;"/><path d="M3363.39,1903.39l0,-442.778l59.234,0c2.322,-4.594 4.7,-9.166 7.194,-13.705l-66.428,0l0,-465.506l232.278,0c-0.505,-4.566 -1.072,-9.194 -1.639,-13.705l-230.639,0l0,-427.428c-15.805,-0.733 -31.644,-0.65 -47.444,0.255l0,427.089l-424.244,0l0,-220.139c-15.578,4.767 -31.445,8.995 -47.45,12.673l0,207.466l-605.589,0l-1.445,-2.616l127.867,-229.506c-18.472,-5.078 -36.845,-10.489 -55.122,-16.233l-76.939,138.066l0,-163.783c-15.878,-5.594 -31.695,-11.344 -47.445,-17.244l0,196.2l-139.511,-250.395c-27.472,-11.005 -54.978,-22.066 -82.539,-32.955l209.611,375.994l-1.472,2.611l-580.578,0l0,-495.039c-15.605,-2.877 -31.444,-5.377 -47.444,-7.389l0,502.289l-412.267,0c1.589,4.595 3.373,9.167 5.3,13.706l406.967,0l0,465.5l-298.167,0c-0.139,0.461 -0.311,0.922 -0.483,1.383c-1.433,4.1 -2.933,8.206 -4.5,12.328l303.089,0l0,442.861l-426.767,0c1.322,4.556 2.695,9.128 4.111,13.706l422.717,0l0,453.089c15.861,4.255 31.678,8.694 47.444,13.333l0,-466.422l594.517,0l0,483.205c15.806,0.228 31.622,0.4 47.445,0.517l0,-483.722l611.2,0l0,475.472l31.161,-0.861l16.427,-0.489l0,-474.122l423.995,0l0,457.627c15.822,-1.15 31.639,-2.422 47.444,-3.822l0,-453.805l185.539,0c-0.511,-4.573 -0.994,-9.139 -1.472,-13.706l-183.956,0Zm-1177.81,0l-594.489,0l0,-442.778l594.517,0l-0.028,442.778Zm0,-456.483l-594.489,0l0,-465.506l586.017,0l8.5,12.445l-0.028,453.061Zm658.673,456.483l-611.228,0l0,-442.778l611.228,0l0,442.778Zm0,-456.483l-611.228,0l0,-465.506l611.228,0l0,465.506Zm471.583,456.483l-424.133,0l0,-442.778l424.133,0l0,442.778Zm0,-456.483l-424.133,0l0,-465.506l424.133,0l0,465.506Z" style="fill:#ff6584;fill-opacity:0.1;fill-rule:nonzero;"/><path d="M3127.67,677.85c0.166,4.395 -1.389,8.678 -4.334,11.911c-2.944,3.234 -7.027,5.15 -11.361,5.328l-31.672,0c3.528,1.056 6.617,3.261 8.783,6.272c2.173,3.011 3.306,6.661 3.228,10.395c0.172,4.394 -1.389,8.678 -4.328,11.911c-2.944,3.233 -7.027,5.15 -11.361,5.328l-110.022,0c-2.039,-0.011 -4.061,-0.445 -5.928,-1.273c-1.872,-0.833 -3.555,-2.038 -4.95,-3.555c52.717,-22.989 100.106,-53.333 137.611,-91.95l0.311,-0.317l3.456,0c2.089,0.017 4.15,0.472 6.056,1.339c1.911,0.861 3.616,2.122 5.022,3.689c2.933,3.306 4.555,7.594 4.555,12.039c0,4.45 -1.622,8.739 -4.555,12.044l3.711,0c4.278,0.156 8.322,2.006 11.272,5.156c2.95,3.144 4.567,7.339 4.506,11.683Z" style="fill:#73cdff;fill-opacity:0.1;fill-rule:nonzero;"/><path d="M1919.74,823.934l-3.656,0c2.9,-3.284 4.495,-7.545 4.478,-11.95c0.167,-4.4 -1.389,-8.684 -4.333,-11.917c-2.939,-3.228 -7.028,-5.145 -11.361,-5.328l-110.017,0c-4.339,0.183 -8.422,2.1 -11.367,5.328c-2.939,3.233 -4.5,7.517 -4.327,11.917c-0.173,4.394 1.388,8.677 4.327,11.911c2.945,3.233 7.028,5.15 11.367,5.327l3.678,0c-2.911,3.278 -4.517,7.539 -4.5,11.956c-0.072,3.728 1.061,7.378 3.233,10.389c2.167,3.005 5.25,5.211 8.778,6.278l-31.672,0c-4.167,0.455 -8.017,2.461 -10.817,5.622c-2.8,3.167 -4.344,7.267 -4.344,11.517c0,4.25 1.544,8.35 4.344,11.516c2.8,3.161 6.65,5.167 10.817,5.622l110.022,0c4.333,-0.177 8.417,-2.094 11.361,-5.327c2.939,-3.234 4.5,-7.517 4.328,-11.911c0.111,-3.734 -1,-7.395 -3.15,-10.423c-2.15,-3.027 -5.222,-5.255 -8.745,-6.333l31.667,0c4.194,-0.422 8.083,-2.417 10.906,-5.589c2.827,-3.167 4.394,-7.289 4.394,-11.561c0,-4.278 -1.567,-8.4 -4.394,-11.567c-2.823,-3.172 -6.712,-5.161 -10.906,-5.589l-0.111,0.112Z" style="fill:#73cdff;fill-opacity:0.1;fill-rule:nonzero;"/><path d="M3280.71,1522.62l-3.683,0c2.916,-3.277 4.511,-7.544 4.478,-11.955c0.166,-4.395 -1.389,-8.678 -4.334,-11.911c-2.939,-3.234 -7.028,-5.15 -11.361,-5.328l-110.017,0c-4.333,0.189 -8.416,2.106 -11.355,5.333c-2.939,3.234 -4.5,7.511 -4.339,11.906c-0.161,4.394 1.4,8.678 4.339,11.905c2.939,3.234 7.022,5.15 11.355,5.339l3.678,0c-2.9,3.278 -4.494,7.539 -4.472,11.95c-0.078,3.728 1.056,7.378 3.222,10.384c2.172,3.011 5.261,5.205 8.789,6.255l-31.672,0c-4.189,0.428 -8.078,2.417 -10.906,5.589c-2.827,3.167 -4.389,7.289 -4.389,11.567c0,4.272 1.562,8.394 4.389,11.566c2.828,3.167 6.717,5.162 10.906,5.589l110.022,0c4.328,-0.189 8.411,-2.105 11.356,-5.339c2.939,-3.227 4.5,-7.511 4.339,-11.905c0.072,-3.722 -1.062,-7.372 -3.234,-10.378c-2.172,-3.005 -5.255,-5.205 -8.778,-6.255l31.667,0c4.195,-0.428 8.083,-2.423 10.906,-5.589c2.827,-3.173 4.394,-7.295 4.394,-11.567c0,-4.278 -1.567,-8.4 -4.394,-11.567c-2.823,-3.172 -6.711,-5.161 -10.906,-5.589Z" style="fill:#73cdff;fill-opacity:0.1;fill-rule:nonzero;"/><path d="M1337.68,1584.85c123.717,-18.083 204.856,-167.605 181.223,-333.966c-23.634,-166.356 -143.084,-286.556 -266.806,-268.473c-123.717,18.089 -204.856,167.611 -181.222,333.967c23.633,166.361 143.083,286.556 266.805,268.472Z" style="fill-opacity:0.1;fill-rule:nonzero;"/><path d="M1343.54,1582.39c123.717,-18.084 204.855,-167.606 181.222,-333.967c-23.628,-166.356 -143.083,-286.556 -266.8,-268.472c-123.722,18.083 -204.861,167.605 -181.228,333.966c23.634,166.356 143.084,286.556 266.806,268.473Z" style="fill:#3a3768;fill-rule:nonzero;"/><path d="M1509.32,1321.25c-1.617,28.172 -6.817,56.017 -15.467,82.839c-9.806,31.256 -25.678,60.206 -46.683,85.145c-25.495,29.566 -57.9,49.133 -94.667,54.594c-6.072,0.878 -12.194,1.356 -18.328,1.439c-99.422,1.378 -192.278,-103.445 -212.305,-244.45c-21.161,-149.595 47.533,-283.639 153.644,-299.011c31.583,-4.628 62.883,1.75 91.861,16.978c41.728,21.838 78.634,62.011 104.467,113.905c17.333,35.233 28.917,73.078 34.305,112.067c3.65,25.316 4.712,50.95 3.173,76.494Z" style="fill:#73cdff;fill-rule:nonzero;"/><path d="M1358.99,1284.56l-13.711,126.689c0,0 43.85,-4.167 56.655,-26.406l-40.422,-102.411l-2.522,2.128Z" style="fill:#73cdff;fill-rule:nonzero;"/><path d="M1358.99,1284.56l-13.711,126.689c0,0 43.85,-4.167 56.655,-26.406l-40.422,-102.411l-2.522,2.128Z" style="fill:#ff6584;fill-opacity:0.2;fill-rule:nonzero;"/><path d="M1166.06,1280.33l68.977,-4.711c0,0 7.167,53.161 28.95,83.072l-48.977,54.022c0,0 -50.789,-82.094 -48.95,-132.383Z" style="fill:#ff6584;fill-opacity:0.2;fill-rule:nonzero;"/><path d="M1340.73,1273.74l-162.7,176.989l2.072,1.961l162.7,-176.989l-2.072,-1.961Z" style="fill:#fff;fill-opacity:0.3;fill-rule:nonzero;"/><path d="M1119.94,1285.27l-0.222,-2.872l226.266,-16.722l0.228,2.844l-226.272,16.75Z" style="fill:#fff;fill-opacity:0.3;fill-rule:nonzero;"/><path d="M1471.78,1132.58l-19.572,24.078c-48.411,-93.989 -88.805,-99.278 -88.805,-99.278l3.911,-38.733c41.783,21.866 78.689,62.039 104.466,113.933Z" style="fill:#ff6584;fill-opacity:0.2;fill-rule:nonzero;"/><path d="M1257.67,1162.43l89.339,94.822l-6.262,2.672l-103.9,-41.433c0,0 8.328,-33.706 20.823,-56.061Z" style="fill:#ff6584;fill-opacity:0.2;fill-rule:nonzero;"/><path d="M1126.22,1171.33l-1.034,2.678l215.556,85.911l1.039,-2.672l-215.561,-85.917Z" style="fill:#fff;fill-opacity:0.3;fill-rule:nonzero;"/><path d="M1366.38,1265.13l72.856,-10.456c0,0 5.128,30.573 2.405,39.506c-0.088,0.278 -0.188,0.544 -0.311,0.806l-74.95,-29.856Z" style="fill:#ff6584;fill-opacity:0.2;fill-rule:nonzero;"/><path d="M1200.24,1103.35c0,0 30.45,-44.622 68.384,-56.461l33.539,81.35c0,0 -32.689,12.267 -44.134,36.75l-57.789,-61.639Z" style="fill:#ff6584;fill-opacity:0.2;fill-rule:nonzero;"/><path d="M1354.03,1249.78l-2.439,-0.317c-0.538,0 -1.133,-0.172 -1.527,-1.895l-99.85,-239.65l2.605,-1.116l96.622,231.944c0,-12.9 1.528,-41.633 6.823,-105.683c4.677,-56.55 10.116,-113.733 10.172,-114.311l2.833,0.289c-8.105,85.083 -18.922,212.639 -16.772,227.005l1.533,3.734Z" style="fill:#fff;fill-opacity:0.3;fill-rule:nonzero;"/><path d="M1170.04,1070.24l-2.033,2l174.65,182.317l2.027,-2.006l-174.644,-182.311Z" style="fill:#fff;fill-opacity:0.3;fill-rule:nonzero;"/><path d="M1420.43,1190.51l30.505,-35.056c0,0 28.978,72.495 25.723,94.05l-36.228,5.172c0,0 -13.034,-62.211 -20,-64.166Z" style="fill:#ff6584;fill-opacity:0.2;fill-rule:nonzero;"/><path d="M1470.74,1131.69l-107.167,122.394l2.122,1.911l107.162,-122.4l-2.117,-1.905Z" style="fill:#fff;fill-opacity:0.3;fill-rule:nonzero;"/><path d="M1441.76,1255.96l-0.167,-1.522c0,-0.461 0,-0.889 -0.2,-1.322c-0.2,-0.428 0,-1.178 -0.228,-1.778c-2.894,-20.989 -9.233,-41.339 -18.75,-60.2c-0.311,-0.605 -0.622,-1.211 -0.961,-1.811c-0.133,-0.3 -0.283,-0.589 -0.456,-0.861c-15.238,-28.739 -37.105,-50.2 -61.494,-60.345c-0.911,-0.405 -1.817,-0.75 -2.833,-1.094c-12.628,-4.894 -26.273,-6.467 -39.661,-4.567c-4.978,0.717 -9.873,1.945 -14.617,3.65c-0.367,0.095 -0.728,0.217 -1.072,0.373l-1.617,0.605c-17.056,7.128 -31.633,19.256 -41.867,34.822l-0.311,0.461l-0.822,1.239c-0.178,0.228 -0.339,0.467 -0.483,0.717c-1.189,1.811 -2.35,3.65 -3.456,5.572c-1.1,1.928 -2.094,3.678 -3.083,5.75c-6.395,12.45 -11.067,25.734 -13.884,39.484c-0.227,0.944 -0.422,1.922 -0.594,2.872c-3.489,18.478 -4.233,37.383 -2.206,56.089l0.167,1.694c0,0.372 0,0.778 0.145,1.15c0.194,1.583 0.394,3.161 0.622,4.739c3.711,27.544 13.489,53.883 28.611,77.067c0.167,0.289 0.367,0.55 0.561,0.839c0.2,0.283 0.711,1.061 1.106,1.577c0.966,1.439 1.955,2.873 3.005,4.195c19.828,26.75 46.367,43.794 74.183,45.805c1.223,0 2.467,0.145 3.712,0.173l2.833,0c3.339,-0.034 6.672,-0.289 9.972,-0.778c17.006,-2.706 32.745,-10.745 45.011,-22.989c0.739,-0.689 1.472,-1.406 2.184,-2.156c11.561,-12.15 20.572,-26.561 26.483,-42.355c0.394,-0.972 0.767,-1.95 1.133,-2.872c4.95,-13.778 8.128,-28.15 9.461,-42.756l0.256,-3.017c1.022,-12.805 0.794,-25.689 -0.683,-38.45Zm-11.073,82.039c-0.339,1.006 -0.711,2.011 -1.077,2.872c-5.65,15.495 -14.323,29.678 -25.495,41.695c-0.705,0.75 -1.417,1.494 -2.15,2.183c-11.983,12.189 -27.483,20.184 -44.25,22.817c-3.083,0.461 -6.2,0.711 -9.317,0.75l-2.833,0c-29.089,-0.606 -56.967,-18.395 -77.444,-46.895l-1.756,-2.5c-0.567,-0.805 -1.105,-1.611 -1.617,-2.444c-14.688,-22.694 -24.183,-48.439 -27.788,-75.344c-0.223,-1.523 -0.423,-3.045 -0.595,-4.539c0,-0.978 -0.228,-1.928 -0.311,-2.873c-1.989,-18.272 -1.289,-36.738 2.067,-54.8c0.172,-0.977 0.344,-1.922 0.566,-2.872c2.756,-13.661 7.384,-26.861 13.739,-39.222l1.872,-3.478c1.328,-2.383 2.834,-4.711 4.162,-6.922c0.427,-0.661 0.85,-1.322 1.305,-1.956c0.095,-0.172 0.195,-0.333 0.311,-0.488c9.961,-15.328 24.234,-27.273 40.961,-34.284l2.661,-1.005c9.595,-3.361 19.762,-4.723 29.884,-3.995c7.866,0.606 15.605,2.367 22.972,5.234l2.833,1.116c23.739,10.117 44.956,31.384 59.739,59.628c0.484,0.889 0.939,1.811 1.389,2.728c9.05,18.35 15.078,38.072 17.85,58.389l0.25,1.755l0,1.061c0,0.345 0.145,1.178 0.2,1.784c1.472,12.227 1.767,24.577 0.878,36.866l0,0.917l-0.167,2.1c-1.172,14.233 -4.139,28.256 -8.839,41.722Z" style="fill:#fff;fill-opacity:0.3;fill-rule:nonzero;"/><path d="M1509.32,1321.25c-1.617,28.172 -6.817,56.017 -15.467,82.839l-29.089,-29.855c7.928,-12.123 12.8,-64.367 12.8,-64.367l1.672,1.183c1.473,3.189 17.561,7.356 30.084,10.2Z" style="fill:#ff6584;fill-opacity:0.2;fill-rule:nonzero;"/><path d="M1368.92,1275.55l-2,2.039l126.039,127.183l1.994,-2.033l-126.033,-127.189Z" style="fill:#fff;fill-opacity:0.3;fill-rule:nonzero;"/><path d="M1508.64,1324.61l-145.317,-59.594l142.595,-21.756l0.427,2.845l-132.344,20.172l135.683,55.661l-1.044,2.672Z" style="fill:#fff;fill-opacity:0.3;fill-rule:nonzero;"/><path d="M1447.17,1489.35c-25.495,29.572 -57.9,49.139 -94.667,54.6c-6.072,0.877 -12.194,1.355 -18.328,1.433l5.95,-60.339c0,0 54.472,0.833 86.028,-43.767l21.017,48.073Z" style="fill:#ff6584;fill-opacity:0.2;fill-rule:nonzero;"/><path d="M1363.88,1285.1l-2.611,1.111l84.216,204.128l2.611,-1.111l-84.216,-204.128Z" style="fill:#fff;fill-opacity:0.3;fill-rule:nonzero;"/><path d="M1355.84,1287.23l-22.066,257.928l2.822,0.25l22.067,-257.934l-2.823,-0.244Z" style="fill:#fff;fill-opacity:0.3;fill-rule:nonzero;"/><path d="M1478.3,1250.39c0,-0.95 -0.2,-1.9 -0.339,-2.872c-0.255,-2.361 -0.567,-4.717 -0.911,-7.072c-4.039,-29.073 -12.194,-57.4 -24.217,-84.106l0,-0.261l-1.189,-2.556c-20.761,-44.394 -51.127,-79.05 -85.661,-98.072c-0.677,-0.4 -1.389,-0.772 -2.094,-1.15l-0.595,-0.316c-22.516,-12.306 -48.294,-17.084 -73.65,-13.645c-7.044,1.028 -13.977,2.733 -20.705,5.083l-2.661,0.978c-22.85,9.072 -42.806,24.328 -57.706,44.106c-2.828,3.622 -5.539,7.394 -8.128,11.322c-0.538,0.806 -1.077,1.611 -1.583,2.444c-15.811,25.423 -26.578,53.728 -31.7,83.328c-0.2,0.95 -0.367,1.9 -0.511,2.878c-4.967,29.256 -5.644,59.1 -2.011,88.561c0,0.945 0.228,1.895 0.367,2.872c0.144,0.978 0.344,2.728 0.538,4.106c0.312,2.217 0.656,4.455 1.023,6.639l0,0.2c1.389,8.622 3.116,16.983 5.155,25.205c-0.011,0.084 -0.011,0.173 0,0.256c8.039,33.672 22.2,65.528 41.75,93.933c0.539,0.806 1.078,1.584 1.672,2.389c5.567,7.772 11.623,15.172 18.134,22.15c3.794,4.083 7.7,7.906 11.666,11.495c25.695,23.361 54.389,36.638 83.478,38.733c3.4,0.233 6.828,0.317 10.228,0.233l1.189,0c0.555,0.028 1.117,0.028 1.672,0c3.789,-0.144 7.572,-0.489 11.328,-1.033c27.878,-4.083 53.117,-18.333 73.65,-41.239c0.255,-0.256 0.483,-0.544 0.711,-0.8l1.389,-1.556c9.9,-11.55 18.339,-24.311 25.122,-37.983c4.456,-8.855 8.317,-18.005 11.556,-27.389c0.2,-0.494 0.366,-1.005 0.511,-1.522c0.194,-0.494 0.366,-1.006 0.511,-1.522c6.605,-19.961 10.828,-40.656 12.578,-61.634c0,-0.461 0,-0.894 0.139,-1.35c0.144,-0.461 0,-1.094 0.144,-1.638c0.583,-7.817 0.889,-15.723 0.906,-23.706c0.072,-11.856 -0.512,-23.706 -1.756,-35.489Zm-1.956,60.972c-1.638,20.589 -5.688,40.906 -12.066,60.517c-0.322,0.994 -0.661,1.956 -1.022,2.872c-3.289,9.717 -7.245,19.184 -11.839,28.334c-6.473,13.038 -14.484,25.238 -23.85,36.322c-0.65,0.805 -1.361,1.611 -2.067,2.383c-20.394,22.989 -45.322,37.356 -72.972,41.35c-3.567,0.517 -7.139,0.861 -10.706,1.033l-2.833,0c-32.261,0.695 -64.5,-12.844 -92.939,-39.05c-3.594,-3.305 -7.139,-6.838 -10.622,-10.544c-6.545,-7.028 -12.639,-14.478 -18.245,-22.3l-0.816,-1.206l-0.85,-1.205c-24.05,-34.483 -40.511,-77.583 -47.167,-124.511c-0.2,-1.289 -0.367,-2.584 -0.539,-3.878c0,-0.489 0,-0.978 -0.194,-1.494c-0.2,-0.517 0,-0.889 -0.145,-1.35c-3.6,-29.034 -2.983,-58.445 1.845,-87.295l0.505,-2.872c5.017,-29.228 15.6,-57.183 31.161,-82.3c0.284,-0.478 0.595,-0.967 0.934,-1.467c0.2,-0.344 0.427,-0.689 0.65,-1.005c2.494,-3.817 5.127,-7.5 7.85,-11.006c14.672,-19.683 34.439,-34.867 57.105,-43.844l1.9,-0.695l0.789,-0.283c6.506,-2.261 13.2,-3.895 20,-4.889c7.822,-1.128 15.745,-1.417 23.622,-0.861c17.245,1.383 34.017,6.405 49.234,14.744l0.566,0.284l2.123,1.177c19.544,11.278 36.833,26.162 50.988,43.878c13.189,16.334 24.289,34.289 33.028,53.45c0.145,0.256 0.256,0.545 0.372,0.806l0.934,2.011c11.605,26.133 19.5,53.8 23.455,82.178c0.339,2.361 0.65,4.689 0.934,7.044c0,0.572 0,1.117 0.2,1.695c0.194,0.572 0,0.772 0,1.177c2.15,19.078 2.522,38.323 1.105,57.467c-0.172,1.211 -0.316,2.322 -0.428,3.333Z" style="fill:#fff;fill-opacity:0.3;fill-rule:nonzero;"/><path d="M1357.41,1287.37c7.788,-1.139 12.85,-10.872 11.311,-21.745c-1.545,-10.866 -9.111,-18.755 -16.9,-17.616c-7.789,1.133 -12.85,10.872 -11.306,21.739c1.545,10.872 9.106,18.761 16.895,17.622Z" style="fill:#73cdff;fill-rule:nonzero;"/><path d="M1357.41,1287.37c7.788,-1.139 12.85,-10.872 11.311,-21.745c-1.545,-10.866 -9.111,-18.755 -16.9,-17.616c-7.789,1.133 -12.85,10.872 -11.306,21.739c1.545,10.872 9.106,18.761 16.895,17.622Z" style="fill:#ff6584;fill-opacity:0.2;fill-rule:nonzero;"/><path d="M2776.93,571.9c21.178,0 38.35,-17.416 38.35,-38.905c0,-21.489 -17.172,-38.906 -38.35,-38.906c-21.184,0 -38.356,17.417 -38.356,38.906c0,21.489 17.172,38.905 38.356,38.905Z" style="fill:#73cdff;fill-opacity:0.1;fill-rule:nonzero;"/><path d="M1012.02,988.384c21.183,0 38.355,-17.417 38.355,-38.906c0,-21.489 -17.172,-38.906 -38.355,-38.906c-21.184,0 -38.356,17.417 -38.356,38.906c0,21.489 17.172,38.906 38.356,38.906Z" style="fill:#73cdff;fill-opacity:0.1;fill-rule:nonzero;"/><path d="M3708.13,1264.73c21.183,0 38.355,-17.422 38.355,-38.906c0,-21.488 -17.172,-38.911 -38.355,-38.911c-21.178,0 -38.35,17.423 -38.35,38.911c0,21.484 17.172,38.906 38.35,38.906Z" style="fill:#ff6584;fill-opacity:0.1;fill-rule:nonzero;"/><path d="M3552.96,1499.52c21.183,0 38.355,-17.417 38.355,-38.906c0,-21.489 -17.172,-38.905 -38.355,-38.905c-21.178,0 -38.35,17.416 -38.35,38.905c0,21.489 17.172,38.906 38.35,38.906Z" style="fill:#ff6584;fill-opacity:0.1;fill-rule:nonzero;"/><path d="M2889.81,492.134c9.761,0 17.677,-8.028 17.677,-17.928c0,-9.906 -7.916,-17.934 -17.677,-17.934c-9.762,0 -17.673,8.028 -17.673,17.934c0,9.9 7.911,17.928 17.673,17.928Z" style="fill:#73cdff;fill-opacity:0.1;fill-rule:nonzero;"/><path d="M895.456,877.067c9.761,0 17.672,-8.028 17.672,-17.933c0,-9.9 -7.911,-17.928 -17.672,-17.928c-9.767,0 -17.678,8.028 -17.678,17.928c0,9.905 7.911,17.933 17.678,17.933Z" style="fill:#73cdff;fill-opacity:0.1;fill-rule:nonzero;"/><path d="M3687.45,1699.94c9.767,0 17.678,-8.028 17.678,-17.928c0,-9.906 -7.911,-17.933 -17.678,-17.933c-9.761,0 -17.672,8.027 -17.672,17.933c0,9.9 7.911,17.928 17.672,17.928Z" style="fill:#ff6584;fill-opacity:0.1;fill-rule:nonzero;"/><path d="M2986.06,426.561c6.9,0 12.489,-5.672 12.489,-12.672c0,-7 -5.589,-12.672 -12.489,-12.672c-6.9,0 -12.494,5.672 -12.494,12.672c0,7 5.594,12.672 12.494,12.672Z" style="fill:#73cdff;fill-opacity:0.1;fill-rule:nonzero;"/><path d="M973.661,1140.97c6.9,0 12.495,-5.672 12.495,-12.672c0,-7 -5.595,-12.673 -12.495,-12.673c-6.9,0 -12.489,5.673 -12.489,12.673c0,7 5.589,12.672 12.489,12.672Z" style="fill:#73cdff;fill-opacity:0.1;fill-rule:nonzero;"/><path d="M3616.69,2242.55c0,0 -21.188,-92.439 -35.294,-204.823c-14.111,-112.383 -123.478,-299.127 -123.478,-299.127c-0.483,-0.95 -0.989,-1.928 -1.5,-2.878c-16.961,-32.645 -37.361,-63.333 -60.844,-91.517c-48.156,-57.672 -91.834,-83.589 -94.017,-84.855c-3.455,-5.345 -7.167,-11.234 -11.078,-17.528c-14.672,-23.533 -32.122,-53.128 -48.777,-85.083c0,-0.75 -0.256,-1.467 -0.395,-2.212c-7.422,-45.516 -7.705,-93.388 14.617,-132.7c11.016,-19.394 26.911,-35.372 39.033,-54.05c19.828,-30.455 28.833,-66.805 36.117,-102.666c5.128,-25.089 9.544,-50.661 8.244,-76.206l0,-1.15c0,-1.783 -0.228,-3.561 -0.4,-5.344c-4.161,-46.322 -28.1,-87.928 -51.439,-127.784c-12.294,-20.977 -25.211,-42.616 -45.011,-56.177c-41.189,-28.189 -91.666,-10.545 -135.683,-26.695c-46.767,-17.239 -89.511,-33.305 -140.417,-38.589c-18.044,-1.872 -37.872,-2.327 -52.489,8.617c-15.35,11.494 -20.45,32.472 -30.65,49.05c-19.461,31.611 -56.172,45.978 -87.161,65.861c-23.539,14.972 -46.111,38.906 -50.983,65.256l0,-0.228c-0.517,2.844 -0.817,5.728 -0.911,8.622l0,1.406c-0.089,5.316 0.616,10.616 2.1,15.716c1.755,0.923 3.539,1.728 5.35,2.534c-1.128,1.866 -2.261,3.733 -3.339,5.744l-2.378,4.283c-18.928,34.634 -30.389,72.945 -33.628,112.406c-3.239,39.461 1.817,79.172 14.834,116.5c13.016,37.333 33.694,71.433 60.672,100.056c26.978,28.622 59.633,51.105 95.817,65.966c1.666,4.139 3.394,8.422 5.094,12.845c29.239,74.633 44.606,154.111 45.322,234.422l0,11.005c-25.489,32.756 -51.922,73.389 -50.983,101.489c1.528,47.067 -60.339,156.578 -77.022,185.195l-3.345,5.75c-16.655,-12.245 -36.455,-23.25 -46.055,-15.517l-8.045,-5.233c-40.678,-26.489 -113.305,-75.572 -140.7,-104.911c-38.805,-41.695 -114.666,-79.767 -114.666,-79.767c0,0 -59.967,-72.528 -56.423,-99.711c1.756,-13.533 -22.322,-121.572 -52.15,-200.856c21.784,2.328 44.161,5.117 50.989,5.978l1.667,1.495l2.355,0.372c82.456,73.505 100.5,40.75 100.5,40.75c6.745,-4.628 9.039,-18.567 9.689,-23.911l0,-1.261l0.423,0l0,-1.067c0.177,-0.311 0.327,-0.639 0.455,-0.978l0.2,-0.372l0.139,-0.283c0,-0.234 0.2,-0.489 0.311,-0.75c0.478,-0.912 0.85,-1.878 1.106,-2.873l-0.228,0c1.089,-6.011 1.667,-12.105 1.728,-18.216c0.022,-4.728 -1.55,-9.317 -4.461,-13.006c-2.906,-3.689 -6.967,-6.261 -11.512,-7.283c0,-0.145 0,-0.289 -0.144,-0.461c-10.706,-32.295 -88.578,15.605 -97.189,21.033l-2.094,0.233c-15.606,-3.161 -39.656,-8.939 -60.023,-13.939c-27.622,-68.155 -58.95,-106.316 -79.033,-22.438l-18.467,-3.223c-2.3,-0.416 -4.655,-0.355 -6.927,0.189c-2.267,0.545 -4.406,1.556 -6.273,2.972c-2.6,1.945 -4.755,4.434 -6.316,7.3l-80.139,-12.872l-18.895,0.661l16.006,7.845l1.189,0.572l80.139,13.25c0.489,3.839 2.205,7.406 4.894,10.156c2.689,2.744 6.195,4.522 9.978,5.044l17.983,2.644c-32.122,190.195 39.661,252.262 39.661,252.262c0,0 86.423,85.972 86.423,106.316c0,17.245 168.711,222.034 219.983,283.845c9.178,11.094 14.617,17.583 14.617,17.583c20.139,23.478 116.989,103.678 162.055,140.633c4.417,37.35 8.5,74.706 10.85,95.195l8.495,-0.228l40.311,-1.122l21.7,-0.661c18.694,-0.517 37.372,-1.061 56.028,-1.639l7.138,-0.2l16.289,-0.517c21.017,-0.611 42.023,-1.244 63.023,-1.894c30.988,-0.95 61.977,-1.867 93,-2.878c42.488,-1.522 84.805,-3.272 127.155,-5.745c10.567,-0.605 21.161,-1.233 31.756,-1.955l6.966,-0.489l11.328,-0.772c69.289,-4.972 138.295,-12.128 206.783,-23.161c13.656,-2.211 27.395,-4.628 41.078,-7.356c8.045,-1.555 16.089,-3.25 24.078,-5.089c16.2,-3.65 32.261,-7.816 47.956,-12.611c-6.684,-48.561 -12.662,-84.194 -12.662,-84.194Z" style="fill:url(#_Linear2);fill-rule:nonzero;"/><path d="M2448.37,1517.8l-10.539,-0.373c0,0 -71.467,-8.994 -94.356,-9.538c-2.305,-0.339 -4.655,-0.15 -6.883,0.544l5.072,-20.75l6.206,1.556c21.783,5.461 93.983,23.388 105.6,23.788c13.739,0.462 -5.1,4.773 -5.1,4.773Z" style="fill:#ff6584;fill-rule:nonzero;"/><path d="M2440.07,1510.9c0,0 86.677,-55 98.011,-21.239c11.328,33.767 -18.217,38.739 -18.217,38.739l-79.794,-17.5Z" style="fill:#73cdff;fill-rule:nonzero;"/><path d="M2440.07,1510.9c0,0 86.677,-55 98.011,-21.239c11.328,33.767 -18.217,38.739 -18.217,38.739l-79.794,-17.5Z" style="fill-opacity:0.2;fill-rule:nonzero;"/><path d="M2540.12,1559.26c0,0 -18.273,32.811 -102.4,-41.839l1.161,-1.522l3.483,-4.572c0,0 108.889,-50.772 111.722,-1.178c-0.044,6.45 -0.727,12.884 -2.039,19.195c-0.305,1.377 -0.894,2.666 -1.727,3.794l-0.4,0.372c0,0 0,0.778 -0.228,2.1c-0.533,5.284 -2.828,19.023 -9.572,23.65Z" style="fill:#ff6584;fill-rule:nonzero;"/><path d="M2540.12,1559.26c0,0 -18.273,32.811 -102.4,-41.839l1.161,-1.522l1.955,-2.044l109.484,19.283l-0.4,0.372c0,0 0,0.778 -0.228,2.1c-0.533,5.284 -2.828,19.023 -9.572,23.65Z" style="fill-opacity:0.1;fill-rule:nonzero;"/><path d="M2550.37,1534.43l-112.005,-18.278l-5.667,-4.884l10.256,-1.205l109.655,18.017c-0.289,1.561 -1.017,3.011 -2.1,4.166c0,0 0.028,0.861 -0.139,2.184Z" style="fill-opacity:0.1;fill-rule:nonzero;"/><path d="M2549.27,1536.79l-112.006,-18.189l-5.661,-4.855l10.222,-1.239l109.767,18.016c-0.283,1.573 -1.022,3.028 -2.122,4.167c0,0 -0.028,0.806 -0.2,2.1Z" style="fill-opacity:0.1;fill-rule:nonzero;"/><path d="M2549.81,1535.61l-112.089,-18.189l-5.667,-4.855l10.228,-1.239l109.678,18.017c-0.312,1.561 -1.05,3.005 -2.123,4.166c0,0 0.139,0.778 -0.027,2.1Z" style="fill:#4c4c56;fill-rule:nonzero;"/><path d="M2343.47,1507.88c-2.305,-0.339 -4.655,-0.15 -6.883,0.544l5.072,-20.75l6.206,1.556c-0.7,6.377 -2.173,12.638 -4.395,18.65Z" style="fill-opacity:0.1;fill-rule:nonzero;"/><path d="M2344.24,1482.37l-62.911,-10.806c-2.295,-0.416 -4.65,-0.355 -6.922,0.184c-2.267,0.539 -4.406,1.544 -6.278,2.95c-2.589,1.694 -4.695,4.044 -6.122,6.811c-1.423,2.772 -2.117,5.866 -2.012,8.989c0.367,3.961 2.045,7.677 4.773,10.533c2.722,2.856 6.327,4.689 10.216,5.189l63.084,9.078c0,0 11.383,-28.189 6.172,-32.928Z" style="fill:#d1d9ec;fill-rule:nonzero;"/><path d="M2163.88,1470.41l18.923,-0.689l81.55,12.962c0.6,0.088 1.172,0.305 1.688,0.627c0.517,0.323 0.962,0.75 1.312,1.25c0.344,0.5 0.594,1.073 0.722,1.673c0.128,0.6 0.133,1.216 0.022,1.822c-0.228,1.155 -0.889,2.183 -1.844,2.855c-0.962,0.678 -2.134,0.95 -3.284,0.761l-83.028,-13.533l-16.061,-7.728Z" style="fill-opacity:0.1;fill-rule:nonzero;"/><path d="M2162.72,1469.84l18.895,-0.661l81.577,12.928c0.595,0.1 1.156,0.311 1.667,0.633c0.506,0.322 0.945,0.739 1.289,1.239c0.344,0.494 0.589,1.05 0.722,1.644c0.128,0.589 0.139,1.206 0.034,1.8c-0.217,1.156 -0.873,2.184 -1.823,2.867c-0.95,0.678 -2.122,0.961 -3.272,0.783l-83.055,-13.566l-16.034,-7.667Z" style="fill:#dfe6f5;fill-rule:nonzero;"/><path d="M2777.04,2008.33l-123.472,152.094c0,0 -5.439,-6.411 -14.617,-17.388c-51.272,-61 -219.983,-263.039 -219.983,-280.162c0,-20.116 -86.428,-105.055 -86.428,-105.055c0,0 -77.611,-66.089 -35.295,-272.061c42.323,-205.972 142.878,196.889 139.367,223.728c-3.511,26.838 56.428,98.416 56.428,98.416c0,0 75.855,37.589 114.667,78.734c27.305,28.966 100.016,77.411 140.694,103.444c17.167,11.15 28.639,18.25 28.639,18.25Z" style="fill:#facecd;fill-rule:nonzero;"/><path d="M2777.04,2008.33l-123.472,152.094c0,0 -5.439,-6.411 -14.617,-17.388c1.983,-42.584 90.644,-136.545 106.333,-150.828c0.928,-0.839 1.978,-1.517 3.117,-2.011c17.167,11.033 28.639,18.133 28.639,18.133Z" style="fill-opacity:0.1;fill-rule:nonzero;"/><path d="M2829.96,2033.38c0,0 -56.456,-53.678 -74.078,-37.556c-17.617,16.117 -128.772,134.189 -102.311,164.622c26.455,30.428 185.194,157.406 185.194,157.406l-8.805,-284.472Z" style="fill:#5f5d7e;fill-rule:nonzero;"/><path d="M2829.96,2033.38c0,0 -56.456,-53.678 -74.078,-37.556c-17.617,16.117 -128.772,134.189 -102.311,164.622c26.455,30.428 185.194,157.406 185.194,157.406l-8.805,-284.472Z" style="fill-opacity:0.1;fill-rule:nonzero;"/><path d="M3325.61,1605.72c0,0 -55.094,53.934 -124.1,112.439l-2.605,2.184l-4.023,3.394c-110.077,92.35 -251.933,192.006 -266.55,106.717c-1.639,-11.128 -1.705,-22.439 -0.2,-33.589c0.167,-1.639 0.395,-3.333 0.623,-5.056c0.227,-1.727 0.455,-3.333 0.622,-4.972c2.75,-21.494 4.272,-43.128 4.561,-64.8l0,-10.861c-0.728,-79.328 -16.1,-157.817 -45.322,-231.4c-1.7,-4.367 -3.428,-8.622 -5.1,-12.672c-22.661,-54.828 -44.839,-86.834 -44.839,-86.834c0,0 32.772,-20.116 78.211,-45.977c16.683,-9.428 35.039,-19.567 54.128,-29.739c104.811,-55.75 230.833,-111.495 213.383,-45.978c-8.239,31.006 -0.594,72.156 14.589,115.228c0.85,2.383 1.7,4.711 2.578,7.066c9.844,26.028 21.194,51.45 33.994,76.117l0.85,1.667c18.211,35.405 37.845,68.478 54.1,94.194c3.911,6.206 7.622,12.011 11.078,17.245c14.25,22.122 24.022,35.627 24.022,35.627Z" style="fill:#facecd;fill-rule:nonzero;"/><path d="M3325.82,1605.76c0,0 -55.094,53.939 -124.1,112.444l-2.605,2.184l-4.023,3.388c-110.077,92.356 -251.933,192.006 -266.55,106.723c-1.638,-11.134 -1.705,-22.445 -0.2,-33.595c0.167,-1.633 0.395,-3.333 0.623,-5.055c0.227,-1.723 0.455,-3.334 0.622,-4.973c2.75,-21.488 4.272,-43.127 4.561,-64.794l0,-10.861c-0.728,-79.328 -16.1,-157.817 -45.322,-231.406c-1.7,-4.366 -3.428,-8.616 -5.1,-12.672c-22.661,-54.822 -44.839,-86.833 -44.839,-86.833c0,0 32.772,-20.117 78.211,-45.978c16.683,-9.422 35.039,-19.567 54.128,-29.739c104.811,-55.744 230.833,-111.489 213.383,-45.978c-8.239,31.006 -0.594,72.156 14.589,115.228c0.85,2.383 1.7,4.711 2.578,7.072c9.844,26.028 21.194,51.445 33.994,76.117l0.85,1.667c18.211,35.4 37.845,68.472 54.1,94.189c3.911,6.211 7.622,12.016 11.078,17.244c14.25,22.122 24.022,35.628 24.022,35.628Z" style="fill-opacity:0.09;fill-rule:nonzero;"/><path d="M3201.66,1380.87c-0.823,1.239 -1.7,2.473 -2.578,3.678c-26.461,36.495 -57.078,58.217 -93.478,70.461c-25.1,8.473 -53.028,12.467 -84.328,13.734c-7.794,0.289 -15.75,0.427 -23.966,0.427c-18.934,0.039 -37.85,-1.066 -56.65,-3.3c-9.889,-1.583 -20.228,5.173 -30.228,10.112c-7.45,3.65 -14.728,6.322 -21.528,3.794c-1.7,-4.367 -3.428,-8.622 -5.1,-12.672c-22.661,-54.828 -44.839,-86.834 -44.839,-86.834c0,0 32.772,-20.116 78.211,-45.977c16.684,-9.428 35.039,-19.567 54.128,-29.739c104.811,-55.75 230.833,-111.495 213.383,-45.978c-8.239,31.006 -0.594,72.156 14.589,115.228c0.656,2.383 1.5,4.711 2.384,7.066Z" style="fill-opacity:0.1;fill-rule:nonzero;"/><path d="M3251.53,1211.57c0,4.194 0,8.333 -0.283,12.472c-2.706,60.839 -25.322,119.033 -64.267,165.383c-38.939,46.356 -91.994,78.228 -150.783,90.589c-32.161,6.711 -65.25,7.461 -97.672,2.211c-9.55,-1.511 -19.006,-3.566 -28.328,-6.15c-9.022,-2.483 -17.911,-5.45 -26.622,-8.877c-36.061,-14.223 -68.695,-36.123 -95.695,-64.234c-26.994,-28.105 -47.739,-61.766 -60.816,-98.7c-13.078,-36.933 -18.195,-76.283 -14.995,-115.394c3.195,-39.111 14.628,-77.072 33.522,-111.317l2.384,-4.228c29.944,-51.988 75.939,-92.533 130.872,-115.366c54.928,-22.828 115.744,-26.678 173.044,-10.945c57.306,15.728 107.906,50.161 143.989,97.984c36.084,47.816 55.639,106.355 55.65,166.572Z" style="fill:#facecd;fill-rule:nonzero;"/><path d="M3325.61,1605.72c0,0 -428.639,420.478 -396.883,186.089c3.6,-26.722 5.361,-53.661 5.266,-80.633c14.878,-18.65 30.673,-36.528 47.334,-53.561l60.222,-44.161c62.094,-45.978 137.811,-69.05 214.606,-65.406c11.583,0.3 23.094,1.911 34.327,4.8c20.2,32.1 35.128,52.872 35.128,52.872Z" style="fill-opacity:0.1;fill-rule:nonzero;"/><path d="M3629.41,2327.6c-15.694,4.739 -31.755,8.85 -47.955,12.439c-7.989,1.811 -16.034,3.478 -24.078,5.028c-13.684,2.672 -27.422,5.061 -41.072,7.244c-68.384,10.889 -137.384,17.961 -206.784,22.989l-11.333,0.772l-6.967,0.462c-10.594,0.716 -21.189,1.35 -31.755,1.955c-42.35,2.411 -84.75,4.167 -127.156,5.745c-31.161,1.094 -62.005,2.011 -92.994,2.872l-63.028,1.872l-16.289,0.489l-7.139,0.2c-18.655,0.572 -37.333,1.122 -56.028,1.639l-21.7,0.628l-40.305,1.122l-8.5,0.228c-2.267,-20.284 -6.434,-57.15 -10.85,-93.962l-1.017,-8.616c-4.872,-40.606 -9.917,-79.6 -12.833,-94.367c-7.056,-35.778 0,-184.305 0,-184.305l0.761,-1.234l3.344,-5.75c16.684,-28.244 78.55,-136.344 77.023,-182.811c-0.912,-27.728 25.494,-67.844 50.983,-100.167c3.344,-4.2 6.661,-8.277 9.917,-12.155c20.311,-24.228 37.7,-41.467 37.7,-41.467l60.194,-44.194c62.128,-45.928 137.844,-68.978 214.633,-65.345c22.661,1.184 40.734,4.4 45.323,11.323c1.95,1.122 45.861,26.694 94.011,83.761c23.455,27.789 43.861,58.077 60.85,90.344c0.505,0.922 1.016,1.867 1.5,2.872c0,0 109.366,184.306 123.472,295.25c14.111,110.945 35.294,202.178 35.294,202.178c0,0 6.034,35.028 12.778,82.961Z" style="fill:#5f5d7e;fill-rule:nonzero;"/><path d="M3302.69,2242.72c-8.694,14.367 -1.983,81.633 6.939,132.467l-11.327,0.777l-6.973,0.456c-10.594,0.722 -21.189,1.355 -31.75,1.955c-42.35,2.417 -84.755,4.167 -127.161,5.75c-31.155,1.089 -62.005,2.012 -92.994,2.873l-63.028,1.866c0,-6.55 -1.983,-12.211 -7.111,-15.516c-3.578,-2.617 -6.75,-5.767 -9.4,-9.339c-0.822,-1.006 -1.672,-2.1 -2.522,-3.217c-19.634,-26.439 -44.5,-80.461 -44.5,-80.461c0,0 -31.756,7.156 -35.295,-255.739c-1.133,-85.683 20.734,-148.383 50.728,-193.989c62.15,-94.422 159.167,-115.572 159.167,-115.572c35.95,-6.339 72.9,-3.283 107.361,8.883c13.516,4.811 26.533,10.961 38.861,18.361c16.533,10.084 31.944,21.945 45.978,35.373l4.527,4.394c98.917,97.7 122.289,250.25 61.189,375.911c-19.577,40.139 -37.222,75.745 -42.689,84.767Z" style="fill-opacity:0.1;fill-rule:nonzero;"/><path d="M3288.59,2228.41c-9.578,15.805 -0.456,96.061 9.744,147.555l-6.972,0.456c-10.594,0.722 -21.189,1.355 -31.75,1.955c-42.35,2.417 -84.755,4.167 -127.161,5.75c-31.156,1.089 -62.006,2.012 -92.994,2.873l-63.028,1.866l-16.289,0.489c2.494,-9.283 3.428,-18.85 -0.222,-25.344c-0.678,-1.195 -1.528,-2.278 -2.523,-3.217c-0.65,-0.678 -1.383,-1.267 -2.183,-1.755c-19.4,-12.528 -56.455,-93.073 -56.455,-93.073c0,0 -31.723,7.184 -35.262,-255.739c-1.305,-98.444 27.756,-166.661 64.639,-213.266c61.695,-78.072 145.256,-96.295 145.256,-96.295c10.944,-1.839 22,-2.877 33.089,-3.1l0.339,0c32.716,-0.733 65.15,6.35 94.666,20.689c25.384,12.561 48.55,29.284 68.578,49.478c3.289,3.25 6.517,6.556 9.606,9.917c90.644,97.955 110.7,244.533 51.605,365.994c-19.572,40.145 -37.216,75.745 -42.683,84.767Z" style="fill:#5f5d7e;fill-rule:nonzero;"/><path d="M3070.39,2051.74c0,0 -174.067,125.311 -159.222,142.555c14.839,17.239 159.222,-142.555 159.222,-142.555Z" style="fill-opacity:0.1;fill-rule:nonzero;"/><path d="M3314.65,2096.89c0,0 -54.389,-49.139 -50.45,-30.089c3.933,19.05 50.45,30.089 50.45,30.089Z" style="fill-opacity:0.1;fill-rule:nonzero;"/><path d="M3259.61,2378.37c-42.35,2.417 -84.755,4.167 -127.161,5.75c-72.6,-8.622 -148.089,-21.294 -148.089,-21.294c6.545,-3.878 238.167,-8.561 275.25,15.544Z" style="fill-opacity:0.1;fill-rule:nonzero;"/><path d="M3581.46,2340.04c-7.989,1.811 -16.034,3.478 -24.078,5.033c-3.145,-51.411 -4.389,-95.688 -4.389,-95.688c11.033,29.694 20.539,59.955 28.467,90.655Z" style="fill-opacity:0.1;fill-rule:nonzero;"/><path d="M2896.97,2391.19l-21.694,0.633c-17.284,-47.872 -32.122,-104.655 -38.189,-128.761c-1.867,-7.444 -2.828,-11.783 -2.828,-11.783l2.689,5.75c8.922,18.878 38.494,81.861 60.022,134.161Z" style="fill-opacity:0.1;fill-rule:nonzero;"/><path d="M3233.69,1309.47c-8.645,22.933 -20.306,44.578 -34.672,64.339c0.85,2.383 1.7,4.711 2.577,7.066c9.845,26.028 21.195,51.45 33.995,76.117l0.85,1.667c1.472,11.494 3.511,22.989 5.861,34.194c-43.056,2.3 -86.156,3.306 -129.311,3.022c-18.75,0 -37.783,-0.55 -55.661,-6.238c-7.384,-2.367 -14.461,-5.628 -21.072,-9.712c-5.317,-3.272 -10.345,-7.011 -15.017,-11.177c-23.295,-21.356 -38,-50.678 -41.3,-82.356c-2.578,-24.683 1.105,-50.255 -5.945,-74.022c-0.811,-2.639 -1.761,-5.239 -2.833,-7.783c-5.767,-13.539 -14.878,-25.339 -26.444,-34.267c-11.573,-8.928 -25.217,-14.683 -39.611,-16.711c-4.167,-0.922 -8.523,-0.322 -12.295,1.694c-3.222,2.717 -5.544,6.367 -6.661,10.461l-29.2,77.267c-20.794,5.289 -35.467,-22.267 -33.739,-43.933c1.728,-21.667 11.333,-43.85 4.222,-64.367c-2.183,-6.35 -5.894,-12.128 -7.477,-18.622c-6.317,-25.6 20.816,-48.328 21.044,-74.711c0.172,-21.695 -18.128,-39.223 -37.561,-48.245c-17.817,-8.272 -37.506,-11.839 -55.35,-19.911c29.978,-51.944 75.972,-92.439 130.889,-115.228c54.916,-22.789 115.7,-26.611 172.972,-10.877c57.272,15.738 107.844,50.155 143.917,97.95c36.072,47.788 55.633,106.294 55.666,166.483c0,4.194 0,8.333 -0.283,12.472c-1.289,29.25 -7.217,58.095 -17.561,85.428Z" style="fill-opacity:0.1;fill-rule:nonzero;"/><path d="M2966.26,853.506c-18.044,-1.839 -37.872,-2.3 -52.489,8.616c-15.355,11.495 -20.455,32.067 -30.65,48.417c-19.461,31.267 -56.172,45.55 -87.161,65c-30.989,19.456 -60.333,54.195 -49.967,89.656c19.089,9.766 40.762,13.189 60.195,22.211c19.428,9.022 37.728,26.55 37.561,48.244c-0.228,26.378 -27.367,49.106 -21.05,74.711c1.589,6.495 5.3,12.267 7.478,18.623c7.055,20.516 -2.489,42.7 -4.217,64.361c-1.728,21.666 12.945,49.227 33.733,43.939l29.406,-77.267c1.117,-4.095 3.439,-7.745 6.656,-10.461c3.772,-2.017 8.127,-2.617 12.294,-1.695c15.739,2.234 30.539,8.934 42.689,19.334c12.144,10.394 21.15,24.066 25.972,39.427c7.056,23.762 3.372,49.339 5.95,74.023c4.728,45.516 34.389,89.539 77.445,103.244c17.872,5.745 36.822,6.117 55.661,6.233c43.111,0.328 86.216,-0.677 129.311,-3.016c-10.622,-50.689 -14.956,-106.695 10.794,-151.406c11.017,-19.133 26.906,-34.911 39.034,-53.361c19.827,-30.055 28.833,-65.944 36.116,-101.317c5.661,-26.811 10.278,-54.222 7.789,-81.494c-4.167,-45.717 -28.1,-86.806 -51.444,-126.117c-12.289,-20.716 -25.206,-42.094 -45.011,-55.483c-41.184,-27.817 -91.662,-10.372 -135.684,-26.35c-46.766,-16.928 -89.511,-32.844 -140.411,-38.072Z" style="fill:#865a61;fill-rule:nonzero;"/><g opacity="0.1"><path d="M2831.99,1235.76c1.506,-9.144 0.878,-18.527 -1.844,-27.383c-1.983,-5.744 -5.183,-11.061 -6.967,-16.867c-1.716,5.978 -1.883,12.3 -0.483,18.361c1.589,6.495 5.3,12.273 7.45,18.623c0.817,2.366 1.433,4.794 1.844,7.266Z" style="fill-opacity:0.1;fill-rule:nonzero;"/><path d="M2842.42,1125.11c0.816,-3.289 1.255,-6.667 1.305,-10.056c0.167,-21.666 -18.105,-39.228 -37.533,-48.25c-19.433,-9.022 -41.106,-12.439 -60.195,-22.211c-0.466,-1.594 -0.855,-3.217 -1.161,-4.855c-1.594,8.3 -1.194,16.861 1.161,24.972c19.089,9.766 40.762,13.189 60.195,22.211c16.344,7.583 31.783,21.205 36.228,38.189Z" style="fill-opacity:0.1;fill-rule:nonzero;"/><path d="M3115.74,1469.52c-18.722,0 -37.761,-0.55 -55.633,-6.238c-43.056,-13.706 -72.712,-57.728 -77.445,-103.245c-2.578,-24.683 1.106,-50.228 -5.95,-74.017c-4.828,-15.383 -13.85,-29.061 -26.022,-39.461c-12.167,-10.394 -26.989,-17.089 -42.756,-19.305c-4.166,-0.922 -8.516,-0.317 -12.289,1.694c-3.227,2.711 -5.555,6.361 -6.661,10.461l-29.2,77.267c-16.716,4.256 -29.461,-12.7 -32.944,-30.772c-0.311,2.328 -0.622,4.655 -0.795,6.955c-1.755,21.667 12.945,49.223 33.739,43.934l29.4,-77.267c1.106,-4.1 3.428,-7.75 6.656,-10.461c3.772,-2.017 8.128,-2.617 12.294,-1.695c15.745,2.234 30.539,8.939 42.689,19.334c12.15,10.4 21.156,24.066 25.978,39.428c7.05,23.794 3.367,49.338 5.944,74.022c4.734,45.516 34.389,89.539 77.445,103.244c17.878,5.745 36.828,6.122 55.633,6.234c43.15,0.327 86.267,-0.628 129.339,-2.873c-1.361,-6.577 -2.633,-13.244 -3.767,-19.939c-41.866,2.084 -83.75,2.984 -125.655,2.7Z" style="fill-opacity:0.1;fill-rule:nonzero;"/><path d="M3331.02,1160.42c-7.311,35.373 -16.344,71.262 -36.116,101.317c-12.128,18.45 -28.017,34.222 -39.034,53.361c-15.75,27.328 -20.228,58.878 -18.922,90.861c1.072,-24.972 6.483,-49.166 18.922,-70.75c11.017,-19.133 26.906,-34.911 39.034,-53.355c19.827,-30.061 28.805,-65.95 36.116,-101.322c5.156,-24.973 9.628,-50.456 8.211,-75.889c-1.339,18.777 -4.083,37.422 -8.211,55.777Z" style="fill-opacity:0.1;fill-rule:nonzero;"/></g></g></g><defs><linearGradient id="_Linear2" x1="0" y1="0" x2="1" y2="0" gradientUnits="userSpaceOnUse" gradientTransform="matrix(9.55779e-14,-1560.91,1560.91,9.55779e-14,2896.07,2393.17)"><stop offset="0" style="stop-color:#808080;stop-opacity:0.25"/><stop offset="0.54" style="stop-color:#808080;stop-opacity:0.12"/><stop offset="1" style="stop-color:#808080;stop-opacity:0.1"/></linearGradient></defs></svg>