<?xml version="1.0" encoding="UTF-8" standalone="no"?><!DOCTYPE svg PUBLIC "-//W3C//DTD SVG 1.1//EN" "http://www.w3.org/Graphics/SVG/1.1/DTD/svg11.dtd"><svg width="100%" height="100%" viewBox="0 0 2894 2353" version="1.1" xmlns="http://www.w3.org/2000/svg" xmlns:xlink="http://www.w3.org/1999/xlink" xml:space="preserve" xmlns:serif="http://www.serif.com/" style="fill-rule:evenodd;clip-rule:evenodd;stroke-linejoin:round;stroke-miterlimit:2;"><rect id="Монтажная-область1" serif:id="Монтажная область1" x="0" y="0" width="2893.46" height="2352.35" style="fill:none;"/><clipPath id="_clip1"><rect x="0" y="0" width="2893.46" height="2352.35"/></clipPath><g clip-path="url(#_clip1)"><path d="M2867.2,582.927c8.4,266.162 122.613,730.641 -927.858,1264.94c-1572.35,756.083 -2152.35,437.95 -2337.35,356.717c-307.056,-134.829 -798.607,-904.5 -790.861,-1107.08c7.746,-202.583 438.405,-505.725 590.996,-588.362c190.741,-103.3 804.687,-487.675 1359.89,-497.154c555.204,-9.484 2090.81,115.604 2105.18,570.946Z" style="fill:#7cccff;fill-rule:nonzero;"/><g><path d="M2691.32,1032.48c-86.625,-340.6 -385.946,-586.463 -737.284,-596.325c-185.741,-5.213 -381.191,56.383 -523.495,271.929c-254.384,385.312 15.633,651.575 203.879,778.1c90.946,61.25 172.896,134.896 243.471,218.808c127.154,150.875 371.77,338.354 663.1,44.6c211.154,-212.917 208.033,-490.242 150.329,-717.112Z" style="fill:#f2f2f2;fill-rule:nonzero;"/><path d="M2397.82,1965.02c179.291,0 324.637,-20.962 324.637,-46.816c0,-25.859 -145.346,-46.821 -324.637,-46.821c-179.296,0 -324.642,20.962 -324.642,46.821c0,25.854 145.346,46.816 324.642,46.816Z" style="fill:#3f3d56;fill-rule:nonzero;"/><rect x="437.5" y="598.152" width="1685.62" height="1023.31" style="fill:#3f3d56;fill-opacity:0.87;fill-rule:nonzero;"/><path d="M464.721,634.777c6.721,0 12.167,-5.45 12.167,-12.171c0,-6.721 -5.446,-12.167 -12.167,-12.167c-6.721,0 -12.171,5.446 -12.171,12.167c0,6.721 5.45,12.171 12.171,12.171Z" style="fill:#73cdff;fill-rule:nonzero;"/><path d="M495.821,634.777c6.721,0 12.167,-5.45 12.167,-12.171c0,-6.721 -5.446,-12.167 -12.167,-12.167c-6.721,0 -12.171,5.446 -12.171,12.167c0,6.721 5.45,12.171 12.171,12.171Z" style="fill:#73cdff;fill-rule:nonzero;"/><path d="M526.921,634.777c6.721,0 12.167,-5.45 12.167,-12.171c0,-6.721 -5.446,-12.167 -12.167,-12.167c-6.721,0 -12.171,5.446 -12.171,12.167c0,6.721 5.45,12.171 12.171,12.171Z" style="fill:#73cdff;fill-rule:nonzero;"/><path d="M752.613,978.131c78.966,0 142.979,-64.004 142.979,-142.963c0,-78.954 -64.013,-142.962 -142.979,-142.962c-78.963,0 -142.975,64.008 -142.975,142.962c0,78.959 64.012,142.963 142.975,142.963Z" style="fill:#f2f2f2;fill-rule:nonzero;"/><rect x="470.833" y="1040.02" width="583.333" height="20.833" style="fill:#73cdff;fill-rule:nonzero;"/><rect x="470.833" y="1235.85" width="583.333" height="20.833" style="fill:#f2f2f2;fill-rule:nonzero;"/><rect x="470.833" y="1294.18" width="583.333" height="20.833" style="fill:#f2f2f2;fill-rule:nonzero;"/><rect x="470.833" y="1352.52" width="583.333" height="20.833" style="fill:#f2f2f2;fill-rule:nonzero;"/><rect x="470.833" y="1410.85" width="583.333" height="20.833" style="fill:#f2f2f2;fill-rule:nonzero;"/><rect x="470.833" y="1469.18" width="583.333" height="20.833" style="fill:#f2f2f2;fill-rule:nonzero;"/><rect x="470.833" y="1527.52" width="583.333" height="20.833" style="fill:#f2f2f2;fill-rule:nonzero;"/><rect x="1148.62" y="690.327" width="957.571" height="3.762" style="fill:#73cdff;fill-rule:nonzero;"/><rect x="1148.62" y="727.947" width="957.571" height="3.762" style="fill:#73cdff;fill-rule:nonzero;"/><rect x="1148.62" y="765.568" width="957.571" height="3.763" style="fill:#73cdff;fill-rule:nonzero;"/><rect x="1148.62" y="803.189" width="957.571" height="3.763" style="fill:#73cdff;fill-rule:nonzero;"/><rect x="1148.62" y="840.814" width="957.571" height="3.758" style="fill:#73cdff;fill-rule:nonzero;"/><rect x="1148.62" y="878.435" width="957.571" height="3.762" style="fill:#73cdff;fill-rule:nonzero;"/><rect x="1148.62" y="916.056" width="957.571" height="3.762" style="fill:#73cdff;fill-rule:nonzero;"/><rect x="1148.62" y="953.677" width="957.571" height="3.762" style="fill:#73cdff;fill-rule:nonzero;"/><rect x="1148.62" y="991.297" width="957.571" height="3.762" style="fill:#73cdff;fill-rule:nonzero;"/><rect x="1148.62" y="1028.92" width="957.571" height="3.763" style="fill:#73cdff;fill-rule:nonzero;"/><rect x="1148.62" y="1066.54" width="957.571" height="3.763" style="fill:#73cdff;fill-rule:nonzero;"/><rect x="1165.55" y="1013.87" width="63.963" height="15.05" style="fill:#ff6584;fill-rule:nonzero;"/><rect x="1269.02" y="978.131" width="63.967" height="15.05" style="fill:#ff6584;fill-rule:nonzero;"/><rect x="1372.49" y="902.889" width="63.967" height="15.046" style="fill:#ff6584;fill-rule:nonzero;"/><rect x="1475.96" y="938.631" width="63.963" height="15.046" style="fill:#ff6584;fill-rule:nonzero;"/><rect x="1579.43" y="865.268" width="63.962" height="15.046" style="fill:#ff6584;fill-rule:nonzero;"/><rect x="1682.9" y="938.631" width="63.963" height="15.046" style="fill:#ff6584;fill-rule:nonzero;"/><rect x="1786.38" y="827.643" width="63.962" height="15.05" style="fill:#ff6584;fill-rule:nonzero;"/><rect x="1889.84" y="754.281" width="63.967" height="15.05" style="fill:#ff6584;fill-rule:nonzero;"/><rect x="1993.31" y="791.906" width="63.963" height="15.046" style="fill:#ff6584;fill-rule:nonzero;"/><path d="M1993.31,803.189l0,151.429l-39.509,0l0,-192.812l-63.962,0l0,192.812l-39.504,0l0,-119.45l-63.963,0l0,119.45l-142.979,0l0,-81.825l-63.963,0l0,81.825l-104.412,0l0,36.684l-38.567,0l0,-80.888l-63.962,0l0,80.888l-103.467,0l0,37.62l-103.471,0l0,41.384l891.721,0l0,-267.117l-63.962,0Z" style="fill:#73cdff;fill-opacity:0.1;fill-rule:nonzero;"/><path d="M1412.54,1207.67c-0.284,-2.237 -0.854,-4.433 -1.704,-6.529c-0.109,-0.396 -0.3,-0.762 -0.559,-1.083c-0.258,-0.317 -0.579,-0.579 -0.946,-0.767c-0.487,-0.125 -1,-0.129 -1.491,-0.017l-7.654,1.171c-0.638,0.029 -1.255,0.271 -1.746,0.679c-0.996,1.05 -0.013,2.738 -0.046,4.184c-0.092,0.812 -0.438,1.571 -0.983,2.179c-0.546,0.604 -1.267,1.025 -2.063,1.204c-1.6,0.325 -3.25,0.304 -4.842,-0.058l-10.7,-1.663c3.15,-1.008 5.955,-2.879 8.096,-5.404c1.409,-1.671 2.159,-4.783 0.121,-5.575c-0.604,-0.167 -1.233,-0.217 -1.858,-0.15c-4.85,0.042 -8.667,-4.008 -13.204,-5.712c-2.905,-1.021 -6.059,-1.096 -9.013,-0.217c-2.95,0.879 -5.546,2.667 -7.421,5.112l5.704,0.275c0.534,-0.029 1.067,0.113 1.517,0.405c1.25,1.029 -0.304,3 -0.129,4.608c0.229,2.087 3.004,2.533 5.096,2.746c2.087,0.208 4.741,1.908 3.733,3.754c-10.504,3.617 -21.196,-7.075 -32.233,-5.758c-2.759,0.529 -5.484,1.237 -8.154,2.12c-16.659,4.213 -33.875,-7.029 -50.892,-4.65c-3.783,0.646 -7.5,1.625 -11.108,2.93c-2.38,0.575 -4.584,1.725 -6.417,3.345c-0.888,0.838 -1.45,1.963 -1.583,3.18c-0.134,1.212 0.17,2.433 0.854,3.441c-4.392,0.363 -8.817,-0.058 -13.063,-1.241c1.15,0.641 2.104,1.575 2.767,2.712c0.662,1.133 1.004,2.425 0.996,3.738c-6.859,1.12 -13.538,3.154 -19.854,6.054c1.179,1.962 2.554,3.796 4.108,5.475l-8.683,5.579c0.708,0.229 1.354,0.612 1.891,1.125c0.538,0.512 0.954,1.137 1.221,1.833c0.263,0.696 0.367,1.442 0.304,2.184c-0.066,0.741 -0.296,1.458 -0.675,2.095c3.046,-1.354 4.929,-4.854 8.184,-5.562c2.183,-0.229 4.383,0.196 6.32,1.225c1.942,1.029 4.175,1.379 6.338,1c2.096,-0.617 3.637,-3.329 2.308,-5.058c8.946,-2.613 18.192,-4.055 27.509,-4.3c0.716,-0.088 1.445,0.05 2.083,0.395c1.212,0.842 0.892,2.659 0.829,4.134c-0.067,1.475 1.083,3.412 2.4,2.75c-1.55,1.341 -0.225,3.875 1.263,5.287c1.487,1.413 3.283,3.367 2.37,5.204c-0.237,0.48 -0.641,0.863 -0.87,1.346c-0.676,1.434 0.4,3.1 1.662,4.046c1.383,0.767 2.633,1.754 3.692,2.929c0.879,1.317 0.479,3.617 -1.092,3.8l-4.462,-5.666c-1.525,1.579 -2.571,3.562 -3.017,5.712c2.296,2.029 3.725,4.854 4.004,7.904c0.275,3.05 -0.629,6.088 -2.521,8.496c-2.25,2.171 -4.737,4.075 -7.416,5.679c-1.338,0.813 -2.471,1.925 -3.309,3.246c-0.837,1.321 -1.358,2.821 -1.525,4.375c0.009,5.396 -0.433,10.413 1.592,15.417c3.729,9.225 8.033,18.208 12.892,26.891c1.274,2.284 2.925,4.784 5.508,5.175c-3.267,-7.95 -6.204,-16.02 -8.821,-24.216c0.846,-0.121 1.704,-0.046 2.513,0.216c0.808,0.263 1.545,0.709 2.158,1.305c0.596,1.279 0.904,2.67 0.904,4.079c0.325,1.346 0.871,2.625 1.613,3.791l15.591,27.771c1.038,2.454 2.892,4.471 5.246,5.709c1.654,0.308 3.283,0.758 4.862,1.341c1.138,0.671 1.905,1.867 3.067,2.5c3.288,1.792 7.854,-1.646 10.925,0.496c0.788,0.721 1.534,1.483 2.242,2.283c2.837,2.455 7.487,0.813 10.762,2.642c1.955,1.442 3.455,3.413 4.325,5.683c2.817,5.355 7.38,10.605 13.417,11.034c1.9,-0.079 3.804,-0.013 5.692,0.196c1.854,0.42 3.679,2.037 3.383,3.916c-0.512,3.221 1.079,6.746 0.65,9.979c-0.775,5.888 -9.129,8.475 -9.846,14.371c0.004,1.296 -0.071,2.596 -0.216,3.888c-0.38,1.546 -1.542,2.808 -1.955,4.346c-0.783,2.916 1.309,5.82 3.604,7.783c2.296,1.962 5.034,3.654 6.288,6.4c1.325,2.904 0.675,6.287 1.108,9.45c0.942,6.908 6.904,12.025 13.042,15.325c1.967,0.825 3.708,2.1 5.092,3.725c1.579,2.275 1.42,5.279 1.95,8c1.291,6.662 6.9,12.15 7.058,18.937c0.112,4.821 -2.567,9.196 -4.167,13.746c-1.504,4.359 -2.046,8.992 -1.596,13.584c0.455,4.587 1.888,9.025 4.213,13.008c1.325,1.942 2.492,3.987 3.479,6.121c1.513,3.912 1.021,8.362 2.417,12.321c1.841,5.229 6.908,9.55 6.425,15.075c2.296,4.775 7.375,7.12 12.483,8.545l9.154,2.546c1.713,0.621 3.554,0.838 5.367,0.625c0.9,-0.129 1.733,-0.562 2.358,-1.225c0.625,-0.662 1.009,-1.516 1.084,-2.425c-4.563,-0.708 -8.925,-2.35 -12.821,-4.825c-3.7,-2.733 -6.234,-7.604 -4.829,-11.987c0.65,-2.029 2.033,-4.375 0.716,-6.054c-0.754,-0.963 -2.129,-1.213 -2.983,-2.088c-0.542,-0.783 -0.825,-1.721 -0.813,-2.671c0.017,-0.954 0.33,-1.879 0.896,-2.646c1.167,-1.508 2.084,-3.191 2.717,-4.987c0.196,-1.046 0.067,-2.125 -0.371,-3.092c-0.437,-0.966 -1.158,-1.779 -2.066,-2.325c1.695,-0.641 3.237,-1.633 4.529,-2.908c0.629,-0.65 1.046,-1.479 1.191,-2.375c0.142,-0.896 0.009,-1.813 -0.387,-2.629c2.783,0.354 6.066,0.529 7.896,-1.6c0.629,-0.929 1.029,-1.996 1.162,-3.109c0.138,-1.116 0.004,-2.245 -0.383,-3.3c-0.788,-2.095 -1.321,-4.279 -1.579,-6.504c6.42,0.304 12.854,0.084 19.237,-0.654c-0.921,-3.108 -3.021,-5.733 -5.85,-7.325c2.892,-0.487 5.529,-3.95 6.442,-6.733c0.775,-2.846 0.816,-5.838 0.116,-8.7c-0.216,-0.742 -0.25,-1.525 -0.087,-2.279c0.462,-0.996 1.279,-1.784 2.287,-2.213l14.355,-8.242c0.854,-0.429 1.629,-1.004 2.291,-1.695c0.646,-0.967 1.029,-2.084 1.117,-3.242c0.092,-1.158 -0.117,-2.321 -0.604,-3.379c-0.992,-2.096 -1.763,-4.288 -2.3,-6.546c-0.888,-6.879 6.479,-11.813 8.962,-18.292c0.85,-2.591 1.309,-5.291 1.367,-8.016c0.2,-2.917 0.217,-6.309 -2.025,-8.188c-2.146,-1.8 -5.5,-1.4 -7.746,-3.075c-2.062,-1.537 -2.771,-4.521 -5.021,-5.762c-2.045,-1.125 -4.608,-0.409 -6.879,-0.938c-4,-0.933 -6.521,-5.546 -10.608,-5.975c-2.304,-0.242 -4.913,0.888 -6.804,-0.454c-1.667,-1.183 -1.734,-3.563 -2.05,-5.579c-0.554,-3.138 -2.059,-6.029 -4.309,-8.284c-2.245,-2.254 -5.133,-3.766 -8.266,-4.333c-2.38,-0.383 -4.967,-0.237 -6.988,-1.542c-2.05,-1.325 -2.987,-3.8 -4.596,-5.633c-2.595,-2.954 -6.679,-4 -10.504,-4.9l-15.558,-3.658c-2.763,-0.65 -6.321,-0.992 -7.804,1.425c-0.442,0.921 -0.75,1.9 -0.925,2.904c-0.554,1.817 -1.671,3.412 -3.192,4.558c-1.521,1.142 -3.362,1.775 -5.263,1.804c-1.304,-2.22 -3.416,-3.858 -5.9,-4.562c-1.612,-0.271 -3.208,-0.65 -4.77,-1.133c-0.817,-0.4 -1.546,-0.963 -2.142,-1.655c-0.596,-0.691 -1.042,-1.495 -1.313,-2.366c-0.274,-0.871 -0.366,-1.788 -0.27,-2.696c0.096,-0.904 0.37,-1.783 0.816,-2.579c0.9,-1.596 1.246,-3.446 0.988,-5.259c-0.259,-1.812 -1.104,-3.491 -2.413,-4.775c-1.408,-1.091 -3.02,-1.891 -4.741,-2.354c-1.717,-0.466 -3.513,-0.587 -5.279,-0.358c-0.93,-2.029 0.624,-4.317 2.3,-5.788c1.67,-1.475 3.704,-2.925 4.07,-5.125c0.575,-3.458 -3.841,-6.087 -7.195,-5.054c-3.355,1.029 -5.496,4.288 -6.909,7.496c-0.679,1.896 -1.616,3.692 -2.783,5.338c-0.596,0.812 -1.404,1.445 -2.342,1.829c-0.933,0.383 -1.954,0.5 -2.95,0.337c-2.762,-0.708 -3.829,-3.987 -4.437,-6.771c-0.984,-3.7 -1.479,-7.512 -1.475,-11.341c0.025,-3.867 1.558,-7.571 4.275,-10.325c4.591,-4.213 11.633,-3.8 17.829,-3.129c-0.667,-0.88 -0.988,-1.975 -0.904,-3.075c0.087,-1.105 0.571,-2.134 1.366,-2.905c0.825,-0.733 1.821,-1.254 2.892,-1.516c1.075,-0.267 2.196,-0.263 3.271,0.004c1.866,0.387 3.546,1.396 4.775,2.854c1.758,2.146 2.258,5.042 3.587,7.479c1.334,2.438 4.325,4.513 6.771,3.209c2.117,-1.13 2.454,-4.063 1.925,-6.4c-0.829,-2.25 -1.321,-4.613 -1.454,-7.005c0.367,-4.558 5.092,-7.304 9.262,-9.183c4.176,-1.875 8.95,-4.404 9.609,-8.929c0.025,-0.888 0.192,-1.763 0.496,-2.596c0.462,-0.733 1.108,-1.337 1.87,-1.754c12.171,-8.046 24.551,-16.188 38.463,-20.583c0.725,-0.23 0.808,0.025 1.546,-0.155c1.033,-0.595 0.35,-2.25 -0.642,-2.912c-0.987,-0.667 -2.312,-1.175 -2.562,-2.342c-0.184,-0.858 0.32,-1.696 0.45,-2.562c0.033,-0.525 -0.059,-1.05 -0.275,-1.525c-0.217,-0.479 -0.546,-0.896 -0.963,-1.217c-0.417,-0.321 -0.904,-0.533 -1.421,-0.621c-0.516,-0.087 -1.045,-0.05 -1.545,0.117c-1.117,-1.479 1.095,-3.2 2.883,-3.692c5.371,-1.479 10.883,-2.379 16.446,-2.687c0.641,-0.104 1.296,0.008 1.871,0.316c0.408,0.396 0.649,0.93 0.679,1.5c0.029,0.567 -0.163,1.121 -0.53,1.555c-0.762,0.841 -1.608,1.604 -2.516,2.287c-0.9,0.875 -1.542,1.983 -1.859,3.204c-0.312,1.217 -0.287,2.5 0.08,3.704c2.9,1.475 6.058,2.996 9.275,2.475c3.212,-0.52 6.066,-4.133 4.558,-7.016c-1.408,-2.688 -5.637,-3.292 -6.363,-6.238c-0.854,-3.45 4.03,-6.512 2.93,-9.891c-0.484,-1.48 -1.959,-2.35 -3.088,-3.417c-1.337,-1.308 -2.246,-2.992 -2.608,-4.825c-0.363,-1.838 -0.159,-3.738 0.579,-5.458c-1.842,0.325 -3.737,0.204 -5.521,-0.355c-1.787,-0.558 -3.412,-1.537 -4.742,-2.854c-2.454,-2.479 -4.412,-6.383 -7.895,-6.275c-3.2,0.104 -5.955,3.834 -8.946,2.696c-0.734,-0.279 -1.509,-0.85 -2.221,-0.517c-0.238,0.15 -0.433,0.355 -0.575,0.592c-0.146,0.242 -0.233,0.508 -0.258,0.788c-0.759,3.633 0.55,7.77 -1.43,10.908c-2.158,3.417 -7.141,3.892 -9.754,6.971c-1.416,1.675 -1.966,3.929 -3.271,5.691c-1.304,1.763 -4.07,2.884 -5.633,1.346c0.767,-1.579 0.979,-3.375 0.596,-5.087c-0.383,-1.717 -1.338,-3.25 -2.708,-4.354c-1.45,-0.946 -3.017,-1.709 -4.659,-2.267c-1.833,-0.775 -3.579,-1.75 -5.204,-2.9c-0.817,-0.492 -1.479,-1.2 -1.912,-2.046c-0.346,-1.058 -0.3,-2.204 0.129,-3.233c0.796,-2.275 2.191,-4.288 4.05,-5.825c1.854,-1.538 4.091,-2.538 6.475,-2.896c2.083,-0.283 4.504,-0.183 5.883,-1.771c0.729,-0.837 1.113,-2.108 2.171,-2.45c0.679,-0.137 1.379,-0.05 2.004,0.246l7.775,2.737c0.867,0.392 1.821,0.55 2.771,0.459c0.467,-0.063 0.896,-0.3 1.196,-0.667c0.304,-0.367 0.454,-0.833 0.425,-1.308c-0.246,-1.288 -2.233,-1.909 -2.054,-3.213c0.1,-0.421 0.329,-0.8 0.65,-1.091c2.808,-2.988 6.237,-5.317 10.05,-6.821c3.808,-1.504 7.908,-2.146 11.996,-1.884c0.979,1.613 -0.571,3.521 -1.863,4.896c-1.292,1.375 -2.329,3.834 -0.767,4.892c0.642,0.325 1.35,0.487 2.071,0.467c1.913,0.258 3.775,0.82 5.509,1.67c2.687,1.167 5.32,2.446 7.904,3.838c-0.371,-1.688 -0.304,-3.442 0.2,-5.092c0.279,-0.812 0.854,-1.491 1.612,-1.9c0.754,-0.412 1.638,-0.525 2.471,-0.321c1.546,0.596 2.338,2.642 3.983,2.83c2.196,0.25 3.059,-2.992 2.142,-5c-0.917,-2.013 -2.729,-3.696 -2.883,-5.9c-0.1,-1.484 0.466,-3.33 -0.721,-4.23c-0.425,-0.27 -0.904,-0.437 -1.404,-0.491l-29.659,-5.459c-1.758,-0.32 -4.304,-0.075 -4.383,1.717c-0.042,0.996 0.85,1.983 0.454,2.904c-0.421,0.979 -1.804,0.888 -2.816,1.234c-0.755,0.35 -1.375,0.929 -1.771,1.658c-0.396,0.729 -0.546,1.567 -0.429,2.387c0.275,1.638 0.912,3.196 1.858,4.559c-1.929,-0.809 -4.85,-0.954 -6.779,-1.763Z" style="fill:#f2f2f2;fill-rule:nonzero;"/><path d="M1388.88,1182.5c-1.871,-0.62 -3.887,-0.65 -5.771,-0.083c-1.887,0.567 -3.558,1.696 -4.779,3.242c-0.283,0.283 -0.483,0.646 -0.571,1.041c-0.087,0.392 -0.058,0.805 0.084,1.184c0.583,1 2.079,0.604 3.179,0.246c1.617,-0.575 3.379,-0.621 5.025,-0.117c1.033,0.354 1.958,0.979 2.996,1.321c0.504,0.212 1.058,0.283 1.6,0.204c0.541,-0.079 1.054,-0.304 1.479,-0.654c0.612,-0.825 0.883,-1.854 0.758,-2.875c0.05,-0.338 0.021,-0.688 -0.079,-1.017c-0.104,-0.325 -0.279,-0.629 -0.513,-0.883c-0.412,-0.238 -0.883,-0.375 -1.362,-0.4c-1.075,-0.2 -2.046,-0.767 -2.746,-1.604" style="fill:#f2f2f2;fill-rule:nonzero;"/><path d="M1399.57,1179.52c-0.417,-0.021 -0.833,0.063 -1.208,0.25c-0.38,0.184 -0.7,0.463 -0.938,0.809c-0.237,0.345 -0.379,0.745 -0.417,1.162c-0.037,0.417 0.034,0.838 0.205,1.221c1.283,0.35 2.625,0.437 3.945,0.258c0.659,-0.104 1.271,-0.396 1.763,-0.846c0.492,-0.454 0.837,-1.037 1,-1.683c-1.554,0.283 -3.158,-0.025 -4.5,-0.858" style="fill:#f2f2f2;fill-rule:nonzero;"/><path d="M1435.45,1174.55c-3.496,0.746 -6.896,1.9 -10.121,3.438c1.521,0.587 2.813,1.646 3.688,3.021c0.875,1.375 1.283,2.996 1.171,4.621c-0.138,0.625 -0.121,1.27 0.045,1.887c0.371,0.9 1.446,1.242 2.396,1.471c1.7,0.517 3.479,0.746 5.254,0.671c0.892,-0.046 1.755,-0.313 2.513,-0.779c0.762,-0.463 1.392,-1.109 1.837,-1.88c0.259,-0.729 0.563,-1.445 0.909,-2.137c2.271,-3.458 9.012,0.721 11.45,-2.621c0.858,-1.175 0.783,-2.946 1.9,-3.879c0.579,-0.408 1.25,-0.663 1.954,-0.746c4.904,-0.975 9.854,-1.679 14.833,-2.112c2.359,-0.205 5.434,-1.055 5.454,-3.421c-8.887,-1.746 -18.1,-0.504 -26.208,3.525c-2.925,1.462 -6.787,4.541 -9.604,2.6c-1.05,-0.725 -1,-2.679 -2.45,-3.496c-1.604,-0.638 -3.379,-0.696 -5.021,-0.163Z" style="fill:#f2f2f2;fill-rule:nonzero;"/><path d="M1464.51,1179.98l4.17,0.804c-0.766,-0.038 -1.533,0.096 -2.245,0.379c-0.713,0.288 -1.359,0.721 -1.892,1.275c-0.533,0.554 -0.942,1.217 -1.196,1.942c-0.258,0.725 -0.354,1.496 -0.292,2.258c3.909,1.308 8.167,0.038 12.284,0.208c4.112,0.175 8.9,3.113 8.2,7.171c-0.213,1.229 -0.925,2.454 -0.555,3.646c0.396,0.771 0.871,1.508 1.409,2.192c0.333,0.846 0.425,1.771 0.262,2.666c-0.162,0.9 -0.571,1.734 -1.179,2.413c-1.091,1.454 -2.562,2.612 -3.521,4.158c-2.383,3.846 -1.029,8.813 0.392,13.109c0.412,1.625 1.167,3.137 2.221,4.437c2.104,2.238 5.533,2.433 8.604,2.475c2.237,0.033 4.796,-0.075 6.208,-1.808c1.846,-2.259 0.559,-5.788 1.771,-8.442c1.104,-2.408 3.917,-3.442 6.463,-4.175c4.716,-1.154 9.341,-2.662 13.833,-4.512c5.475,-2.521 10.596,-6.446 16.617,-6.771c1.687,0.071 3.383,-0.05 5.045,-0.354c0.83,-0.171 1.58,-0.617 2.13,-1.259c0.554,-0.641 0.875,-1.45 0.92,-2.296c-0.104,-1.441 -1.325,-2.5 -2.279,-3.587c-0.95,-1.088 -1.7,-2.758 -0.825,-3.908l15.779,-2.946c-1.116,-3.05 -1.987,-7.063 0.584,-9.046c0.925,-0.717 2.166,-1.004 2.958,-1.867c0.567,-0.821 0.796,-1.833 0.629,-2.816c-0.166,-0.984 -0.708,-1.867 -1.512,-2.455c-1.671,-1.116 -3.638,-1.712 -5.646,-1.712c-6.933,-0.417 -13.888,-0.354 -20.813,0.183l-40.654,2.229c-2.821,-0.112 -5.641,0.171 -8.383,0.855c-1.933,1.083 -3.954,2 -6.046,2.741c-4.471,0.938 -9.396,0.304 -13.442,2.813Z" style="fill:#f2f2f2;fill-rule:nonzero;"/><path d="M1539.25,1212.95c-0.429,-0.067 -0.863,0.029 -1.217,0.275c-0.233,0.258 -0.375,0.587 -0.396,0.937c-0.266,1.533 0.055,3.117 0.9,4.425c0.43,0.642 1.025,1.154 1.725,1.492c0.696,0.333 1.471,0.475 2.242,0.408c1.879,-0.237 3.263,-1.842 4.988,-2.625c2.662,-1.2 13.966,-3.079 6.145,-7.304c-2.691,-1.454 -4.433,-0.171 -6.558,0.792c-2.417,1.233 -5.125,1.787 -7.829,1.6Z" style="fill:#f2f2f2;fill-rule:nonzero;"/><path d="M1607.73,1177.6c-0.912,0.375 -1.675,1.038 -2.171,1.892c-0.229,0.433 -0.283,0.938 -0.15,1.408c0.134,0.471 0.446,0.871 0.867,1.121c0.342,0.125 0.7,0.179 1.062,0.171l3.713,0.108c1.579,0.046 3.546,0.384 3.971,1.905c0.316,1.129 -0.388,2.579 0.462,3.383c0.363,0.283 0.8,0.454 1.263,0.492c1.221,0.316 2.5,0.358 3.737,0.12c2.704,-0.725 1.284,-2.37 2.134,-3.841c1.304,-2.242 1.075,-0.884 3.37,-2.171c1.692,-0.95 3.884,-2.675 2.467,-5.096c-2.458,-4.217 -17.096,-1.3 -20.725,0.508Z" style="fill:#f2f2f2;fill-rule:nonzero;"/><path d="M1681,1175.48l-2.154,0.287c-4.884,0.509 -9.709,1.434 -14.434,2.763c2.03,0.8 4.155,1.321 6.321,1.55c1.192,0.058 2.379,0.225 3.542,0.504c2.067,0.612 4.15,2.204 6.146,1.387c1.241,-0.504 1.646,-1.791 2.671,-2.475c0.708,-0.475 3.395,-1.237 3.695,-1.712c2.43,-3.85 -3.92,-2.554 -5.787,-2.304Z" style="fill:#f2f2f2;fill-rule:nonzero;"/><path d="M1690.46,1185.28c-2.88,1.608 -5.555,3.566 -7.959,5.825c-0.558,0.408 -1.025,0.937 -1.362,1.545c-0.338,0.609 -0.538,1.284 -0.592,1.975c0.121,1.846 2.088,2.913 3.788,3.634l6.891,2.916c0.838,-1.179 0.071,-2.804 -0.791,-3.962c-0.867,-1.158 -1.892,-2.496 -1.513,-3.892c0.438,-1.587 2.375,-2.129 4,-2.404c2.65,-0.446 9.796,-0.408 8.938,-4.679c-1.013,-5.029 -8.742,-2.446 -11.4,-0.958Z" style="fill:#f2f2f2;fill-rule:nonzero;"/><path d="M1689.08,1469.9c-0.379,0.934 -0.537,1.938 -0.467,2.946c0.071,1.004 0.375,1.979 0.884,2.846c0.696,0.892 1.637,1.563 2.704,1.929c1.071,0.371 2.225,0.425 3.321,0.154c2.196,-0.583 4.154,-1.841 5.596,-3.595c1.32,-1.471 2.404,-3.138 3.22,-4.938c1.134,-2.804 1.934,-5.733 2.384,-8.725l2.141,-11.233c0.475,-2.509 0.459,-10.209 -4.158,-7.7c-1.258,0.687 -4.179,6.096 -5.5,7.629c-2.379,2.762 -2.696,5.446 -3.95,8.796c-1.567,4.191 -4.725,7.687 -6.175,11.891Z" style="fill:#f2f2f2;fill-rule:nonzero;"/><path d="M1932.79,1527.38c-1.513,-0.592 -2.975,-1.288 -4.388,-2.088c-1.412,3.883 -2.162,7.979 -2.221,12.113l10.334,-5.846c1.554,-0.879 3.312,-2.1 3.279,-3.888c0.017,-0.221 -0.029,-0.441 -0.129,-0.637c-0.1,-0.196 -0.255,-0.363 -0.442,-0.479c-0.229,-0.092 -0.479,-0.121 -0.725,-0.088c-1.513,0.275 -2.983,0.75 -4.371,1.408c-0.7,0.325 -1.458,0.496 -2.229,0.5c-0.771,0.005 -1.533,-0.158 -2.233,-0.479" style="fill:#f2f2f2;fill-rule:nonzero;"/><path d="M1987.29,1530.85c-1.134,0.309 -2.242,0.705 -3.313,1.188c-2.371,1.208 -3.983,3.496 -6.116,5.087c-2.125,1.413 -4.459,2.48 -6.913,3.167c-0.146,0.179 -0.254,0.388 -0.317,0.617c-0.062,0.225 -0.075,0.458 -0.037,0.687c0.037,0.234 0.121,0.454 0.25,0.65c0.129,0.196 0.296,0.359 0.492,0.488c0.829,0.471 1.779,0.683 2.729,0.612c2.504,0.271 5.033,-0.121 7.341,-1.133c1.238,-0.8 2.396,-1.721 3.459,-2.742c2.662,-2.029 5.587,-3.687 8.7,-4.921c1.112,-0.42 2.137,-1.033 3.033,-1.812c1.917,-1.888 2.054,-4.804 -0.712,-5.446c-2.234,-0.521 -6.467,2.871 -8.596,3.558Z" style="fill:#f2f2f2;fill-rule:nonzero;"/><path d="M2011.38,1515.12c0.125,-1.3 -0.05,-2.612 -0.504,-3.833c-0.458,-1.225 -1.188,-2.329 -2.133,-3.229c0.22,2.608 -0.325,5.221 -1.571,7.521c-1.042,1.533 -2.675,2.566 -3.817,4.029c-0.642,0.671 -1.025,1.546 -1.079,2.471c-0.058,0.925 0.216,1.837 0.771,2.583c0.854,0.65 1.896,1.008 2.971,1.025c2.666,0.312 5.754,0.487 7.625,-1.438c1.02,-1.054 1.516,-2.608 2.762,-3.383c0.463,-0.196 0.875,-0.492 1.213,-0.867c0.512,-0.816 -0.305,-1.895 -1.225,-2.187c-0.917,-0.296 -1.93,-0.158 -2.855,-0.438c-0.925,-0.279 -1.77,-1.316 -1.3,-2.158" style="fill:#f2f2f2;fill-rule:nonzero;"/><path d="M1968.58,1419.77c-1.4,0.338 -2.85,0.425 -4.279,0.25c-2.304,-0.733 -4.404,-2 -6.138,-3.691c-4.554,-3.467 -10.091,-5.405 -15.816,-5.525c-5.209,-0.1 -10.463,1.312 -15.575,0.329c0.246,0.912 0.704,1.754 1.329,2.462c0.629,0.709 1.412,1.263 2.292,1.617c1.695,0.829 3.566,1.246 5.275,2.058c2.729,1.313 4.895,3.563 6.1,6.342c0.425,1.329 1.004,2.604 1.725,3.796c0.983,1.037 2.208,1.812 3.558,2.266c1.354,0.455 2.8,0.571 4.208,0.338c3.709,-0.246 7.584,-1.308 11.029,0.071c2.492,1.375 4.763,3.112 6.734,5.162c2.204,1.796 5.308,3.129 7.837,1.834c-2.629,-0.85 -4.916,-2.521 -6.529,-4.763c-1.612,-2.242 -2.467,-4.942 -2.437,-7.704c2.483,0.229 9.629,0.142 9.245,-4.075c-0.325,-3.575 -6.429,-1.154 -8.558,-0.767Z" style="fill:#f2f2f2;fill-rule:nonzero;"/><path d="M1936.11,1448.84c0.442,-2.417 2.855,-4.55 2.1,-6.887c-0.354,-0.775 -0.937,-1.421 -1.666,-1.859c-0.729,-0.441 -1.575,-0.65 -2.425,-0.6c-1.7,-0.037 -3.367,0.467 -5.067,0.513c-1.104,-0.059 -2.212,-0.042 -3.317,0.05c-3.37,0.554 -5.445,4.087 -8.625,5.341c-2.012,0.505 -4.05,0.888 -6.108,1.146c-4.562,1.2 -7.446,5.509 -10.633,8.984c-5.154,5.587 -11.863,9.5 -19.263,11.229c-2.65,0.312 -5.196,1.229 -7.441,2.671c-2.73,2.229 -3.4,6.05 -4.009,9.52c-1.679,9.588 -4.241,19 -7.658,28.113l10.829,1.383c2.042,0.409 4.146,0.375 6.175,-0.091c1.442,-0.542 2.808,-1.271 4.063,-2.163c4.82,-2.992 10.22,-4.942 15.841,-5.717c2.829,-0.529 5.746,-0.325 8.471,0.592c1.354,0.479 2.55,1.321 3.463,2.429c0.908,1.109 1.5,2.45 1.704,3.871c1.15,-0.358 2.379,-0.4 3.55,-0.112c1.171,0.283 2.241,0.879 3.1,1.729c1.696,1.725 2.804,3.941 3.175,6.333c0.283,1.483 0.571,3.258 1.946,3.879c1.12,0.509 2.408,-0.037 3.633,-0.137c4.162,-0.334 7.617,4.521 11.708,3.683c4.392,-0.896 5.467,-7.467 9.75,-8.783c2.459,-0.754 5.909,0.162 7.084,-2.125c1.037,-2.017 -1.034,-4.342 -0.817,-6.6c0.262,-2.779 3.542,-3.959 6.067,-5.142c4.283,-2.212 7.562,-5.975 9.166,-10.525c1.604,-4.546 1.409,-9.533 -0.537,-13.942c-2.504,-5.125 -7.425,-9.158 -8.334,-14.787c-0.7,-4.333 1.005,-9.383 -1.754,-12.792c-1.408,-1.733 -3.783,-2.691 -4.621,-4.762c-0.325,-1.363 -0.525,-2.754 -0.6,-4.154c-0.283,-1.38 -1.483,-2.817 -2.841,-2.463c-3.946,1.038 -5.204,13.221 -7.317,16.183c-0.646,0.959 -1.617,1.659 -2.729,1.971c-1.117,0.317 -2.308,0.225 -3.363,-0.258c-1.054,-0.479 -1.9,-1.317 -2.395,-2.367c-0.496,-1.046 -0.6,-2.237 -0.305,-3.354Z" style="fill:#f2f2f2;fill-rule:nonzero;"/><path d="M1863.19,1424.37c-1.309,-0.525 -2.754,-0.6 -4.113,-0.212c-1.291,0.542 -2.046,2.437 -1.008,3.379c8.104,-0.554 16.237,-0.396 24.312,0.471c9.267,1.267 18.434,4.412 27.742,3.487c-5.317,-1.57 -10.721,-2.82 -16.183,-3.754l-9.109,-1.741c-2.445,-0.513 -4.916,-0.892 -7.4,-1.142c-5.195,-0.429 -9.129,0.942 -14.241,-0.488Z" style="fill:#f2f2f2;fill-rule:nonzero;"/><path d="M1871.31,1396.13c-0.675,-0.059 -1.509,-0.105 -1.855,0.475c-0.333,0.55 0.046,1.283 -0.133,1.904c-0.242,0.846 -1.354,1.062 -2.229,0.946c-0.846,-0.259 -1.75,-0.25 -2.592,0.029c-0.396,0.271 -0.687,0.658 -0.841,1.108c-0.155,0.45 -0.159,0.938 -0.009,1.392c0.317,0.896 0.829,1.712 1.5,2.391c1.146,1.442 2.45,2.75 3.888,3.9c2.787,2.059 6.566,3.05 8.321,6.038c0.25,0.579 0.629,1.087 1.112,1.492c0.463,0.187 0.963,0.258 1.458,0.208c0.496,-0.05 0.975,-0.221 1.392,-0.492l3.179,-1.454c0.575,-0.208 1.084,-0.554 1.488,-1.012c0.275,-0.546 0.387,-1.163 0.329,-1.771c-0.058,-0.613 -0.288,-1.192 -0.658,-1.679c-0.763,-0.967 -1.2,-2.15 -1.259,-3.38c0.234,-2.17 3.025,-3 4.171,-4.858c1.158,-1.875 0.404,-4.287 0.538,-6.483c0.158,-2.571 1.77,-5.913 -0.825,-7.834c-2.209,-1.629 -4.321,-0.12 -5.905,1.68c-3.345,3.8 -4.925,7.912 -11.07,7.4Z" style="fill:#f2f2f2;fill-rule:nonzero;"/><path d="M1890.62,1357.73c1.087,2.079 3.35,3.321 4.533,5.346c1.284,2.195 1.138,5.029 2.529,7.158c1.43,2.183 4.305,3.342 5.109,5.825c0.871,2.708 -1.113,6 0.471,8.371c0.295,0.387 0.666,0.708 1.091,0.941c0.425,0.238 0.896,0.384 1.384,0.425c0.483,0.046 0.97,-0.008 1.433,-0.162c0.462,-0.154 0.887,-0.404 1.246,-0.733c0.666,-0.725 1.025,-1.684 0.996,-2.667c-0.03,-0.988 -0.442,-1.921 -1.15,-2.608c-0.938,-0.855 -2.284,-1.221 -3.067,-2.221c-0.404,-0.575 -0.675,-1.234 -0.792,-1.929c-0.425,-2.009 -0.358,-4.088 0.2,-6.063c0.209,-0.5 0.263,-1.054 0.15,-1.587c-0.35,-1.021 -1.737,-1.096 -2.708,-1.571c-2.208,-1.075 -2.154,-4.192 -1.771,-6.621c-0.258,1.617 -6.012,-1.133 -6.617,-2.05c-1.195,-1.817 -0.545,-5.325 -0.783,-7.333c-1.254,0.725 -2.188,1.904 -2.608,3.295c-0.417,1.388 -0.292,2.884 0.354,4.184Z" style="fill:#f2f2f2;fill-rule:nonzero;"/><path d="M1832.62,1389.72c-1.063,-1.191 -2.663,-2.433 -4.088,-1.716c-0.512,0.333 -0.887,0.837 -1.062,1.421c-0.175,0.583 -0.142,1.208 0.1,1.77c0.521,1.105 1.321,2.059 2.321,2.763c3.091,2.287 6.016,4.796 8.754,7.504c4.637,5.092 7.092,11.967 12.133,16.658c1.013,1.088 2.354,1.813 3.817,2.067c0.733,0.096 1.475,-0.079 2.083,-0.5c0.609,-0.421 1.038,-1.05 1.204,-1.771c-0.016,-0.608 -0.158,-1.204 -0.42,-1.754c-0.263,-0.546 -0.642,-1.033 -1.105,-1.425c-1.958,-2.129 -4.1,-4.092 -5.95,-6.317c-0.854,-0.854 -1.391,-1.975 -1.52,-3.175c-0.009,-1.2 1.083,-2.454 2.245,-2.158c-1.412,-0.358 -2.458,-2.712 -4.533,-3.154c-1.733,-0.371 -2.15,0.704 -4.212,-0.179c-3.93,-1.688 -7.013,-6.954 -9.767,-10.034Z" style="fill:#f2f2f2;fill-rule:nonzero;"/><path d="M1924.99,1273.91c-1.129,-0.338 -2.238,-0.734 -3.321,-1.188c-2.921,-0.875 -6.783,1.267 -6.392,4.292c0.259,2.008 2.125,3.362 3.159,5.104c0.629,1.363 0.983,2.842 1.037,4.342c0.054,1.504 -0.187,3 -0.721,4.408c-0.196,0.896 -0.571,1.742 -1.104,2.492c-0.742,0.787 -1.629,1.429 -2.612,1.879c-3.942,2.212 -7.421,5.162 -10.238,8.696c-0.308,0.325 -0.521,0.729 -0.617,1.166c-0.141,1.021 0.884,1.763 1.467,2.613c1.288,1.892 0.354,4.437 0.483,6.721c-0.02,0.321 0.042,0.646 0.184,0.937c0.141,0.292 0.354,0.542 0.616,0.729c0.775,0.396 1.696,-0.275 2.117,-1.037c1.396,-2.529 0.346,-6.592 2.967,-7.813c0.496,-0.229 1.096,-0.329 1.425,-0.762c0.525,-0.692 0.021,-1.713 0.283,-2.538c0.4,-1.241 2.096,-1.295 3.396,-1.241c2.242,0.091 4.483,-0.204 6.621,-0.884c0.837,-0.195 1.6,-0.637 2.191,-1.266c0.325,-0.538 0.542,-1.129 0.638,-1.75c0.096,-0.621 0.071,-1.25 -0.079,-1.859c-0.784,-6.195 -2.746,-12.183 -5.784,-17.641c2.275,0.546 4.663,0.316 6.792,-0.65c1.113,-0.671 2.446,-2.679 1.896,-4.05c-0.875,-2.159 -2.45,-0.342 -4.404,-0.7Z" style="fill:#f2f2f2;fill-rule:nonzero;"/><path d="M1629.93,1307.98c0.4,1.454 0.421,2.987 0.063,4.454c-0.204,0.725 -0.671,1.346 -1.304,1.75c-0.638,0.4 -1.4,0.55 -2.142,0.425c-1.117,-0.338 -1.758,-1.459 -2.554,-2.317c-4.404,-4.758 -14.35,-2 -17.071,-7.887c-1.113,-2.405 -0.358,-5.28 -1.117,-7.817c-0.475,-1.467 -1.429,-2.729 -2.704,-3.596c-1.275,-0.867 -2.8,-1.283 -4.337,-1.187c-1.405,0.2 -2.771,0.608 -4.059,1.208c-8.608,3.446 -17.641,5.708 -26.862,6.717c-1.75,0.108 -3.484,0.425 -5.159,0.941c-3.695,1.7 -6.625,4.717 -8.212,8.459c-1.558,3.712 -3.454,7.275 -5.667,10.637c-2.821,3.158 -6.058,5.921 -9.616,8.217c-1.305,0.841 -2.392,1.979 -3.171,3.325c-0.609,1.571 -0.829,3.266 -0.638,4.937l0.692,20.367c-0.096,2.629 0.375,5.246 1.375,7.679c1.462,2.929 4.358,4.846 6.362,7.433c2.05,2.655 3.117,5.938 3.021,9.292c-0.041,1.35 -0.175,2.946 0.875,3.792c0.638,0.412 1.384,0.629 2.146,0.616l27.554,2.255c4.846,0.395 10.217,1.05 13.384,4.741c1.491,1.742 2.691,4.25 4.979,4.438c0.983,-0.059 1.958,-0.192 2.916,-0.4c1.246,0.046 2.455,0.416 3.513,1.075c1.054,0.658 1.921,1.583 2.512,2.675c2.08,3.154 3.021,6.925 2.675,10.683c-0.225,2.363 -0.958,4.658 -1.116,7.025c-0.6,9.004 7.033,16.825 7.183,25.85c0.088,5.308 -2.433,10.267 -4.892,14.971c3.967,6.008 0.721,14.004 2.3,21.025c1.496,6.662 7.05,11.879 8.434,18.562c0.633,3.063 0.671,6.83 3.371,8.405c1.183,0.579 2.495,0.841 3.812,0.762c7.933,0.096 15.779,-1.692 22.892,-5.208c3.337,-1.659 6.796,-4.129 7.379,-7.809c0.471,-2.966 -1.038,-6.287 0.496,-8.87c1.804,-3.05 6.429,-2.809 9.083,-5.15c4.313,-3.8 0.95,-11.046 2.696,-16.521c1.571,-4.917 6.971,-7.534 9.65,-11.946c1.054,-1.9 1.808,-3.95 2.242,-6.079c1.229,-5.084 1.991,-10.271 2.283,-15.496c0.071,-3.175 0.304,-6.342 0.7,-9.492c2.887,-17.937 20.621,-29.946 26.375,-47.175c0.55,-1.646 0.808,-3.837 -0.654,-4.766c-0.867,-0.417 -1.854,-0.521 -2.788,-0.292l-12.704,1.6c-1.558,0.342 -3.183,0.246 -4.696,-0.271c-0.741,-0.292 -1.337,-0.858 -1.658,-1.587c-0.321,-0.725 -0.346,-1.55 -0.063,-2.292c2.159,-3.908 -2.279,-8.846 -4.25,-12.85c-5.308,-10.783 -11.633,-21.033 -18.883,-30.621c-0.462,-0.492 -0.754,-1.125 -0.829,-1.796l3.604,0.121c-1.217,-4.367 -3.225,-9.146 -7.467,-10.742c-2.47,-0.67 -5.054,-0.825 -7.587,-0.45c-7.496,0.15 -14.992,-0.458 -22.367,-1.82Z" style="fill:#f2f2f2;fill-rule:nonzero;"/><path d="M1652.3,1209.59c1.688,2.246 4.096,3.846 6.817,4.533c4.887,0.625 8.4,-4.425 10.633,-8.812c0.084,1.117 0.6,2.158 1.442,2.904c0.837,0.742 1.933,1.129 3.054,1.079c1.208,-0.204 2.358,-0.654 3.383,-1.321c9.675,-5.291 20.517,-8.091 31.55,-8.154c-0.108,-0.837 0.1,-1.683 0.58,-2.375c0.483,-0.691 1.2,-1.179 2.02,-1.371c2.242,-0.445 4.263,1.492 5.346,3.509c0.8,2.141 1.979,4.125 3.475,5.854c1.717,1.508 5.046,1.442 5.725,-0.742c0.65,-2.096 -1.533,-3.883 -3.346,-5.116c-1.812,-1.238 -3.725,-3.525 -2.504,-5.346c9.209,-2.321 18.604,-3.834 28.075,-4.521c1.613,0.058 3.225,-0.221 4.725,-0.813c0.746,-0.316 1.363,-0.866 1.763,-1.566c0.4,-0.704 0.554,-1.517 0.446,-2.317c-2.071,0.488 -4.238,0.346 -6.225,-0.404c-1.992,-0.75 -3.713,-2.075 -4.946,-3.808c13.162,-1.088 27.154,-2.013 38.816,4.179c1.4,3.004 -5.733,5.504 -3.825,8.212c0.375,0.375 0.83,0.659 1.33,0.829c0.5,0.171 1.033,0.225 1.558,0.159c8.1,0.379 16.217,0.066 24.267,-0.929c2.891,-0.638 5.862,-0.88 8.825,-0.713c4.895,0.604 9.083,3.871 13.9,4.933c0.966,0.284 1.979,0.371 2.975,0.25c1,-0.116 1.966,-0.437 2.837,-0.941c0.417,-0.271 0.775,-0.621 1.05,-1.034c0.279,-0.408 0.471,-0.875 0.567,-1.362c0.091,-0.488 0.087,-0.988 -0.017,-1.471c-0.104,-0.487 -0.304,-0.946 -0.592,-1.35c4.534,-4.446 12.063,-3.346 18.046,-1.217c5.984,2.13 11.65,5.559 17.984,6.034c4.541,0.341 9.145,-0.879 13.633,-0.104c2.775,0.7 5.512,1.537 8.2,2.512c5.212,1.458 10.729,1.15 16.137,1.221c13.813,0.183 27.467,2.9 40.3,8.004c1.667,0.546 3.196,1.45 4.48,2.65c0.629,0.608 1.058,1.396 1.237,2.254c0.179,0.859 0.096,1.75 -0.237,2.563l-13.259,-1.938c1.25,2.459 4.479,2.879 7.104,3.725c2.625,0.85 5.346,3.75 3.771,6.013c-2.846,-0.909 -5.421,1.937 -6.858,4.55c-1.438,2.616 -3.188,5.75 -6.167,5.908c-2.671,0.142 -5.896,-2.129 -7.637,-0.1c2.404,3.029 4.462,6.321 6.137,9.808c1.717,3.58 2.942,8.088 0.621,11.313c-0.367,0.571 -0.921,1.004 -1.571,1.212c-1.896,0.48 -3.129,-1.837 -4.487,-3.245c-1.946,-1.525 -4.213,-2.588 -6.629,-3.105c-2.321,-0.833 -4.767,-2.466 -4.946,-4.925c0.079,-1.537 0.521,-3.033 1.287,-4.366c1,-2.384 1.438,-4.967 1.279,-7.546c-0.012,-2.1 -0.795,-4.121 -2.204,-5.683c-0.721,-0.75 -1.687,-1.221 -2.725,-1.325c-1.037,-0.109 -2.079,0.154 -2.937,0.741c-0.746,0.621 -1.346,1.613 -2.317,1.65c-1.713,0.067 -3.029,-2.921 -4.404,-1.904c0.158,1.088 -0.067,2.196 -0.638,3.133c-4.112,3.58 -10.433,2.063 -15.737,3.33c-2.521,0.72 -4.934,1.775 -7.179,3.133c-0.838,0.358 -1.55,0.958 -2.05,1.721c-0.259,0.679 -0.275,1.425 -0.05,2.112c0.225,0.692 0.679,1.284 1.283,1.679c1.237,0.759 2.629,1.234 4.071,1.388c6.467,1.225 13.025,3.121 18.129,7.271c5.104,4.154 8.45,11.016 6.833,17.391l-12.745,-12.179c0.483,5.117 0.758,10.242 0.824,15.388c0.08,1.004 -0.058,2.012 -0.404,2.958c-0.908,2.008 -3.375,2.683 -5.533,3.125c-0.6,0.113 -1.167,0.354 -1.671,0.704c-0.5,0.35 -0.921,0.8 -1.233,1.325c-0.317,0.525 -0.517,1.109 -0.588,1.717c-0.071,0.604 -0.016,1.221 0.167,1.804c0.996,2.425 2.508,4.604 4.429,6.392c1.929,1.791 3.225,4.162 3.704,6.75c0.229,2.604 -1.733,5.541 -4.346,5.358c-0.97,-0.192 -1.879,-0.633 -2.629,-1.283c-0.754,-0.646 -1.325,-1.479 -1.658,-2.417c-0.642,-1.875 -1.521,-3.658 -2.613,-5.317c-3.833,-4.612 -12.45,-2.633 -15.887,-7.55c-0.875,0.992 -1.483,2.192 -1.763,3.488c-0.283,1.292 -0.229,2.637 0.159,3.904c0.862,-0.383 1.829,-0.454 2.741,-0.2c0.909,0.25 1.705,0.813 2.246,1.583c1.038,1.575 1.946,3.23 2.709,4.95c1.275,2.205 3.3,4.159 3.479,6.696c-0.05,0.963 -0.034,1.925 0.046,2.879c0.566,1.467 1.425,2.805 2.516,3.93c0.954,1.566 1.509,3.341 1.621,5.17c0.113,1.825 -0.225,3.655 -0.975,5.325c-1.542,3.321 -3.633,6.359 -6.187,8.98c-4.084,4.912 -8.592,9.45 -13.471,13.566c-1.513,1.025 -2.813,2.329 -3.825,3.85c-0.492,0.771 -0.713,1.679 -0.634,2.588c0.075,0.908 0.45,1.771 1.063,2.446c-0.975,0.05 -2.721,0.529 -3.692,0.575c-0.341,-3.905 -0.416,-7.825 -0.225,-11.742c-3.841,-1.846 -7.975,3.096 -7.479,7.325c0.496,4.233 3.554,7.629 5.733,11.292c1.771,2.6 2.567,5.741 2.246,8.87c-0.212,1.546 -0.971,2.963 -2.141,4c-1.171,1.034 -2.671,1.613 -4.234,1.63c-4.937,-0.43 -7.004,-7.517 -11.896,-8.33c-0.429,-0.1 -0.883,-0.054 -1.283,0.13c-0.729,0.395 -0.854,1.366 -0.896,2.195c-0.5,4.046 -0.087,8.155 1.213,12.021c2.316,5.475 8.304,10.071 7.05,15.884c-6.767,-3.146 -10.284,-10.734 -11.884,-18.025c-1.595,-7.288 -1.862,-14.938 -4.725,-21.83c-2.175,2.788 -6.745,0.484 -8.733,-2.441c-1.883,-2.771 -3.042,-5.975 -4.871,-8.784c-0.812,-1.47 -1.954,-2.733 -3.337,-3.683c-1.384,-0.95 -2.971,-1.567 -4.638,-1.796c-3.508,-0.162 -6.554,2.246 -9.229,4.521c-2.329,1.725 -4.283,3.904 -5.75,6.404c-1.871,3.763 -1.379,8.2 -1.471,12.404c0.196,4.584 -1.283,9.084 -4.158,12.663c-3.096,3.325 -8.813,4.483 -12.229,1.487c-1.65,-1.72 -2.829,-3.837 -3.417,-6.15c-3.708,-10.816 -6.796,-21.841 -9.25,-33.012c-0.571,2.55 -2.812,5.837 -4.95,4.333c-0.479,-0.4 -0.871,-0.904 -1.142,-1.466c-3.991,-6.763 -11.379,-10.821 -18.845,-13.25c-7.467,-2.434 -15.321,-3.567 -22.705,-6.242c-4.137,-1.496 -8.087,-3.467 -11.775,-5.863c-0.941,1.38 -1.491,2.988 -1.591,4.659c-0.1,1.666 0.254,3.329 1.025,4.812c0.825,1.454 2.108,2.592 3.65,3.238c1.541,0.646 3.25,0.758 4.866,0.329c1.638,-0.525 3.021,-1.663 4.65,-2.225c0.784,-0.358 1.667,-0.425 2.496,-0.192c0.829,0.238 1.546,0.759 2.025,1.471c0.679,1.5 -0.35,3.317 0.163,4.883c0.775,2.384 4.375,2.567 5.633,4.738c0.371,0.858 0.458,1.812 0.25,2.725c-0.212,0.912 -0.708,1.733 -1.421,2.337c-1.45,1.18 -3.046,2.163 -4.75,2.925c-5.296,2.946 -9.058,7.967 -13.687,11.88c-4.625,3.908 -11.15,6.762 -16.667,4.254c1.317,-6.654 -6.612,-11.538 -8.071,-18.163c-0.479,-2.179 -0.229,-4.496 -0.916,-6.621c-0.992,-3.079 -3.721,-5.191 -5.959,-7.525c-2.716,-2.858 -4.833,-6.229 -6.225,-9.92c-1.391,-3.688 -2.029,-7.617 -1.875,-11.559c0.371,-2.716 0.371,-5.471 0,-8.187c-0.221,-1.354 -0.887,-2.596 -1.9,-3.529c-1.008,-0.93 -2.304,-1.492 -3.671,-1.6c-6.254,0.275 -14.133,0.741 -17.412,-4.592c-1.171,-1.9 -1.679,-4.688 0.012,-6.146c0.667,-0.421 1.409,-0.708 2.184,-0.842c0.779,-0.133 1.575,-0.112 2.341,0.067l14.092,1.383c3.296,0.325 6.858,0.592 9.683,-1.129c2.83,-1.721 4.055,-6.296 1.438,-8.321c-1.917,-1.483 -5.342,-1.4 -5.9,-3.754c-0.463,-1.962 1.708,-4.187 0.537,-5.825c-0.841,-1.175 -2.733,-0.85 -3.875,0.029c-1.004,1.038 -2.091,1.988 -3.258,2.838c-2.25,1.171 -4.937,0.054 -7.354,-0.7c-2.421,-0.758 -5.663,-0.821 -6.838,1.425c-1.308,2.512 1.167,5.804 -0.137,8.321c-1.721,3.329 -7.55,1.433 -9.971,4.296c-2.771,3.287 1.892,8.183 0.954,12.383c-1.196,0.592 -2.521,0.862 -3.854,0.787c-1.329,-0.075 -2.617,-0.491 -3.737,-1.216c-1.105,-0.75 -1.984,-1.784 -2.546,-2.992c-0.559,-1.208 -0.784,-2.55 -0.642,-3.875c0.229,-1.887 1.213,-3.812 0.554,-5.6c-0.716,-1.375 -1.891,-2.454 -3.329,-3.042l-13.692,-7.566c-1.27,2.358 0.338,5.279 2.346,7.05c2.013,1.775 4.529,3.108 5.85,5.437c0.834,1.617 1.021,3.488 0.521,5.238c-0.496,1.746 -1.646,3.237 -3.208,4.171c-0.196,0.133 -0.417,0.225 -0.65,0.266c-0.238,0.042 -0.475,0.029 -0.704,-0.033c-0.221,-0.125 -0.413,-0.296 -0.563,-0.5c-0.15,-0.204 -0.258,-0.438 -0.321,-0.683c-2.412,-6.18 -6.041,-12.275 -11.841,-15.505c-5.796,-3.229 -14.13,-2.566 -17.934,2.875c-0.904,1.292 -1.508,2.763 -2.296,4.13c-4.179,7.258 -13.141,10.695 -21.516,10.47c-0.817,0.046 -1.634,-0.145 -2.346,-0.55c-1.354,-0.937 -1.292,-2.916 -1.083,-4.55l0.879,-6.92c0.004,-1.417 0.55,-2.775 1.529,-3.796c1.554,-1.225 3.792,-0.45 5.767,-0.479c1.495,-0.071 2.933,-0.6 4.12,-1.517c1.188,-0.913 2.063,-2.171 2.509,-3.6c0.4,-1.446 0.396,-2.971 -0.009,-4.413c-0.404,-1.441 -1.191,-2.75 -2.283,-3.775c-0.904,-0.85 -2.121,-1.916 -1.642,-3.062c0.192,-0.321 0.45,-0.592 0.755,-0.796c0.308,-0.208 0.658,-0.346 1.02,-0.404c3.55,-1.029 7.3,-1.3 10.788,-2.513c1.787,-0.487 3.425,-1.408 4.771,-2.683c1.341,-1.275 2.35,-2.862 2.929,-4.621c0.254,-1.104 0.367,-2.441 1.358,-2.987c0.5,-0.213 1.034,-0.321 1.571,-0.321c1.892,-0.271 3.617,-1.238 4.829,-2.713c1.213,-1.475 1.834,-3.354 1.734,-5.258c0.92,-0.442 1.954,-0.587 2.962,-0.421c1.004,0.167 1.938,0.642 2.667,1.354c1.437,1.45 3.141,2.613 5.016,3.417c3.667,1 7.213,-2.246 11.013,-2.262c1.575,0.275 3.183,0.279 4.758,0.016c1.525,-0.55 2.438,-2.066 3.604,-3.187c1.171,-1.121 3.225,-1.804 4.305,-0.596l-0.917,-6.817c1.85,0.467 3.783,0.534 5.662,0.196c1.884,-0.342 3.667,-1.079 5.242,-2.167l-11.892,-4.016c-0.416,-0.104 -0.795,-0.309 -1.112,-0.596c-0.867,-0.929 -0.008,-2.383 0.696,-3.442c1.683,-2.529 1.962,-6.7 -0.8,-7.958c-1.888,-0.863 -4.054,0.171 -5.867,1.179l-8.679,4.842c-0.279,1.65 1.742,2.583 2.992,3.696c0.754,0.67 1.291,1.558 1.533,2.537c0.246,0.983 0.187,2.017 -0.167,2.967c-0.354,0.946 -0.987,1.766 -1.816,2.346c-0.825,0.583 -1.813,0.9 -2.825,0.912c0.575,0.746 0.97,1.608 1.162,2.525c0.196,0.917 0.179,1.867 -0.046,2.775l-5.837,0.421c-0.654,0.133 -1.338,0 -1.896,-0.371c-0.625,-0.554 -0.538,-1.525 -0.683,-2.35c-0.263,-0.975 -0.809,-1.85 -1.571,-2.517c-0.763,-0.662 -1.704,-1.087 -2.709,-1.216c-2.008,-0.217 -4.041,-0.029 -5.979,0.554c-0.833,0.3 -1.75,0.279 -2.571,-0.063c-0.47,-0.304 -0.825,-0.754 -1.016,-1.283c-0.342,-1.079 -0.396,-2.229 -0.167,-3.337c0.233,-1.109 0.75,-2.138 1.496,-2.992c1.508,-1.683 3.175,-3.217 4.979,-4.579c4.067,-3.567 7.054,-8.204 8.629,-13.379c3.213,-1.35 6.542,-3.18 9.754,-4.525c4.959,-2.509 10.517,-3.588 16.05,-3.109l10.888,0.209c3.229,-0.138 6.458,0.325 9.517,1.366c1.52,0.546 2.866,1.492 3.891,2.746c1.025,1.25 1.684,2.758 1.913,4.358c0.062,0.367 0.033,0.738 -0.092,1.088c-0.121,0.35 -0.329,0.662 -0.604,0.908c-0.421,0.229 -0.9,0.338 -1.379,0.309c-3.004,0.104 -4.288,0.854 -7.292,0.962Z" style="fill:#f2f2f2;fill-rule:nonzero;"/><path d="M1565.53,1243.71c0.425,-0.404 0.729,-0.917 0.883,-1.479c0.155,-0.567 0.146,-1.163 -0.016,-1.725c-1.034,-0.4 -2.163,-0.5 -3.25,-0.296c-1.092,0.204 -2.104,0.712 -2.921,1.462c-0.646,0.65 -1.2,1.384 -1.654,2.184c-0.838,1.083 -1.434,2.333 -1.759,3.666c-0.32,1.334 -0.358,2.717 -0.108,4.063c0.067,0.287 0.192,0.554 0.367,0.791c0.171,0.234 0.387,0.434 0.641,0.584c0.371,0.15 0.771,0.212 1.171,0.183c1.575,0 3.15,-0.096 4.713,-0.287c0.962,-0.121 2.079,-0.392 2.45,-1.284c0.487,-1.175 -0.696,-2.504 -0.35,-3.729c0.225,-0.55 0.571,-1.042 1.008,-1.442c0.213,-0.2 0.379,-0.45 0.483,-0.729c0.105,-0.279 0.142,-0.575 0.109,-0.871c-0.138,-0.57 -1.021,-0.9 -1.338,-0.4" style="fill:#f2f2f2;fill-rule:nonzero;"/><path d="M1573.7,1233.11c-1.4,-0.321 -2.842,-0.413 -4.271,-0.267c-0.317,-0.008 -0.633,0.063 -0.912,0.204c-0.271,0.205 -0.471,0.488 -0.563,0.813c-0.3,0.971 -0.225,2.017 0.208,2.933c0.438,0.917 1.2,1.638 2.142,2.013c0.517,0.121 1.008,0.316 1.458,0.587c1.209,0.938 0.438,2.854 0.667,4.367c0.258,1.696 1.9,3.121 1.6,4.812c-0.237,1.334 -1.662,2.388 -1.433,3.721c0.241,1.396 2.012,1.817 3.429,1.929c0.817,0.142 1.658,0.046 2.425,-0.279c0.767,-0.525 1.312,-1.312 1.529,-2.216c0.579,-1.721 0.821,-3.538 0.717,-5.35c-0.004,-0.825 -0.213,-1.638 -0.604,-2.363c-0.425,-0.575 -0.896,-1.117 -1.409,-1.617c-2.708,-3.145 0.142,-7.841 -4.983,-9.287Z" style="fill:#f2f2f2;fill-rule:nonzero;"/><path d="M1339.95,1263.36c5.017,0 9.084,-4.067 9.084,-9.083c0,-5.013 -4.067,-9.08 -9.084,-9.08c-5.012,0 -9.079,4.067 -9.079,9.08c0,5.016 4.067,9.083 9.079,9.083Z" style="fill:#ff6584;fill-rule:nonzero;"/><path d="M1422,1457.49c5.017,0 9.083,-4.066 9.083,-9.079c0,-5.017 -4.066,-9.083 -9.083,-9.083c-5.012,0 -9.079,4.066 -9.079,9.083c0,5.013 4.067,9.079 9.079,9.079Z" style="fill:#ff6584;fill-rule:nonzero;"/><path d="M1769.92,1262.11c5.012,0 9.079,-4.067 9.079,-9.079c0,-5.017 -4.067,-9.084 -9.079,-9.084c-5.017,0 -9.084,4.067 -9.084,9.084c0,5.012 4.067,9.079 9.084,9.079Z" style="fill:#ff6584;fill-rule:nonzero;"/><path d="M1929.62,1488.81c5.017,0 9.083,-4.067 9.083,-9.079c0,-5.017 -4.066,-9.084 -9.083,-9.084c-5.013,0 -9.079,4.067 -9.079,9.084c0,5.012 4.066,9.079 9.079,9.079Z" style="fill:#ff6584;fill-rule:nonzero;"/><path d="M1633.07,1392.36c5.016,0 9.083,-4.067 9.083,-9.079c0,-5.017 -4.067,-9.083 -9.083,-9.083c-5.017,0 -9.079,4.066 -9.079,9.083c0,5.012 4.062,9.079 9.079,9.079Z" style="fill:#ff6584;fill-rule:nonzero;"/><path d="M1617.41,1266.51c5.016,0 9.083,-4.067 9.083,-9.083c0,-5.013 -4.067,-9.079 -9.083,-9.079c-5.013,0 -9.08,4.066 -9.08,9.079c0,5.016 4.067,9.083 9.08,9.083Z" style="fill:#ff6584;fill-rule:nonzero;"/><path d="M1650.75,1258.18c5.017,0 9.083,-4.067 9.083,-9.084c0,-5.012 -4.066,-9.079 -9.083,-9.079c-5.013,0 -9.079,4.067 -9.079,9.079c0,5.017 4.066,9.084 9.079,9.084Z" style="fill:#ff6584;fill-rule:nonzero;"/><path d="M806.325,928.077c0.021,40.179 -23.862,54.216 -53.329,54.233c-0.683,0 -1.363,-0.008 -2.042,-0.021c-1.366,-0.029 -2.716,-0.092 -4.054,-0.187c-26.596,-1.867 -47.267,-16.609 -47.283,-53.975c-0.017,-38.667 49.387,-87.492 53.091,-91.105l0.005,-0.004c0.141,-0.137 0.212,-0.204 0.212,-0.204c0,0 53.383,51.088 53.4,91.263Z" style="fill:#73cdff;fill-rule:nonzero;"/><path d="M751.054,976.164l19.5,-27.271l-19.55,30.263l-0.05,3.133c-1.366,-0.029 -2.716,-0.092 -4.054,-0.187l2.083,-40.196l-0.016,-0.313l0.037,-0.058l0.196,-3.796l-19.625,-30.321l19.683,27.475l0.05,0.804l1.571,-30.37l-16.804,-31.334l17.008,25.996l1.625,-62.967l0.005,-0.208l0,0.204l-0.25,49.659l16.7,-19.696l-16.771,23.971l-0.429,27.195l15.6,-26.104l-15.659,30.1l-0.237,15.121l22.637,-36.337l-22.725,41.612l-0.525,33.625Z" style="fill:#3f3d56;fill-rule:nonzero;"/><path d="M2306.25,916.293c0,0 8.325,56.179 6.246,60.342c-2.083,4.162 6.242,27.05 39.537,20.808c33.296,-6.241 45.784,-49.937 45.784,-49.937c0,0 -27.054,-35.375 -22.892,-45.779l-68.675,14.566Z" style="fill:#facecd;fill-rule:nonzero;"/><path d="M2304.17,912.918c0,0 8.325,56.179 6.241,60.342c-2.079,4.162 6.246,27.05 39.542,20.808c33.296,-6.241 45.779,-49.937 45.779,-49.937c0,0 -27.05,-35.375 -22.887,-45.779l-68.675,14.566Z" style="fill-opacity:0.06;fill-rule:nonzero;"/><path d="M2296.89,1795.43l0,68.666l43.7,14.567l-8.325,-93.637l-35.375,10.404Z" style="fill:#facecd;fill-rule:nonzero;"/><path d="M2459.2,1803.76l-6.241,85.312l37.458,-22.887l0,-68.667l-31.217,6.242Z" style="fill:#facecd;fill-rule:nonzero;"/><path d="M2251.1,1321.01c0,0 -27.054,47.858 -18.729,62.425c8.325,14.562 8.325,20.808 8.325,20.808c0,0 10.404,94.109 25.967,175.359c0,0 1.083,97.225 13.57,161.729l9.346,121.604l60.417,8.333l-5.25,-140.341c0,0 8.325,-81.15 0,-118.605c-8.325,-37.454 22.892,-162.304 22.892,-162.304l36.525,75.417l12.5,112.5c0,0 7.162,59.7 17.566,103.396c10.405,43.7 9.517,129.937 9.517,129.937l60.417,-8.333c0,0 4.983,-186.108 -9.584,-252.692c0,0 -6.245,-203.921 0,-216.404c6.242,-12.487 -6.245,-52.021 -18.729,-60.346c-12.487,-8.321 -224.75,-12.483 -224.75,-12.483Z" style="fill:#2f2e41;fill-rule:nonzero;"/><path d="M2315.62,1849.54c0,0 -2.084,-12.488 -12.488,-12.488l-10.404,0l-2.083,16.646l-37.459,37.459c0,0 -60.345,45.775 -8.32,47.858c52.025,2.079 64.508,-20.808 64.508,-20.808c0,0 47.862,-14.567 47.862,-16.646c0,-2.084 -12.483,-54.104 -12.483,-54.104l-6.8,1.541l-5.687,15.104l-16.646,-14.562Z" style="fill:#2f2e41;fill-rule:nonzero;"/><path d="M2496.66,1849.54c0,0 -22.892,-8.325 -22.892,0l0,8.321c0,0 -8.321,-6.242 -8.321,0c0,6.241 -12.487,10.404 -12.487,10.404l-2.084,-10.404c0,0 -12.483,49.941 -6.242,54.1c6.242,4.162 27.055,14.566 29.134,20.808c2.083,6.246 6.246,29.133 49.946,20.808c43.7,-8.32 16.65,-33.291 16.65,-33.291l-22.892,-22.888l-20.813,-47.858Z" style="fill:#2f2e41;fill-rule:nonzero;"/><path d="M2330.18,938.139c32.18,0 58.267,-26.083 58.267,-58.262c0,-32.175 -26.087,-58.263 -58.267,-58.263c-32.183,0 -58.27,26.088 -58.27,58.263c0,32.179 26.087,58.262 58.27,58.262Z" style="fill:#facecd;fill-rule:nonzero;"/><path d="M2340.59,986.002c0,0 -22.667,-6.355 -27.98,-17.746c-5.316,-11.388 -46.937,9.421 -46.937,9.421l-14.567,183.112l-5.204,161.263c0,0 105.092,40.575 138.388,28.087c33.295,-12.483 72.837,-18.725 72.837,-18.725l6.242,-312.121l-10.404,-58.262c0,0 -49.042,-20.521 -58.859,-18.584c0,0 -11.896,45.634 -53.516,43.555Z" style="fill:#d0cde1;fill-rule:nonzero;"/><path d="M2310.97,951.664c0,0 -9.921,9.367 -14.083,9.367c-4.163,0 -70.755,4.162 -77,31.212c-6.242,27.05 10.404,106.121 10.404,106.121c0,0 2.083,81.15 12.487,108.2c10.404,27.05 1.042,44.738 1.042,44.738c0,0 -13.529,69.708 -1.042,75.95c12.488,6.241 37.317,15.816 37.317,15.816c0,0 33.437,-36.625 23.033,-88.646c-10.404,-52.02 -24.971,-126.929 -16.65,-151.895c8.325,-24.971 24.492,-150.863 24.492,-150.863Z" style="fill:#575a89;fill-rule:nonzero;"/><path d="M2186.59,1248.18l14.566,27.05c0,0 68.675,76.991 81.163,33.291c12.483,-43.695 -49.946,-54.1 -49.946,-54.1l-18.729,-18.725l-27.054,12.484Z" style="fill:#facecd;fill-rule:nonzero;"/><path d="M2391.09,938.139c0,0 78.521,10.404 99.329,31.213c20.808,20.808 4.162,118.608 4.162,118.608c0,0 -24.97,149.817 -22.891,158.142c2.079,8.32 2.079,79.07 2.079,79.07c0,0 -27.05,29.13 -49.942,20.809c-22.891,-8.325 -52.025,-68.667 -22.891,-141.496c12.241,-30.6 10.887,-60.467 5.204,-84.813c-14.096,-59.412 -19.171,-120.608 -15.05,-181.529l0,-0.004Z" style="fill:#575a89;fill-rule:nonzero;"/><path d="M2509.15,1231.54l-20.812,18.725c0,0 -118.617,4.162 -87.4,35.375c31.212,31.212 106.129,0 106.129,0l27.054,-29.129l-27.054,-24.971l2.083,0Z" style="fill:#facecd;fill-rule:nonzero;"/><path d="M2283.26,818.322l-10.709,-4.287c0,0 22.396,-24.654 53.554,-22.508l-8.766,-9.646c0,0 21.421,-8.575 40.896,13.933c10.237,11.833 22.083,25.742 29.466,41.408l11.471,0l-4.787,10.542l16.754,10.538l-17.2,-1.892c1.629,9.1 1.075,18.454 -1.625,27.296c0,0 -19.475,-22.509 -19.475,-26.796l0,10.717c0,0 -10.709,-9.646 -10.709,-16.075l-5.841,7.5l-2.921,-11.788l-36.029,11.788l5.841,-9.646l-22.391,3.216l8.762,-11.791c0,0 -18.683,16.662 -26.292,25.725c-10.308,12.283 -19.47,16.079 -19.47,16.079c0,0 -8.763,-48.233 19.47,-64.313Z" style="fill:#2f2e41;fill-rule:nonzero;"/><path d="M2236.54,983.918l-18.73,8.325c0,0 -74.916,99.879 -81.158,120.688c-6.246,20.804 -12.487,68.662 47.863,143.575l37.458,-18.729c0,0 -41.621,-60.342 -27.054,-83.234c14.566,-22.887 47.862,-62.421 47.862,-62.421l-6.241,-108.204Z" style="fill:#575a89;fill-rule:nonzero;"/><path d="M2477.93,967.272l12.488,2.08c0,0 156.075,114.445 143.592,158.141c-12.488,43.7 -99.892,137.334 -99.892,137.334l-33.296,-31.213c0,0 72.838,-85.312 43.704,-106.121c-29.137,-20.808 -66.596,-56.179 -66.596,-56.179l0,-104.042Z" style="fill:#575a89;fill-rule:nonzero;"/></g></g></svg>