<svg width="885" height="641" viewBox="0 0 885 641" fill="none" xmlns="http://www.w3.org/2000/svg">
<mask id="mask0" mask-type="alpha" maskUnits="userSpaceOnUse" x="0" y="0" width="885" height="672">
<rect width="885" height="672" fill="#C4C4C4"/>
</mask>
<g mask="url(#mask0)">
<path d="M1103.05 211.842C1092.09 301.233 1301.37 492.069 1022.01 597.976C655.5 682.5 235.646 610.352 195 570.5C127.536 504.354 44.0001 250 44 155C44 60 208.674 -56.9383 249.5 -74C300.532 -95.3271 488.941 -158.806 623.28 -123.716C757.618 -88.6263 1121.8 58.9137 1103.05 211.842Z" fill="#7CCCFF"/>
</g>
<g clip-path="url(#clip0)">
<path d="M400.68 280.496C427.326 280.496 448.927 258.91 448.927 232.283C448.927 205.656 427.326 184.071 400.68 184.071C374.034 184.071 352.433 205.656 352.433 232.283C352.433 258.91 374.034 280.496 400.68 280.496Z" fill="#FF6584"/>
<path d="M796 217.371V344.178C796.001 368.756 791.157 393.093 781.745 415.8C772.333 438.507 758.537 459.14 741.145 476.519C723.753 493.898 703.106 507.684 680.383 517.089C657.659 526.494 633.304 531.335 608.708 531.334H264V404.527C264 336.766 300.039 277.41 354.015 244.566C363.316 238.901 373.097 234.064 383.246 230.11C389.219 227.779 395.309 225.761 401.493 224.065C401.613 224.025 401.74 223.99 401.86 223.962C403.687 223.462 405.526 222.991 407.376 222.549C407.479 222.521 407.577 222.498 407.68 222.475C419.082 219.76 430.713 218.12 442.421 217.578C443.806 217.514 445.19 217.463 446.586 217.434C447.086 217.417 447.592 217.405 448.103 217.405C449.16 217.382 450.223 217.371 451.292 217.371H796Z" fill="#3F3D56"/>
<path d="M512.19 449.617C375.406 449.617 264.471 486.475 264.005 532H760.375C759.91 486.475 648.974 449.617 512.19 449.617Z" fill="#EAEAEA"/>
<g opacity="0.1">
<path opacity="0.1" d="M466.229 512.034C491.613 512.034 512.19 506.322 512.19 499.276C512.19 492.23 491.613 486.519 466.229 486.519C440.845 486.519 420.268 492.23 420.268 499.276C420.268 506.322 440.845 512.034 466.229 512.034Z" fill="black"/>
</g>
<g opacity="0.1">
<path opacity="0.1" d="M565.62 489.07C591.003 489.07 611.581 483.358 611.581 476.312C611.581 469.266 591.003 463.555 565.62 463.555C540.236 463.555 519.659 469.266 519.659 476.312C519.659 483.358 540.236 489.07 565.62 489.07Z" fill="black"/>
</g>
<g opacity="0.1">
<path opacity="0.1" d="M466.229 510.758C489.074 510.758 507.594 505.618 507.594 499.276C507.594 492.935 489.074 487.794 466.229 487.794C443.384 487.794 424.864 492.935 424.864 499.276C424.864 505.618 443.384 510.758 466.229 510.758Z" fill="black"/>
</g>
<g opacity="0.1">
<path opacity="0.1" d="M565.62 487.794C588.465 487.794 606.985 482.654 606.985 476.312C606.985 469.971 588.465 464.83 565.62 464.83C542.775 464.83 524.255 469.971 524.255 476.312C524.255 482.654 542.775 487.794 565.62 487.794Z" fill="black"/>
</g>
<path d="M343.283 272.507C345.504 272.507 347.305 270.708 347.305 268.489C347.305 266.269 345.504 264.47 343.283 264.47C341.062 264.47 339.261 266.269 339.261 268.489C339.261 270.708 341.062 272.507 343.283 272.507Z" fill="#F2F2F2"/>
<path d="M689.14 429.81C691.361 429.81 693.162 428.011 693.162 425.792C693.162 423.572 691.361 421.773 689.14 421.773C686.919 421.773 685.119 423.572 685.119 425.792C685.119 428.011 686.919 429.81 689.14 429.81Z" fill="#F2F2F2"/>
<path d="M499.551 300.638C501.772 300.638 503.572 298.839 503.572 296.619C503.572 294.4 501.772 292.601 499.551 292.601C497.33 292.601 495.529 294.4 495.529 296.619C495.529 298.839 497.33 300.638 499.551 300.638Z" fill="#F2F2F2"/>
<path d="M698.907 274.804C700.176 274.804 701.205 273.776 701.205 272.507C701.205 271.239 700.176 270.211 698.907 270.211C697.638 270.211 696.609 271.239 696.609 272.507C696.609 273.776 697.638 274.804 698.907 274.804Z" fill="#FF6584"/>
<path d="M352.475 389.623C353.744 389.623 354.773 388.595 354.773 387.327C354.773 386.059 353.744 385.031 352.475 385.031C351.206 385.031 350.177 386.059 350.177 387.327C350.177 388.595 351.206 389.623 352.475 389.623Z" fill="#FF6584"/>
<path d="M318.004 435.736H316.958V434.69H316.753V435.736H315.706V435.941H316.753V436.987H316.958V435.941H318.004V435.736Z" fill="#F2F2F2"/>
<path d="M654.095 350.77H653.048V349.724H652.844V350.77H651.797V350.974H652.844V352.02H653.048V350.974H654.095V350.77Z" fill="#F2F2F2"/>
<path d="M740.847 333.547H739.8V332.501H739.595V333.547H738.549V333.751H739.595V334.797H739.8V333.751H740.847V333.547Z" fill="#F2F2F2"/>
<path d="M554.13 379.475H553.083V378.429H552.878V379.475H551.832V379.679H552.878V380.725H553.083V379.679H554.13V379.475Z" fill="#F2F2F2"/>
<path d="M715.568 385.216H714.521V384.17H714.317V385.216H713.27V385.42H714.317V386.466H714.521V385.42H715.568V385.216Z" fill="#F2F2F2"/>
<path d="M520.808 409.902H519.761V408.856H519.556V409.902H518.51V410.106H519.556V411.152H519.761V410.106H520.808V409.902Z" fill="#F2F2F2"/>
<path d="M594.346 411.05H593.299V410.004H593.094V411.05H592.048V411.254H593.094V412.3H593.299V411.254H594.346V411.05Z" fill="#F2F2F2"/>
<path d="M319.153 313.453H318.107V312.407H317.902V313.453H316.855V313.658H317.902V314.704H318.107V313.658H319.153V313.453Z" fill="#F2F2F2"/>
<path d="M654.596 234.438H652.944V267.773H654.596V234.438Z" fill="#E6E6E6"/>
<path d="M615.458 323.054L600.265 358.039L603.237 362.989L602.246 364.639L609.182 368.27V366.29L611.825 365.63L623.054 345.167L615.458 323.054Z" fill="#E6E6E6"/>
<path d="M603.567 364.31C603.567 364.31 592.338 381.802 604.889 384.442C617.439 387.082 607.201 365.96 607.201 365.96L603.567 364.31Z" fill="#E6E6E6"/>
<path d="M619.751 356.389L615.788 369.26L614.136 385.762L611.164 391.703L614.467 418.436L619.751 423.717L622.063 450.12V462.002L628.338 472.893L620.257 484.354C619.876 484.893 619.648 485.525 619.597 486.182C619.547 486.84 619.675 487.499 619.969 488.09C620.263 488.68 620.712 489.18 621.267 489.537C621.823 489.893 622.465 490.092 623.125 490.113C624.909 490.16 627.261 489.656 630.32 488.075C639.898 483.124 639.568 478.504 639.568 478.504C639.568 478.504 645.513 478.504 645.843 473.883C646.174 469.263 642.21 436.258 642.21 436.258L638.577 422.067V383.452H639.898L640.559 416.456L643.531 428.667L643.862 433.948L648.155 486.755C648.155 486.755 667.312 492.035 668.302 487.745C669.293 483.454 661.036 480.814 661.036 480.814L665.99 471.243V452.76L664.339 448.8L661.366 422.067L666.321 416.786L668.963 413.486V387.082L665.66 376.851L664.669 368.27L659.385 355.068C659.385 355.068 635.274 347.147 619.751 356.389Z" fill="white"/>
<path d="M662.688 281.799C662.688 285.769 661.745 289.682 659.937 293.217C658.128 296.752 655.506 299.807 652.286 302.132C649.066 304.457 645.339 305.985 641.413 306.59C637.487 307.195 633.473 306.86 629.701 305.613C625.93 304.366 622.508 302.243 619.718 299.417C616.928 296.591 614.849 293.143 613.652 289.358C612.455 285.573 612.174 281.557 612.832 277.643C613.491 273.728 615.07 270.025 617.439 266.838L617.446 266.832C620.594 262.6 624.998 259.467 630.03 257.879C635.062 256.291 640.467 256.328 645.477 257.985C650.487 259.643 654.847 262.836 657.936 267.111C661.026 271.386 662.688 276.526 662.688 281.799Z" fill="#73CDFF"/>
<g opacity="0.1">
<path opacity="0.1" d="M659.121 271.4L657.073 283.119C641.685 243.204 617.208 267.723 616.785 268.152C619.315 264.752 622.665 262.049 626.523 260.293C630.382 258.537 634.622 257.786 638.849 258.11C643.076 258.434 647.152 259.823 650.697 262.147C654.242 264.471 657.14 267.654 659.121 271.4Z" fill="black"/>
</g>
<path d="M659.781 270.079L657.733 281.799C642.346 241.884 617.869 266.403 617.446 266.832C619.976 263.432 623.326 260.728 627.184 258.972C631.042 257.216 635.283 256.465 639.51 256.79C643.737 257.114 647.813 258.503 651.358 260.827C654.902 263.151 657.8 266.334 659.781 270.079Z" fill="white"/>
<path d="M656.34 265.132L659.781 277.067C659.781 277.067 652.638 298.46 619.516 299.206L618.43 302.262L614.797 303.252L613.146 310.183L617.77 354.078C617.77 354.078 615.788 358.369 619.091 358.039C619.091 358.039 640.889 350.778 659.715 357.379C659.715 357.379 663.678 359.029 662.688 355.398C662.688 355.398 675.899 347.147 674.908 338.566C673.917 329.985 675.899 290.05 675.899 290.05C675.899 290.05 677.88 278.499 671.935 275.859C671.935 275.858 663.204 263.646 656.34 265.132Z" fill="white"/>
<path d="M649.099 348.528C649.099 348.528 628.406 350.605 634.134 362.072C639.863 373.539 650.063 352.398 650.063 352.398L649.099 348.528Z" fill="#E6E6E6"/>
<path d="M659.715 297.311C659.715 297.311 656.082 301.602 657.403 308.533C658.724 315.463 663.678 330.975 663.678 330.975L646.174 347.147L651.458 354.408L675.238 342.197L680.523 338.896C679.209 325.547 675.939 312.463 670.818 300.064L669.954 297.971C669.954 297.971 663.678 295.331 659.715 297.311Z" fill="#F0F0F0"/>
<path d="M658.064 285.595C661.438 285.595 664.174 282.861 664.174 279.489C664.174 276.117 661.438 273.383 658.064 273.383C654.689 273.383 651.953 276.117 651.953 279.489C651.953 282.861 654.689 285.595 658.064 285.595Z" fill="#E6E6E6"/>
<path d="M653.77 238.729C656.233 238.729 658.229 236.734 658.229 234.273C658.229 231.813 656.233 229.818 653.77 229.818C651.307 229.818 649.311 231.813 649.311 234.273C649.311 236.734 651.307 238.729 653.77 238.729Z" fill="#E6E6E6"/>
<path d="M540.341 304.268H539.294V303.222H539.09V304.268H538.043V304.472H539.09V305.518H539.294V304.472H540.341V304.268Z" fill="#F2F2F2"/>
<path d="M634.562 272.118H633.515V271.072H633.31V272.118H632.263V272.322H633.31V273.369H633.515V272.322H634.562V272.118Z" fill="#F2F2F2"/>
<path d="M624.22 281.878H623.174V280.832H622.969V281.878H621.922V282.082H622.969V283.128H623.174V282.082H624.22V281.878Z" fill="#F2F2F2"/>
<path d="M583.43 257.581C584.699 257.581 585.728 256.553 585.728 255.284C585.728 254.016 584.699 252.988 583.43 252.988C582.161 252.988 581.132 254.016 581.132 255.284C581.132 256.553 582.161 257.581 583.43 257.581Z" fill="#F2F2F2"/>
<path d="M470.226 271.471C470.226 431.67 450.067 431.67 425.208 431.67C412.355 431.67 400.76 431.67 392.56 409.541C390.203 403.181 388.12 394.98 386.375 384.424C382.443 360.694 380.189 325.035 380.189 271.471C380.189 250.873 382.629 230.681 386.375 211.821C388.175 202.742 390.279 193.978 392.56 185.619C395.351 175.386 398.409 165.764 401.495 156.959C403.564 151.038 405.654 145.482 407.681 140.351C417.049 116.67 425.208 102 425.208 102C425.208 102 470.226 182.996 470.226 271.471Z" fill="#FFFEFE"/>
<g opacity="0.1">
<path opacity="0.1" d="M407.681 140.352V419.651H401.495V156.959C403.564 151.038 405.654 145.482 407.681 140.352Z" fill="black"/>
</g>
<path d="M423.833 237.302C437.498 237.302 448.576 226.232 448.576 212.577C448.576 198.921 437.498 187.851 423.833 187.851C410.168 187.851 399.09 198.921 399.09 212.577C399.09 226.232 410.168 237.302 423.833 237.302Z" fill="#3F3D56"/>
<path d="M478.13 416.56C472.629 403.027 465.565 400.693 460.948 400.896V398.703H388.78V400.896C384.163 400.693 377.099 403.027 371.598 416.56C362.663 438.538 377.096 476.312 377.096 476.312C377.096 476.312 369.382 423.629 394.997 423.282C397.215 426.174 399.937 428.642 403.032 430.567V444.737H444.397V431.858C448.441 429.808 451.972 426.878 454.731 423.282C480.345 423.629 472.632 476.312 472.632 476.312C472.632 476.312 487.065 438.538 478.13 416.56Z" fill="#73CDFF"/>
<path d="M423.833 231.807C434.461 231.807 443.078 223.198 443.078 212.577C443.078 201.956 434.461 193.346 423.833 193.346C413.204 193.346 404.588 201.956 404.588 212.577C404.588 223.198 413.204 231.807 423.833 231.807Z" fill="#73CDFF"/>
<path d="M750.045 217.371H748.896C748.978 229.805 753.976 241.703 762.799 250.472C771.622 259.241 783.556 264.169 796 264.183V263.035C783.861 263.022 772.218 258.215 763.61 249.661C755.002 241.108 750.126 229.501 750.045 217.371Z" fill="#73CDFF"/>
<path d="M728.788 217.371H727.639C727.726 235.438 734.964 252.736 747.773 265.487C760.582 278.238 777.92 285.406 796 285.425V284.276C778.225 284.257 761.18 277.209 748.587 264.674C735.994 252.138 728.876 235.133 728.788 217.371Z" fill="#73CDFF"/>
<path d="M706.95 217.371H705.801C705.945 266.95 746.351 307.24 796 307.24V306.092C746.982 306.092 707.094 266.319 706.95 217.371Z" fill="#73CDFF"/>
</g>
<defs>
<clipPath id="clip0">
<rect width="532" height="430" fill="white" transform="translate(264 102)"/>
</clipPath>
</defs>
</svg>
