<svg width="248" height="64" viewBox="0 0 248 64" fill="none" xmlns="http://www.w3.org/2000/svg">
<path d="M14.832 47.384C12.304 47.384 9.856 47 7.488 46.232C5.152 45.432 3.312 44.408 1.968 43.16L3.744 39.416C5.024 40.568 6.656 41.512 8.64 42.248C10.656 42.952 12.72 43.304 14.832 43.304C17.616 43.304 19.696 42.84 21.072 41.912C22.448 40.952 23.136 39.688 23.136 38.12C23.136 36.968 22.752 36.04 21.984 35.336C21.248 34.6 20.32 34.04 19.2 33.656C18.112 33.272 16.56 32.84 14.544 32.36C12.016 31.752 9.968 31.144 8.4 30.536C6.864 29.928 5.536 29 4.416 27.752C3.328 26.472 2.784 24.76 2.784 22.616C2.784 20.824 3.248 19.208 4.176 17.768C5.136 16.328 6.576 15.176 8.496 14.312C10.416 13.448 12.8 13.016 15.648 13.016C17.632 13.016 19.584 13.272 21.504 13.784C23.424 14.296 25.072 15.032 26.448 15.992L24.864 19.832C23.456 18.936 21.952 18.264 20.352 17.816C18.752 17.336 17.184 17.096 15.648 17.096C12.928 17.096 10.88 17.592 9.504 18.584C8.16 19.576 7.488 20.856 7.488 22.424C7.488 23.576 7.872 24.52 8.64 25.256C9.408 25.96 10.352 26.52 11.472 26.936C12.624 27.32 14.176 27.736 16.128 28.184C18.656 28.792 20.688 29.4 22.224 30.008C23.76 30.616 25.072 31.544 26.16 32.792C27.28 34.04 27.84 35.72 27.84 37.832C27.84 39.592 27.36 41.208 26.4 42.68C25.44 44.12 23.984 45.272 22.032 46.136C20.08 46.968 17.68 47.384 14.832 47.384ZM45.0765 47.288C42.5485 47.288 40.2765 46.728 38.2605 45.608C36.2445 44.488 34.6605 42.952 33.5085 41C32.3885 39.016 31.8285 36.776 31.8285 34.28C31.8285 31.784 32.3885 29.56 33.5085 27.608C34.6605 25.624 36.2445 24.088 38.2605 23C40.2765 21.88 42.5485 21.32 45.0765 21.32C47.6045 21.32 49.8605 21.88 51.8445 23C53.8605 24.088 55.4285 25.624 56.5485 27.608C57.7005 29.56 58.2765 31.784 58.2765 34.28C58.2765 36.776 57.7005 39.016 56.5485 41C55.4285 42.952 53.8605 44.488 51.8445 45.608C49.8605 46.728 47.6045 47.288 45.0765 47.288ZM45.0765 43.256C46.7085 43.256 48.1645 42.888 49.4445 42.152C50.7565 41.384 51.7805 40.328 52.5165 38.984C53.2525 37.608 53.6205 36.04 53.6205 34.28C53.6205 32.52 53.2525 30.968 52.5165 29.624C51.7805 28.248 50.7565 27.192 49.4445 26.456C48.1645 25.72 46.7085 25.352 45.0765 25.352C43.4445 25.352 41.9725 25.72 40.6605 26.456C39.3805 27.192 38.3565 28.248 37.5885 29.624C36.8525 30.968 36.4845 32.52 36.4845 34.28C36.4845 36.04 36.8525 37.608 37.5885 38.984C38.3565 40.328 39.3805 41.384 40.6605 42.152C41.9725 42.888 43.4445 43.256 45.0765 43.256ZM78.2333 21.32C81.4653 21.32 84.0253 22.264 85.9133 24.152C87.8333 26.008 88.7933 28.744 88.7933 32.36V47H84.1853V32.888C84.1853 30.424 83.5933 28.568 82.4093 27.32C81.2253 26.072 79.5293 25.448 77.3213 25.448C74.8253 25.448 72.8573 26.184 71.4173 27.656C69.9773 29.096 69.2573 31.176 69.2573 33.896V47H64.6493V21.56H69.0653V25.4C69.9933 24.088 71.2413 23.08 72.8093 22.376C74.4093 21.672 76.2173 21.32 78.2333 21.32ZM97.3211 21.56H101.929V47H97.3211V21.56ZM99.6251 16.664C98.7291 16.664 97.9771 16.376 97.3691 15.8C96.7931 15.224 96.5051 14.52 96.5051 13.688C96.5051 12.856 96.7931 12.152 97.3691 11.576C97.9771 10.968 98.7291 10.664 99.6251 10.664C100.521 10.664 101.257 10.952 101.833 11.528C102.441 12.072 102.745 12.76 102.745 13.592C102.745 14.456 102.441 15.192 101.833 15.8C101.257 16.376 100.521 16.664 99.6251 16.664ZM121.815 47.288C119.223 47.288 116.903 46.728 114.855 45.608C112.839 44.488 111.255 42.952 110.103 41C108.951 39.016 108.375 36.776 108.375 34.28C108.375 31.784 108.951 29.56 110.103 27.608C111.255 25.624 112.839 24.088 114.855 23C116.903 21.88 119.223 21.32 121.815 21.32C124.119 21.32 126.167 21.784 127.959 22.712C129.783 23.64 131.191 24.984 132.183 26.744L128.679 29C127.879 27.784 126.887 26.872 125.703 26.264C124.519 25.656 123.207 25.352 121.767 25.352C120.103 25.352 118.599 25.72 117.255 26.456C115.943 27.192 114.903 28.248 114.135 29.624C113.399 30.968 113.031 32.52 113.031 34.28C113.031 36.072 113.399 37.656 114.135 39.032C114.903 40.376 115.943 41.416 117.255 42.152C118.599 42.888 120.103 43.256 121.767 43.256C123.207 43.256 124.519 42.952 125.703 42.344C126.887 41.736 127.879 40.824 128.679 39.608L132.183 41.816C131.191 43.576 129.783 44.936 127.959 45.896C126.167 46.824 124.119 47.288 121.815 47.288Z" fill="white"/>
<path d="M156.024 48.576C153.368 48.576 150.792 48.224 148.296 47.52C145.832 46.784 143.848 45.84 142.344 44.688L144.984 38.832C146.424 39.888 148.136 40.736 150.12 41.376C152.104 42.016 154.088 42.336 156.072 42.336C158.28 42.336 159.912 42.016 160.968 41.376C162.024 40.704 162.552 39.824 162.552 38.736C162.552 37.936 162.232 37.28 161.592 36.768C160.984 36.224 160.184 35.792 159.192 35.472C158.232 35.152 156.92 34.8 155.256 34.416C152.696 33.808 150.6 33.2 148.968 32.592C147.336 31.984 145.928 31.008 144.744 29.664C143.592 28.32 143.016 26.528 143.016 24.288C143.016 22.336 143.544 20.576 144.6 19.008C145.656 17.408 147.24 16.144 149.352 15.216C151.496 14.288 154.104 13.824 157.176 13.824C159.32 13.824 161.416 14.08 163.464 14.592C165.512 15.104 167.304 15.84 168.84 16.8L166.44 22.704C163.336 20.944 160.232 20.064 157.128 20.064C154.952 20.064 153.336 20.416 152.28 21.12C151.256 21.824 150.744 22.752 150.744 23.904C150.744 25.056 151.336 25.92 152.52 26.496C153.736 27.04 155.576 27.584 158.04 28.128C160.6 28.736 162.696 29.344 164.328 29.952C165.96 30.56 167.352 31.52 168.504 32.832C169.688 34.144 170.28 35.92 170.28 38.16C170.28 40.08 169.736 41.84 168.648 43.44C167.592 45.008 165.992 46.256 163.848 47.184C161.704 48.112 159.096 48.576 156.024 48.576ZM201.609 41.76V48H175.593V14.4H200.985V20.64H183.321V27.936H198.921V33.984H183.321V41.76H201.609ZM223.975 48.576C220.487 48.576 217.335 47.824 214.519 46.32C211.735 44.816 209.543 42.752 207.943 40.128C206.375 37.472 205.591 34.496 205.591 31.2C205.591 27.904 206.375 24.944 207.943 22.32C209.543 19.664 211.735 17.584 214.519 16.08C217.335 14.576 220.487 13.824 223.975 13.824C227.463 13.824 230.599 14.576 233.383 16.08C236.167 17.584 238.359 19.664 239.959 22.32C241.559 24.944 242.359 27.904 242.359 31.2C242.359 34.496 241.559 37.472 239.959 40.128C238.359 42.752 236.167 44.816 233.383 46.32C230.599 47.824 227.463 48.576 223.975 48.576ZM223.975 41.952C225.959 41.952 227.751 41.504 229.351 40.608C230.951 39.68 232.199 38.4 233.095 36.768C234.023 35.136 234.487 33.28 234.487 31.2C234.487 29.12 234.023 27.264 233.095 25.632C232.199 24 230.951 22.736 229.351 21.84C227.751 20.912 225.959 20.448 223.975 20.448C221.991 20.448 220.199 20.912 218.599 21.84C216.999 22.736 215.735 24 214.807 25.632C213.911 27.264 213.463 29.12 213.463 31.2C213.463 33.28 213.911 35.136 214.807 36.768C215.735 38.4 216.999 39.68 218.599 40.608C220.199 41.504 221.991 41.952 223.975 41.952Z" fill="white"/>
</svg>
