<svg width="139" height="31" viewBox="0 0 139 31" fill="none" xmlns="http://www.w3.org/2000/svg">
<path d="M8.652 27.224C7.17733 27.224 5.74933 27 4.368 26.552C3.00533 26.0853 1.932 25.488 1.148 24.76L2.184 22.576C2.93067 23.248 3.88267 23.7987 5.04 24.228C6.216 24.6387 7.42 24.844 8.652 24.844C10.276 24.844 11.4893 24.5733 12.292 24.032C13.0947 23.472 13.496 22.7347 13.496 21.82C13.496 21.148 13.272 20.6067 12.824 20.196C12.3947 19.7667 11.8533 19.44 11.2 19.216C10.5653 18.992 9.66 18.74 8.484 18.46C7.00933 18.1053 5.81467 17.7507 4.9 17.396C4.004 17.0413 3.22933 16.5 2.576 15.772C1.94133 15.0253 1.624 14.0267 1.624 12.776C1.624 11.7307 1.89467 10.788 2.436 9.948C2.996 9.108 3.836 8.436 4.956 7.932C6.076 7.428 7.46667 7.176 9.128 7.176C10.2853 7.176 11.424 7.32533 12.544 7.624C13.664 7.92267 14.6253 8.352 15.428 8.912L14.504 11.152C13.6827 10.6293 12.8053 10.2373 11.872 9.976C10.9387 9.696 10.024 9.556 9.128 9.556C7.54133 9.556 6.34667 9.84533 5.544 10.424C4.76 11.0027 4.368 11.7493 4.368 12.664C4.368 13.336 4.592 13.8867 5.04 14.316C5.488 14.7267 6.03867 15.0533 6.692 15.296C7.364 15.52 8.26933 15.7627 9.408 16.024C10.8827 16.3787 12.068 16.7333 12.964 17.088C13.86 17.4427 14.6253 17.984 15.26 18.712C15.9133 19.44 16.24 20.42 16.24 21.652C16.24 22.6787 15.96 23.6213 15.4 24.48C14.84 25.32 13.9907 25.992 12.852 26.496C11.7133 26.9813 10.3133 27.224 8.652 27.224ZM26.2946 27.168C24.82 27.168 23.4946 26.8413 22.3186 26.188C21.1426 25.5347 20.2186 24.6387 19.5466 23.5C18.8933 22.3427 18.5666 21.036 18.5666 19.58C18.5666 18.124 18.8933 16.8267 19.5466 15.688C20.2186 14.5307 21.1426 13.6347 22.3186 13C23.4946 12.3467 24.82 12.02 26.2946 12.02C27.7693 12.02 29.0853 12.3467 30.2426 13C31.4186 13.6347 32.3333 14.5307 32.9866 15.688C33.6586 16.8267 33.9946 18.124 33.9946 19.58C33.9946 21.036 33.6586 22.3427 32.9866 23.5C32.3333 24.6387 31.4186 25.5347 30.2426 26.188C29.0853 26.8413 27.7693 27.168 26.2946 27.168ZM26.2946 24.816C27.2466 24.816 28.096 24.6013 28.8426 24.172C29.608 23.724 30.2053 23.108 30.6346 22.324C31.064 21.5213 31.2786 20.6067 31.2786 19.58C31.2786 18.5533 31.064 17.648 30.6346 16.864C30.2053 16.0613 29.608 15.4453 28.8426 15.016C28.096 14.5867 27.2466 14.372 26.2946 14.372C25.3426 14.372 24.484 14.5867 23.7186 15.016C22.972 15.4453 22.3746 16.0613 21.9266 16.864C21.4973 17.648 21.2826 18.5533 21.2826 19.58C21.2826 20.6067 21.4973 21.5213 21.9266 22.324C22.3746 23.108 22.972 23.724 23.7186 24.172C24.484 24.6013 25.3426 24.816 26.2946 24.816ZM45.6361 12.02C47.5214 12.02 49.0147 12.5707 50.1161 13.672C51.2361 14.7547 51.7961 16.3507 51.7961 18.46V27H49.1081V18.768C49.1081 17.3307 48.7627 16.248 48.0721 15.52C47.3814 14.792 46.3921 14.428 45.1041 14.428C43.6481 14.428 42.5001 14.8573 41.6601 15.716C40.8201 16.556 40.4001 17.7693 40.4001 19.356V27H37.7121V12.16H40.2881V14.4C40.8294 13.6347 41.5574 13.0467 42.4721 12.636C43.4054 12.2253 44.4601 12.02 45.6361 12.02ZM56.7707 12.16H59.4587V27H56.7707V12.16ZM58.1147 9.304C57.592 9.304 57.1533 9.136 56.7987 8.8C56.4627 8.464 56.2947 8.05333 56.2947 7.568C56.2947 7.08267 56.4627 6.672 56.7987 6.336C57.1533 5.98133 57.592 5.804 58.1147 5.804C58.6373 5.804 59.0667 5.972 59.4027 6.308C59.7573 6.62533 59.9347 7.02667 59.9347 7.512C59.9347 8.016 59.7573 8.44533 59.4027 8.8C59.0667 9.136 58.6373 9.304 58.1147 9.304ZM71.059 27.168C69.547 27.168 68.1936 26.8413 66.999 26.188C65.823 25.5347 64.899 24.6387 64.227 23.5C63.555 22.3427 63.219 21.036 63.219 19.58C63.219 18.124 63.555 16.8267 64.227 15.688C64.899 14.5307 65.823 13.6347 66.999 13C68.1936 12.3467 69.547 12.02 71.059 12.02C72.403 12.02 73.5976 12.2907 74.643 12.832C75.707 13.3733 76.5283 14.1573 77.107 15.184L75.063 16.5C74.5963 15.7907 74.0176 15.2587 73.327 14.904C72.6363 14.5493 71.871 14.372 71.031 14.372C70.0603 14.372 69.183 14.5867 68.399 15.016C67.6336 15.4453 67.027 16.0613 66.579 16.864C66.1496 17.648 65.935 18.5533 65.935 19.58C65.935 20.6253 66.1496 21.5493 66.579 22.352C67.027 23.136 67.6336 23.7427 68.399 24.172C69.183 24.6013 70.0603 24.816 71.031 24.816C71.871 24.816 72.6363 24.6387 73.327 24.284C74.0176 23.9293 74.5963 23.3973 75.063 22.688L77.107 23.976C76.5283 25.0027 75.707 25.796 74.643 26.356C73.5976 26.8973 72.403 27.168 71.059 27.168Z" fill="#353535"/>
<path d="M90.764 27.336C89.2147 27.336 87.712 27.1307 86.256 26.72C84.8187 26.2907 83.6613 25.74 82.784 25.068L84.324 21.652C85.164 22.268 86.1627 22.7627 87.32 23.136C88.4773 23.5093 89.6347 23.696 90.792 23.696C92.08 23.696 93.032 23.5093 93.648 23.136C94.264 22.744 94.572 22.2307 94.572 21.596C94.572 21.1293 94.3853 20.7467 94.012 20.448C93.6573 20.1307 93.1907 19.8787 92.612 19.692C92.052 19.5053 91.2867 19.3 90.316 19.076C88.8227 18.7213 87.6 18.3667 86.648 18.012C85.696 17.6573 84.8747 17.088 84.184 16.304C83.512 15.52 83.176 14.4747 83.176 13.168C83.176 12.0293 83.484 11.0027 84.1 10.088C84.716 9.15467 85.64 8.41733 86.872 7.876C88.1227 7.33467 89.644 7.064 91.436 7.064C92.6867 7.064 93.9093 7.21333 95.104 7.512C96.2987 7.81067 97.344 8.24 98.24 8.8L96.84 12.244C95.0293 11.2173 93.2187 10.704 91.408 10.704C90.1387 10.704 89.196 10.9093 88.58 11.32C87.9827 11.7307 87.684 12.272 87.684 12.944C87.684 13.616 88.0293 14.12 88.72 14.456C89.4293 14.7733 90.5027 15.0907 91.94 15.408C93.4333 15.7627 94.656 16.1173 95.608 16.472C96.56 16.8267 97.372 17.3867 98.044 18.152C98.7347 18.9173 99.08 19.9533 99.08 21.26C99.08 22.38 98.7627 23.4067 98.128 24.34C97.512 25.2547 96.5787 25.9827 95.328 26.524C94.0773 27.0653 92.556 27.336 90.764 27.336ZM116.627 19.524C116.627 19.58 116.599 19.972 116.543 20.7H105.147C105.353 21.6333 105.838 22.3707 106.603 22.912C107.369 23.4533 108.321 23.724 109.459 23.724C110.243 23.724 110.934 23.612 111.531 23.388C112.147 23.1453 112.717 22.772 113.239 22.268L115.563 24.788C114.145 26.412 112.073 27.224 109.347 27.224C107.649 27.224 106.146 26.8973 104.839 26.244C103.533 25.572 102.525 24.648 101.815 23.472C101.106 22.296 100.751 20.9613 100.751 19.468C100.751 17.9933 101.097 16.668 101.787 15.492C102.497 14.2973 103.458 13.3733 104.671 12.72C105.903 12.048 107.275 11.712 108.787 11.712C110.262 11.712 111.597 12.0293 112.791 12.664C113.986 13.2987 114.919 14.2133 115.591 15.408C116.282 16.584 116.627 17.956 116.627 19.524ZM108.815 15.016C107.826 15.016 106.995 15.296 106.323 15.856C105.651 16.416 105.241 17.1813 105.091 18.152H112.511C112.362 17.2 111.951 16.444 111.279 15.884C110.607 15.3053 109.786 15.016 108.815 15.016ZM126.704 27.224C125.117 27.224 123.689 26.8973 122.42 26.244C121.169 25.572 120.189 24.648 119.48 23.472C118.77 22.296 118.416 20.9613 118.416 19.468C118.416 17.9747 118.77 16.64 119.48 15.464C120.189 14.288 121.169 13.3733 122.42 12.72C123.689 12.048 125.117 11.712 126.704 11.712C128.29 11.712 129.709 12.048 130.96 12.72C132.21 13.3733 133.19 14.288 133.9 15.464C134.609 16.64 134.964 17.9747 134.964 19.468C134.964 20.9613 134.609 22.296 133.9 23.472C133.19 24.648 132.21 25.572 130.96 26.244C129.709 26.8973 128.29 27.224 126.704 27.224ZM126.704 23.64C127.824 23.64 128.738 23.2667 129.448 22.52C130.176 21.7547 130.54 20.7373 130.54 19.468C130.54 18.1987 130.176 17.1907 129.448 16.444C128.738 15.6787 127.824 15.296 126.704 15.296C125.584 15.296 124.66 15.6787 123.932 16.444C123.204 17.1907 122.84 18.1987 122.84 19.468C122.84 20.7373 123.204 21.7547 123.932 22.52C124.66 23.2667 125.584 23.64 126.704 23.64Z" fill="#353535"/>
</svg>
