<svg width="283" height="56" viewBox="0 0 283 56" fill="none" xmlns="http://www.w3.org/2000/svg">
<path d="M22.9954 12.0063V41.0409H17.3336V16.8696H5.66174V41.0409H0V12.0063H22.9954Z" fill="#4990E2"/>
<path d="M38.4708 12.0063C41.7372 12.0063 44.0019 12.3548 46.1359 14.2275C47.0985 15.1195 47.8603 16.206 48.3709 17.4149C48.8815 18.6238 49.1292 19.9274 49.0975 21.2393C49.0975 22.3717 48.9233 25.5074 46.7021 27.7286C45.0907 29.34 42.6953 30.2981 39.3418 30.2981H35.7125V41.0554H30.0508V12.0209L38.4708 12.0063ZM35.7125 25.4348H38.0208C39.3225 25.5554 40.6268 25.2331 41.7227 24.5203C42.2258 24.1015 42.628 23.5746 42.8995 22.979C43.1709 22.3833 43.3046 21.7341 43.2905 21.0797C43.3067 20.4392 43.1687 19.8043 42.8883 19.2283C42.6079 18.6522 42.1932 18.152 41.6791 17.7697C40.4695 17.0599 39.0702 16.7405 37.6724 16.8551H35.7125V25.4348Z" fill="#4990E2"/>
<path d="M122.874 24.2881L133.559 12.0065H140.702L128.434 25.435L141.369 41.0701H133.878L123.557 28.0335L122.903 28.6868V41.0265H117.242V11.9919H122.874V24.2881Z" fill="#4990E2"/>
<path d="M162.594 34.958H150.864L148.294 41.0553H142.153L154.74 11.3965H159.008L171.246 41.0553H165.149L162.594 34.958ZM160.939 30.3415L156.845 19.8891L152.649 30.3415H160.939Z" fill="#4990E2"/>
<path d="M183.528 12.0063C186.794 12.0063 189.059 12.3548 191.193 14.2275C192.155 15.1195 192.917 16.206 193.428 17.4149C193.938 18.6238 194.186 19.9274 194.154 21.2393C194.154 22.3717 193.98 25.5074 191.759 27.7286C190.176 29.34 187.752 30.2981 184.37 30.2981H180.74V41.0554H175.078V12.0209L183.528 12.0063ZM180.74 25.4348H183.048C184.35 25.5554 185.655 25.2331 186.75 24.5203C187.253 24.1015 187.656 23.5746 187.927 22.979C188.199 22.3833 188.332 21.7341 188.318 21.0797C188.334 20.4392 188.196 19.8043 187.916 19.2283C187.636 18.6522 187.221 18.152 186.707 17.7697C185.497 17.0599 184.098 16.7405 182.7 16.8551H180.74V25.4348Z" fill="#4990E2"/>
<path d="M204.432 23.2572H216.714V12.0063H222.376V41.0409H216.714V28.1133H204.432V41.0482H198.771V12.0136H204.432V23.2572Z" fill="#4990E2"/>
<path d="M235.093 12.0063V31.5175L251.149 11.353H255.069V41.0554H249.407V21.4571L233.351 41.6143H229.431V11.999L235.093 12.0063Z" fill="#4990E2"/>
<path d="M262.705 14.75C265.116 12.4844 268.325 11.2634 271.633 11.353C277.512 11.353 281.171 14.3581 281.171 18.931C281.194 20.1832 280.873 21.4177 280.243 22.5004C279.613 23.583 278.699 24.4724 277.6 25.0718C281.171 25.9864 283 29.035 283 32.5627C283 38.0938 278.166 41.7086 271.459 41.7086C266.378 41.7086 262.618 39.6182 260.527 36.2211L264.215 32.6934C265.608 35.7856 268.831 37.005 271.575 37.005C275.495 37.005 277.15 34.871 277.15 32.6934C277.15 28.6431 273.143 28.2511 270.791 28.2511H268.178V23.3733H270.791C273.694 23.3733 275.625 22.0232 275.625 19.6714C275.625 17.5809 274.232 16.3179 271.488 16.3179C270.413 16.2804 269.342 16.4662 268.342 16.8635C267.343 17.2608 266.437 17.861 265.681 18.6262L262.705 14.75Z" fill="#4990E2"/>
<path d="M99.6467 13.458C97.5823 11.1045 95.04 9.218 92.1892 7.92423C89.3384 6.63047 86.2447 5.95916 83.1141 5.95504C79.9835 5.95092 76.8879 6.61408 74.0338 7.90034C71.1796 9.18659 68.6323 11.0664 66.5618 13.4145L62.1195 9.46576C64.747 6.48592 67.9794 4.10038 71.6015 2.46816C75.2235 0.835938 79.1518 -0.00546814 83.1246 2.67409e-05C87.0974 0.00552162 91.0234 0.857791 94.6409 2.50003C98.2584 4.14226 101.484 6.53673 104.103 9.52383L99.6467 13.458Z" fill="#605F60"/>
<path d="M91.2992 21.7184C88.9944 19.5964 85.9759 18.4184 82.8429 18.4184C79.7099 18.4184 76.6915 19.5964 74.3866 21.7184L70.3726 17.3632C73.7707 14.2409 78.2173 12.5083 82.832 12.5083C87.4468 12.5083 91.8933 14.2409 95.2915 17.3632L91.2992 21.7184Z" fill="#605F60"/>
<path d="M83.0389 55.0211C78.5004 55.0235 74.0315 53.9059 70.0284 51.7676C66.0252 49.6292 62.6116 46.5362 60.0901 42.7626C57.5687 38.989 56.0173 34.6516 55.5736 30.1349C55.1299 25.6181 55.8076 21.0617 57.5465 16.8696L63.0195 19.1416C61.6613 22.4283 61.133 25.9989 61.4812 29.5382C61.8294 33.0774 63.0434 36.4766 65.0162 39.4356C66.9889 42.3946 69.6597 44.8226 72.7928 46.5052C75.9259 48.1878 79.425 49.0734 82.9814 49.0837C86.5377 49.094 90.0419 48.2287 93.1847 46.5643C96.3275 44.8998 99.0123 42.4874 101.002 39.5398C102.992 36.5923 104.226 33.2002 104.594 29.663C104.963 26.1259 104.455 22.5523 103.116 19.2577L108.604 17.0221C110.314 21.2121 110.967 25.7586 110.505 30.2607C110.043 34.7627 108.481 39.0819 105.955 42.8374C103.43 46.5929 100.019 49.6693 96.0239 51.7953C92.0287 53.9213 87.5718 55.0316 83.0461 55.0283L83.0389 55.0211Z" fill="#4990E2"/>
<path d="M88.403 25.9647C86.8887 24.5701 84.9052 23.7959 82.8465 23.7959C80.7878 23.7959 78.8044 24.5701 77.29 25.9647L80.0483 28.977L80.7016 29.7029L81.2968 30.3489L82.8356 32.0112L84.3817 30.3562L85.6375 28.977L88.403 25.9647Z" fill="#605F60"/>
</svg>
