<?xml version="1.0" encoding="UTF-8" standalone="no"?><!DOCTYPE svg PUBLIC "-//W3C//DTD SVG 1.1//EN" "http://www.w3.org/Graphics/SVG/1.1/DTD/svg11.dtd"><svg width="100%" height="100%" viewBox="0 0 15939 13345" version="1.1" xmlns="http://www.w3.org/2000/svg" xmlns:xlink="http://www.w3.org/1999/xlink" xml:space="preserve" xmlns:serif="http://www.serif.com/" style="fill-rule:evenodd;clip-rule:evenodd;stroke-linejoin:round;stroke-miterlimit:2;"><rect id="Монтажная-область1" serif:id="Монтажная область1" x="0" y="0" width="15934.6" height="13340.6" style="fill:none;"/><g><path d="M22788.7,8774.94c-577.083,1406.64 -1060.42,4093.77 -7835,4425.81c-10038.3,269.494 -12347.6,-2742.34 -13131.4,-3597.54c-1300.96,-1419.44 -2090.74,-6577.89 -1577.09,-7615.5c513.644,-1037.61 3487.3,-1611.98 4483.13,-1686.42c1244.77,-93.045 5372.48,-662.867 8316,583.85c2943.5,1246.69 10731.7,5483.36 9744.39,7889.83l-0.039,-0.028Z" style="fill:#7cccff;fill-rule:nonzero;"/><g><path d="M11192.7,8756.5c218.028,-549.028 307.011,-1140.72 260.067,-1729.49c-46.967,-588.778 -228.589,-1158.94 -530.9,-1666.58l-6173.78,853.773l5916.44,-1231.51c-359.956,-468.028 -822.917,-847.056 -1353.08,-1107.75c-530.139,-260.672 -1113.25,-396.022 -1704.17,-395.533c-2130.53,0 -3857.67,1725 -3857.67,3852.87c0.05,175.861 12.039,351.528 35.906,525.767l7407.17,898.45l0.005,0Z" style="fill:#f2f2f2;fill-rule:nonzero;"/><path d="M4007.49,8719.44c557.595,1442.41 1958.96,2465.7 3599.84,2465.7c1539.7,0 2868.54,-901.039 3487.24,-2203.87l-7087.06,-261.828l-0.028,0Z" style="fill:#f2f2f2;fill-rule:nonzero;"/><path d="M10999.2,10172.4c0,1548.9 -2357.85,2804.46 -5266.26,2804.46c-1562.47,0 -2966.02,-362.308 -3930.38,-937.904c-629.212,-375.453 -1071.58,-841.765 -1249.05,-1357.1c-57.262,-164.127 -86.588,-336.188 -86.805,-509.459c0,-1548.74 4364.12,-8534.96 5266.24,-2804.29c902.138,5730.72 5266.26,1255.55 5266.26,2804.29Z" style="fill:#b3e4ff;fill-rule:nonzero;"/><path d="M8487.94,11087c0,559.056 -1767.7,1012.34 -3948.42,1012.34c-839.933,0 -1597.96,-130.029 -2237.89,-244.701c-1169.01,-433.383 -1885.8,-953.856 -1204.68,-1263.82c676.989,-308.078 1965,-516.133 3442.57,-516.133c2180.72,0 3948.42,453.289 3948.42,1012.32l0,-0.006Z" style="fill-opacity:0.1;fill-rule:nonzero;"/><path d="M5637.89,5287.52c-312.917,-528.078 -932.017,-552.683 -932.017,-552.683c0,0 -603.239,-77.061 -990.233,727.222c-360.717,749.628 -858.539,1473.43 -80.161,1648.91l140.605,-437.061l87.084,469.606c110.805,7.966 221.989,9.861 333.027,5.672c833.589,-26.872 1627.43,7.872 1601.88,-290.878c-33.983,-397.155 140.9,-1062.68 -160.183,-1570.79Z" style="fill:#2f2e41;fill-rule:nonzero;"/><path d="M3591.01,9912.11c-11.594,57.639 -20.183,116.228 -39.905,171.622c-19.584,55 -49.817,105.856 -67.712,161.411c-57.083,177.106 22.039,374.584 148.406,511.273c109.583,118.077 251.017,201.944 407.267,241.527c113.983,28.639 232.522,32.756 349.977,36.739c325.3,11.017 658.984,20.878 967.2,-83.544c97.384,-33.795 191.456,-76.478 281.017,-127.5c28.267,-13.445 53.172,-33.033 72.895,-57.339c23.516,-33.422 26.527,-76.778 26.322,-117.611c-0.695,-137.733 -28.661,-274.772 -22.017,-412.339c3.683,-76.206 17.961,-152.339 10.928,-228.311c-15.928,-172.267 -152.917,-326.483 -322.295,-362.8c-87.427,-18.75 -178.122,-8.545 -267.15,0.022c-231.066,22.178 -463.127,32.522 -695.277,31.045c-237.178,-1.506 -472.895,-37.667 -708.911,-41.462c-69.795,-1.111 -68.384,20.395 -90.606,87.85c-20.461,62.078 -37.2,125.345 -50.139,189.417Z" style="fill:#2f2e41;fill-rule:nonzero;"/><path d="M4264.14,6511.28c-11.389,59.605 -23.728,121.389 -59.583,170.372c-41.273,56.367 -108.545,88.567 -152.939,142.5c-66.806,81.178 -70.65,195.417 -70.928,300.506c-0.256,96.833 1.711,200.094 55.761,280.444c35.094,52.15 88.472,88.728 140.65,123.839c202.711,136.439 421.783,275.35 666.206,279.839c101.25,1.878 209.838,-24.256 276.477,-100.439c28.778,-35.789 51.389,-76.089 66.945,-119.283c62.5,-153.867 100.372,-316.595 112.272,-482.2c5.556,-77.917 5.022,-158.123 -21.389,-231.645c-29.678,-82.683 -89.722,-150.717 -129.4,-229.117c-46.9,-93.216 -64.05,-198.544 -49.167,-301.805c1.989,-7.272 1.367,-15 -1.711,-21.878c-3.266,-3.678 -7.339,-6.55 -11.9,-8.4c-4.561,-1.85 -9.489,-2.617 -14.4,-2.244l-484.627,-34.839c-45.139,-2.245 -90.095,-7.384 -134.562,-15.372c-26.133,-5.3 -95.138,-42.362 -120.044,-32.523c-46.111,18.239 -58.217,232.8 -67.661,282.245Z" style="fill:#facecd;fill-rule:nonzero;"/><path d="M4261.11,6510.72c-11.412,59.606 -23.728,121.389 -59.584,170.372c-41.272,56.367 -108.544,88.567 -152.939,142.5c-66.827,81.184 -70.65,195.417 -70.927,300.512c-0.256,96.827 1.711,200.088 55.766,280.438c35.089,52.173 88.472,88.728 140.622,123.845c202.734,136.455 421.784,275.344 666.206,279.833c101.272,1.878 209.861,-24.255 276.506,-100.439c28.772,-35.789 51.388,-76.089 66.944,-119.283c62.472,-153.867 100.367,-316.594 112.244,-482.194c5.578,-77.917 5.045,-158.128 -21.366,-231.645c-29.7,-82.689 -89.722,-150.722 -129.4,-229.122c-46.922,-93.195 -64.072,-198.545 -49.167,-301.806c1.995,-7.266 1.367,-15 -1.711,-21.877c-3.267,-3.678 -7.339,-6.55 -11.9,-8.4c-4.561,-1.828 -9.489,-2.617 -14.394,-2.223l-484.634,-34.861c-45.139,-2.244 -90.089,-7.361 -134.561,-15.372c-26.133,-5.3 -95.139,-42.361 -120.044,-32.5c-46.111,18.244 -58.217,232.778 -67.661,282.222Z" style="fill-opacity:0.1;fill-rule:nonzero;"/><path d="M4727.61,6576.17c392.683,0 711.017,-317.917 711.017,-710.111c0,-392.2 -318.334,-710.145 -711.017,-710.145c-392.689,0 -711.022,317.945 -711.022,710.145c0,392.194 318.333,710.111 711.022,710.111Z" style="fill:#facecd;fill-rule:nonzero;"/><path d="M4363.86,7456.56c37.061,38.683 76.317,76.994 124.883,99.655c48.312,22.567 102.734,28.172 156.017,29.672c128.172,3.617 267.133,-19.855 356.272,-111.872c114.934,-118.633 111.161,-309.978 201.25,-448.378c7.25,-12.55 17.156,-23.355 29.028,-31.716c15.095,-8.217 32.178,-12.128 49.378,-11.339c113.772,-1.045 212.872,72.639 302.317,142.894c40.066,31.456 81.155,64.05 106.433,108.261c17.683,34.467 29.789,71.506 35.878,109.745c44.377,216.411 58.75,437.689 73.033,658.15c7.872,121.761 15.767,243.633 15.183,365.65c-1.944,401.989 -95.483,797.244 -188.516,1188.36c-11.989,50.395 -28.4,106.734 -74.284,130.878c-20.439,9.167 -42.427,14.539 -64.811,15.789c-266.461,31.25 -533.472,62.544 -801.716,66.667c-104.7,1.616 -209.328,-0.906 -313.934,-7.595c-18.011,-0.233 -35.855,-3.333 -52.872,-9.189c-23.1,-11.089 -42.961,-27.939 -57.661,-48.911c-145.095,-182.616 -153.656,-435.094 -152.733,-668.244c2.272,-570 22.666,-1139.53 61.161,-1708.61c3.194,-46.989 3.889,-104.028 -30,-140.973c61.016,97.55 145.877,187.778 225.694,271.112Z" style="fill:#d0cde1;fill-rule:nonzero;"/><path d="M4213.26,6636.61c-24.028,43.422 -201.062,151.222 -235.25,187.217c-190.973,201.044 -539.517,193.5 -714.195,408.844c-61.433,75.767 -93.355,170.95 -116.85,265.578c-33.217,133.867 -50.95,279.839 4.7,406.044c53.517,121.456 166.206,205.417 242.733,313.889c84,119.117 121.756,263.728 157.962,404.861c26.733,104.212 53.677,211.017 43.261,318.078c-11.828,121.734 -70.806,233.217 -105.645,350.461c-34.816,117.273 -40.833,256.923 39.7,349.078c59.139,67.706 151.945,94.533 240.622,109.65c113.217,19.261 228.267,24.745 342.989,29.817c101.389,4.466 213.145,5.344 291.084,-59.584c61.483,-51.205 88.222,-134.327 91.666,-214.238c3.473,-79.906 -13.166,-159.095 -23.611,-238.378c-10.783,-82.2 -14.95,-165.117 -18.422,-247.961c-15.606,-371.667 -17.733,-743.567 -6.389,-1115.72c2.361,-77.427 5.228,-155.805 -11.3,-231.5c-21.755,-99.561 -75.622,-188.522 -120.555,-280c-89.234,-181.55 -131.412,-357.916 -117.639,-559.7c13.611,-199.188 100.583,-350.927 15.139,-196.438l0,0.005Z" style="fill:#575a89;fill-rule:nonzero;"/><path d="M5211.71,6651.72c36.577,37.55 160.883,49.934 207.411,74.1c42.727,22.222 90.022,33.817 136.339,47.15c169.722,48.911 331.161,122.917 478.938,219.561c30.717,17.939 57.867,41.367 80.089,69.1c26.045,36.156 35.489,81.295 44.306,124.95c22.8,112.711 45.694,226.784 40.578,341.667c-5.439,121.944 -42.223,240.05 -78.7,356.528l-136.323,435.305c-101.755,324.906 -204.166,653.006 -232.8,992.245c-15.833,188.005 -8.794,377.244 20.973,563.561c3.011,18.728 5.511,40.211 -6.873,54.583c-8.983,8.867 -20.788,14.306 -33.383,15.35c-65.783,10.278 -129.467,-23.244 -189.072,-52.894c-182.222,-90.556 -376.667,-154.1 -577.222,-188.634c78.377,-113.105 138.844,-237.616 179.283,-369.1c22.961,-83.516 41.039,-168.261 54.167,-253.861l63.4,-366.322c23.266,-134.328 46.55,-269.005 54.422,-405.094c4.794,-51.039 1.805,-102.478 -8.845,-152.617c-12.127,-48.356 -36.294,-92.683 -57.916,-137.611c-104.511,-217.133 -153.539,-464.911 -112.428,-702.295c18.011,-103.888 52.961,-207.916 38.378,-312.338c-14.006,-100.395 0.555,-178.423 -25.228,-277.778c-105.906,-407.961 -8.311,-146.2 60.506,-75.556Z" style="fill:#575a89;fill-rule:nonzero;"/><path d="M3262.01,7575.94c-47.639,98.75 -127.289,182.873 -154.395,289.095c-10.555,49.655 -15.072,100.372 -13.472,151.111c-0.65,76.439 -1.067,154.444 22.428,227.2c15.139,46.828 39.772,90.044 57.5,135.95c24.722,64.167 35.744,132.778 32.339,201.433c-4.789,95.117 -37.15,187.456 -39.678,282.661c-3.978,149.728 65.372,290.489 133.011,424.145c17.039,-42.128 43.078,-80.022 76.294,-111.039c33.223,-31.017 72.828,-54.4 116.067,-68.544c43.217,-14.117 89.006,-18.656 134.167,-13.262c45.161,5.395 88.589,20.556 127.266,44.467c17.85,-16.455 19.75,-43.494 20.445,-67.755c5,-173.7 9.811,-347.406 14.466,-521.112c7.339,-268.655 14.306,-540.9 -47.572,-802.45c-27.939,-118.083 -71.411,-235.722 -151.111,-327.316c-41.944,-48.239 -184.394,-175.278 -253.283,-121.25c-30.972,24.305 -23.728,90.439 -28.661,123.933c-7.406,52.939 -22.845,104.445 -45.811,152.733Z" style="fill:#575a89;fill-rule:nonzero;"/><path d="M6213.28,7291.39c22.544,70.089 23.889,144.978 24.328,218.611c0.922,150.139 -1.067,300.278 -5.973,450.417c-2.5,76.85 -5.95,154.744 -29.283,228.033c-15.394,48.333 -39.144,93.633 -55.022,141.806c-47.639,144.327 -21.622,300.877 -17.522,452.8c2.866,49.166 -1.323,98.494 -12.478,146.477c-25.139,94.167 -92.689,170.278 -139.817,255.628c-44.767,81.039 -71.783,171.878 -125.255,247.5c-53.473,75.6 -146.039,135.511 -235.762,112.295c-67.988,-17.573 -116.272,-77.689 -149.7,-139.378c-72.916,-135.622 -97.85,-291.872 -70.766,-443.428c33.544,-184.372 141.994,-347.961 181.089,-531.25c53.705,-251.689 -27.917,-511.433 -25.484,-768.772c-1.111,-40.322 4.373,-80.578 16.228,-119.167c20.506,-58.772 64.556,-105.717 105.278,-152.844c50.855,-58.939 98.1,-120.861 141.478,-185.467c29.144,-43.4 68.705,-155.044 120.372,-164.328c115.344,-20.716 249.678,162.084 278.289,251.067Z" style="fill:#575a89;fill-rule:nonzero;"/><path d="M2663.53,9800.22c-63.772,-16.016 -129.489,-23.005 -195.227,-20.739c-69.05,3.823 -136.506,22.267 -197.873,54.145c-61.366,31.85 -115.233,76.389 -158.011,130.672c-42.8,54.256 -73.539,117.011 -90.161,184.05c-16.644,67.061 -18.794,136.878 -6.317,204.817c13.589,73.955 44.095,143.677 77.362,211.133c51.783,104.928 113.866,209.628 209.722,276.872c56.061,39.334 120.95,63.867 185.066,87.989l504.817,189.928c74.261,27.944 148.539,55.883 223.539,81.805c376.761,130.073 769.583,208.056 1167.55,231.806c121.2,7.222 244.256,9.217 362.5,-18.333c28.056,-6.55 57.983,-16.295 74.233,-40.067c9.634,-16.739 15.3,-35.461 16.6,-54.722l31.061,-217.178c4.378,-30.578 8.589,-62.778 -2.638,-91.572c-14.234,-36.506 -49.906,-59.467 -83.912,-78.961c-331.872,-190.367 -719.372,-295.417 -998.727,-556.689c-65.761,-61.528 -120.784,-159.028 -200.695,-200.811c-90.6,-47.361 -197.311,-74.417 -290.944,-118.078c-204.75,-95.439 -406.045,-205.139 -627.945,-256.061l0,-0.006Z" style="fill:#2f2e41;fill-rule:nonzero;"/><path d="M3167.52,10093c178.427,55.833 931.739,442.706 1060.86,577.778c-17.289,6.222 -604.533,-322.456 -622.15,-327.756c-160.161,-48.011 -321.228,-96.322 -473.333,-166.6c-30.606,-14.116 -198.8,-80.555 -191.183,-119.116c8.611,-43.523 194.122,25.761 225.811,35.694Z" style="fill-opacity:0.1;fill-rule:nonzero;"/><path d="M5393.51,11545.3c10.117,0.745 20.161,-2.216 28.289,-8.333c3.539,-4.556 6.156,-9.767 7.683,-15.367c1.506,-5.577 1.9,-11.389 1.161,-17.133c-0.277,-98.633 -0.555,-197.267 -0.833,-295.878c-85.211,-40.555 -180.489,-53.539 -274.028,-66.039l-436.439,-58.244c10.023,1.322 -68.238,187.733 -56.227,212.617c21.161,43.866 182.777,82.733 228.405,103.427c158.589,71.989 323.378,151.134 501.989,144.95Z" style="fill:#facecd;fill-rule:nonzero;"/><path d="M4024.23,11207.6c-82.406,13.122 -174.372,24.7 -227.728,88.772c-67.689,81.228 -38.867,202.339 -6.6,302.984c4.817,20.372 14.422,39.261 28.078,55.139c22.039,21.716 55.789,24.883 86.666,26.833c75.167,4.767 155.139,8.494 220.789,-28.339c31.089,-17.428 56.806,-42.911 85.767,-63.656c48.422,-32.2 101.639,-56.477 157.683,-72.011c103.034,-32.361 209.095,-54.189 316.528,-65.139c42.128,-4.305 85.067,-7.061 124.7,-21.966c39.628,-14.911 76.295,-44.445 87.822,-85.139c15.211,-53.778 -16.089,-108.611 -46.111,-155.767c-37.383,-58.728 -76.989,-120.6 -132.733,-163.844c-81.317,-63.078 -121.528,-14.65 -203.445,25.722c-155.05,76.433 -320.694,129.139 -491.416,156.411Z" style="fill:#facecd;fill-rule:nonzero;"/><path d="M3808.88,11281.7l-523.216,-154.472c-63.634,-18.772 -128.356,-37.728 -194.7,-37.683c-66.367,0.066 -135.789,21.783 -178.823,72.222c-40.555,47.572 -52.172,112.567 -62.288,174.233l-21.645,131.878c-10.994,67.039 -22.011,135.35 -12.105,202.544c9.883,67.2 44.233,134.334 103.933,166.878c72.411,39.445 161.161,20.184 241.944,3.678c163.245,-33.333 329.261,-51.111 495.834,-53.1c62.639,-0.761 128.311,0.022 183.661,-29.261c65.783,-34.811 105.139,-108.45 111.894,-182.5c10.3,-112.661 -27.311,-259.839 -144.489,-294.417Z" style="fill:#2f2e41;fill-rule:nonzero;"/><path d="M5599.17,11147.1c67.822,-11.872 127.683,-50.367 192.661,-73.1c91.483,-31.989 190.628,-31.989 287.55,-31.622c35.578,0.117 73.472,0.928 103.1,20.605c42.683,28.4 53.633,85.206 60.878,135.923c14.605,101.994 29.216,203.961 43.822,305.95c8.216,57.544 16.411,116.644 3.561,173.333c-12.845,56.689 -51.55,111.367 -107.867,125.994c-68.428,17.756 -135.489,-25.9 -200.094,-54.555c-161.456,-71.695 -349.145,-53.361 -517.5,-106.922c-31.25,-9.956 -64.7,-25.139 -77.456,-55.328c-5.761,-16.989 -7.8,-35.022 -6.016,-52.867c2.872,-98.333 -17.895,-232.639 11.761,-326.622c26.666,-84.539 129.883,-60.789 205.6,-60.789Z" style="fill:#2f2e41;fill-rule:nonzero;"/><path d="M6706.39,9677.06c104.561,-26.184 212.939,-33.589 320.072,-21.856c85.578,9.422 173.722,33.194 236.2,92.361c76.045,71.995 100.467,183.333 102.5,287.945c3.356,208.4 -65.855,411.477 -195.783,574.555c-31.717,41.25 -69.445,77.55 -111.922,107.639c-45.834,28.639 -94.678,52.133 -145.65,70.094l-1130.48,445.35c-297.411,117.15 -595.861,234.65 -906.066,311.895c-8.495,4.078 -17.712,6.439 -27.106,6.922c-9.422,0.467 -18.822,-0.928 -27.661,-4.144c-8.867,-3.195 -16.995,-8.145 -23.889,-14.534c-6.922,-6.389 -12.478,-14.1 -16.367,-22.666c-99.05,-141.295 -182.155,-293.123 -247.777,-452.661c-3.106,-3.795 -5.256,-8.284 -6.25,-13.078c-1.023,-4.789 -0.856,-9.767 0.483,-14.489c1.322,-4.7 3.75,-9.05 7.105,-12.617c3.362,-3.566 7.528,-6.294 12.156,-7.916l799.606,-458.867c57.266,-32.872 115.183,-66.206 162.755,-111.989c34.561,-33.45 62.845,-72.8 83.539,-116.183c16.578,-34.584 18.128,-116.178 39.306,-141.734c20.722,-25.022 91.644,-27.016 124.377,-36.855c46.206,-14.117 91.434,-31.2 135.417,-51.134c178.867,-79.905 338.15,-196.016 509.606,-289.605c96.183,-54.906 198.933,-97.406 305.833,-126.433Z" style="fill:#2f2e41;fill-rule:nonzero;"/><path d="M6253.11,10019.7c-137.383,103.056 -315.25,197.778 -451.411,303.545c-46.478,36.083 -821.089,471.061 -832.061,528.816c127.039,21.389 936.183,-543.983 1051.94,-600.394c115.789,-56.411 218.406,-135.972 320.095,-214.928c25.928,-20.117 135.739,-80.628 61.366,-103.105c-41.922,-12.662 -119.005,65.466 -149.933,86.066Z" style="fill-opacity:0.1;fill-rule:nonzero;"/><path d="M5307.87,6661.67l-1205.91,0c-48.983,0 -95.972,19.444 -130.622,54.05c-34.633,34.583 -54.1,81.527 -54.1,130.466l0,67.545l-13.1,0l0,151.089l13.1,0l0,105.761l-13.1,0l0,90.672l13.1,0l0,1114.84c0,48.933 19.467,95.855 54.1,130.461c34.65,34.611 81.639,54.028 130.622,54.028l1205.91,0c48.977,0 95.972,-19.417 130.622,-54.028c34.628,-34.606 54.1,-81.528 54.1,-130.461l0,-1529.91c0,-48.939 -19.472,-95.883 -54.1,-130.466c-34.65,-34.606 -81.645,-54.05 -130.622,-54.05Z" style="fill:#3f3d56;fill-rule:nonzero;"/><path d="M5499.51,5236.62l-611.617,-319.978l-844.633,130.9l-174.745,770.834l435.022,-16.711l121.528,-283.195l0,278.545l200.695,-7.711l116.505,-450.878l72.828,479.95l713.561,-14.534l-29.144,-567.222Z" style="fill:#2f2e41;fill-rule:nonzero;"/><path d="M3422.03,9577.22c30.206,45.067 65.623,89.145 114.167,113.45c60.644,30.367 135.506,24.95 196.25,-5.255c60.228,-32.245 109.511,-81.6 141.639,-141.828c66.461,-117.222 80.233,-257.5 71.944,-391.995c-8.305,-134.466 -37.055,-266.872 -49.766,-400.994c-9.261,-97.5 -10,-195.578 -10.761,-293.517c-0.139,-20.577 0.183,-42.755 12.361,-59.35c14.722,-20.094 41.689,-25.627 65.577,-32.711c134.145,-39.816 223.195,-165.394 287.034,-289.794c42.616,-83.05 79.7,-173.839 71.483,-266.806c-8.217,-92.961 -75.139,-186.639 -168.1,-196.105c-76.644,-7.828 -147.411,40.783 -202.711,94.372c-139.467,136.039 -229.094,314.955 -254.489,507.989c-12.128,94.533 -8.655,191.616 -34.4,283.4c-54.978,195.95 -226.944,316.089 -312.661,492.405c-94.444,194.284 -42.317,414.839 72.433,586.739Z" style="fill:#facecd;fill-rule:nonzero;"/><path d="M5952.89,8828.61c-19.561,45.439 -48.033,86.506 -83.75,120.789c-35.722,34.256 -77.945,61.039 -124.167,78.75c-57.5,23.056 -120.905,26.944 -180.766,11.061c-29.7,-8.239 -57.084,-23.194 -80.045,-43.7c-22.967,-20.511 -40.883,-46.044 -52.361,-74.583c-9.167,-28.772 -14.189,-58.684 -14.933,-88.867c-8.589,-132.128 -5.278,-268.311 42.777,-391.711c18.545,-47.594 43.545,-92.756 58.173,-141.694c16.666,-55.806 19.35,-114.695 21.9,-172.917l15.783,-360.528c2.617,-26.183 0.811,-52.594 -5.344,-78.172c-15.767,-52.178 -64.584,-86.089 -109.378,-117.2c-108.167,-75.117 -215.067,-162.8 -267.5,-283.545c-16.039,-36.944 -26.617,-78.005 -18.472,-117.427c14.772,-71.6 87.111,-117.967 158.611,-133.567c46.783,-10.206 95.166,-10.878 142.2,-1.922c47.039,8.961 91.783,27.316 131.527,54.005c39.745,26.689 73.684,61.111 99.745,101.25c26.044,40.117 43.705,85.095 51.9,132.223c7.083,40.694 6.989,82.244 11.133,123.333c8.772,87.178 36.484,171.183 53.822,257.061c42.684,211.528 20.556,430.183 62.778,641.667c35.3,176.827 168.4,292.222 86.367,485.694Z" style="fill:#facecd;fill-rule:nonzero;"/><path d="M4721.06,7472.78c83.539,0 151.272,-67.661 151.272,-151.089c0,-83.45 -67.733,-151.111 -151.272,-151.111c-83.544,0 -151.278,67.661 -151.278,151.111c0,83.428 67.734,151.089 151.278,151.089Z" style="fill:#ff6584;fill-rule:nonzero;"/><path d="M9725.56,4832.2c79.533,0 144.027,-64.4 144.027,-143.822c0,-79.445 -64.494,-143.839 -144.027,-143.839c-79.539,0 -144.006,64.394 -144.006,143.839c0,79.422 64.467,143.822 144.006,143.822Z" style="fill:#ff6584;fill-rule:nonzero;"/><path d="M9905.56,4328.79l-360.023,0c-47.711,0.139 -93.427,19.123 -127.155,52.806c-33.728,33.678 -52.728,79.35 -52.867,126.989l0,359.583c0.139,47.639 19.139,93.284 52.867,126.967c33.728,33.705 79.444,52.683 127.155,52.822l360.023,0c47.705,-0.139 93.4,-19.139 127.127,-52.822c33.75,-33.683 52.756,-79.328 52.895,-126.967l0,-359.583c-0.139,-47.639 -19.145,-93.311 -52.895,-126.989c-33.727,-33.683 -79.422,-52.667 -127.127,-52.806Zm-180.023,575.328c-42.711,0 -84.494,-12.661 -120,-36.366c-35.533,-23.706 -63.216,-57.384 -79.561,-96.828c-16.366,-39.422 -20.628,-82.8 -12.294,-124.656c8.333,-41.85 28.889,-80.278 59.122,-110.461c30.211,-30.161 68.706,-50.717 110.6,-59.05c41.9,-8.311 85.328,-4.05 124.817,12.289c39.466,16.322 73.194,43.983 96.944,79.444c23.728,35.489 36.389,77.2 36.389,119.884c0,57.2 -22.778,112.083 -63.289,152.55c-40.505,40.439 -95.439,63.194 -152.728,63.194Zm234.028,-395.533c-10.672,0 -21.111,-3.172 -30,-9.1c-8.889,-5.922 -15.811,-14.35 -19.883,-24.211c-4.1,-9.861 -5.167,-20.695 -3.084,-31.156c2.084,-10.466 7.223,-20.072 14.773,-27.616c7.566,-7.545 17.172,-12.684 27.661,-14.767c10.483,-2.083 21.344,-1.022 31.205,3.078c9.861,4.072 18.306,10.994 24.234,19.861c5.927,8.866 9.1,19.305 9.1,29.978c0.022,7.083 -1.367,14.094 -4.078,20.644c-2.706,6.55 -6.689,12.5 -11.711,17.522c-5,5 -10.972,8.984 -17.522,11.695c-6.578,2.705 -13.589,4.072 -20.695,4.072Z" style="fill:#ff6584;fill-rule:nonzero;"/><path d="M9716.28,3865.74c-168.978,0 -334.167,50.05 -474.672,143.822c-140.512,93.75 -250.028,227.039 -314.678,382.961c-64.678,155.928 -81.6,327.5 -48.634,493.034c32.962,165.533 114.35,317.566 233.839,436.922c119.495,119.328 271.717,200.6 437.456,233.539c165.739,32.916 337.522,16.022 493.655,-48.561c156.112,-64.584 289.562,-173.962 383.45,-314.284c93.867,-140.35 143.984,-305.328 143.984,-474.1c0,-112.055 -22.106,-223.028 -65.045,-326.55c-42.944,-103.539 -105.861,-197.616 -185.211,-276.85c-79.328,-79.239 -173.516,-142.083 -277.178,-184.978c-103.655,-42.872 -214.766,-64.955 -326.966,-64.955Zm441.272,1025.58c-0.183,66.689 -26.806,130.6 -74.028,177.75c-47.222,47.178 -111.2,73.75 -177.983,73.961l-360.022,0c-66.784,-0.211 -130.789,-26.783 -178.011,-73.961c-47.223,-47.15 -73.817,-111.061 -74.028,-177.75l0,-359.583c0.211,-66.717 26.805,-130.628 74.028,-177.778c47.222,-47.178 111.227,-73.755 178.011,-73.939l360.022,0c66.783,0.184 130.761,26.761 177.983,73.934c47.222,47.155 73.845,111.066 74.056,177.783l-0.028,359.583Z" style="fill:#ff6584;fill-rule:nonzero;"/><path d="M7364.61,3171.29c-166.25,0 -328.794,49.239 -467.039,141.506c-138.261,92.272 -246.016,223.406 -309.628,376.806c-63.633,153.427 -80.277,322.244 -47.844,485.116c32.428,162.895 112.5,312.5 230.067,429.906c117.572,117.433 267.361,197.411 430.439,229.794c163.077,32.406 332.105,15.784 485.744,-47.778c153.611,-63.544 284.906,-171.161 377.267,-309.238c92.383,-138.078 141.689,-300.417 141.689,-466.478c0,-110.256 -21.762,-219.445 -64.006,-321.322c-42.244,-101.85 -104.167,-194.423 -182.222,-272.384c-78.078,-77.961 -170.739,-139.816 -272.728,-182.016c-102.017,-42.195 -211.322,-63.912 -321.739,-63.912Zm265.095,508.056l-107.617,0c-73.472,0 -87.5,34.7 -87.5,85.856l0,108.705l175,0l-22.872,170.511l-152.128,0l0,462.8l-195.117,0l0,-462.8l-139.928,0l0,-170.511l139.928,0l0,-126.067c0,-151.016 104.884,-233.216 239.934,-233.216c64.627,0 134.138,4.861 150.3,6.994l0,157.728Z" style="fill:#ff6584;fill-rule:nonzero;"/><g><path d="M10578.9,6157.5c-142.222,0 -258.589,116.367 -258.589,258.589l0,802.45c0,142.222 116.367,258.567 258.589,258.567l802.455,0c142.223,0 258.562,-116.345 258.562,-258.567l0,-802.45c0,-142.222 -116.339,-258.589 -258.562,-258.589l-802.455,0Zm148.011,297.756l260.3,0c54.072,0 95.139,1.966 123.011,6.227c27.867,4.028 54.05,12.684 78.378,25.856c26.317,14.167 46.089,33.261 59.122,56.922c13.028,23.817 19.628,51.156 19.628,82.267c0,35.95 -8.961,67.894 -27.039,95.95c-17.917,28.055 -42.756,48.678 -74.35,62.011l0,3.844c45.461,9.65 81.922,29.073 109.261,58.634c27.383,29.583 41.061,69.422 41.061,119.444c0,36.622 -6.894,68.911 -20.761,96.6c-13.867,27.706 -32.433,50.528 -55.928,68.772c-27.683,21.784 -58.1,37.128 -91.411,46.434c-33.1,9.283 -75.139,13.889 -126.322,13.889l-294.95,0l0,-736.85Zm184.094,135.066l0,155.95l23.312,0c31.6,0 53.911,-0.322 66.6,-0.994c12.661,-0.672 25.855,-4.05 39.372,-10.3c14.678,-6.922 25,-16.528 30.555,-28.706c5.578,-12.311 8.45,-26.55 8.45,-42.589c0,-11.972 -3.055,-24.166 -9.166,-36.666c-6.067,-12.5 -15.511,-21.623 -28.517,-27.2c-12.156,-5.417 -26.528,-8.267 -43.267,-8.8c-16.711,-0.506 -41.527,-0.695 -74.466,-0.695l-12.873,0Zm0,282.156l0,184.466l10,0c48.15,0 81.412,-0.35 99.817,-1.016c18.4,-0.672 37.339,-5.028 56.411,-13.311c16.922,-7.267 29.05,-17.917 36.85,-31.967c7.756,-14.006 11.645,-29.883 11.645,-47.617c0,-22.827 -4.511,-40.555 -13.817,-53.405c-9.283,-12.984 -23.15,-22.639 -41.578,-29.234c-11.155,-4.377 -26.711,-6.761 -46.294,-7.244c-19.584,-0.511 -45.928,-0.672 -78.889,-0.672l-34.145,0Z" style="fill:#ff6584;fill-rule:nonzero;"/></g></g></g></svg>