<svg width="21" height="15" viewBox="0 0 21 15" fill="none" xmlns="http://www.w3.org/2000/svg">
<path d="M20.1056 1.01719C20.2469 0.43125 20.1056 0 19.4257 0H17.176C16.6031 0 16.3396 0.370312 16.1983 0.782812C16.1983 0.782812 15.0524 4.20937 13.433 6.43125C12.9097 7.07344 12.6691 7.27969 12.3826 7.27969C12.2413 7.27969 12.0236 7.07344 12.0236 6.4875V1.01719C12.0236 0.314062 11.8632 0 11.3896 0H7.85278C7.49375 0 7.27986 0.328125 7.27986 0.632812C7.27986 1.29844 8.08958 1.45312 8.17361 3.32812V7.39688C8.17361 8.2875 8.04375 8.45156 7.75729 8.45156C6.9934 8.45156 5.13715 5.01094 4.03715 1.07344C3.81563 0.309375 3.59792 0 3.02118 0H0.771528C0.129861 0 0 0.370312 0 0.782812C0 1.51406 0.763889 5.14688 3.5559 9.94688C5.41597 13.2234 8.03611 15 10.4194 15C11.8517 15 12.0274 14.6063 12.0274 13.9266C12.0274 10.7953 11.8976 10.5 12.6156 10.5C12.9479 10.5 13.5208 10.7063 14.8576 12.2859C16.3854 14.1609 16.6375 15 17.4931 15H19.7427C20.3844 15 20.709 14.6062 20.5219 13.8281C20.0941 12.1922 17.2028 8.82656 17.0729 8.60156C16.7406 8.07656 16.8361 7.84219 17.0729 7.37344C17.0767 7.36875 19.8229 2.625 20.1056 1.01719Z" fill="white"/>
</svg>
